<svg width="130" height="130" viewBox="0 0 130 130" fill="none" xmlns="http://www.w3.org/2000/svg">
<rect width="130.065" height="130" fill="#97A3E4"/>
<path d="M129.93 129.865L0.0649414 129.93V118.518C0.0649414 118.518 9.66411 114.689 16.1032 114.213L40.3122 110.6C76.563 100.508 96.2091 96.3158 129.93 99.7837V129.865Z" fill="#809E62"/>
<path d="M130.135 101.406C117.798 100.325 96.6769 101.857 87.6585 102.758L86.0352 79.7729C87.7667 76.5279 94.1517 77.3392 97.1278 78.1504C97.218 74.0942 100.537 63.8184 114.173 63.8184C127.808 63.8184 130.586 76.4378 130.135 81.6658V101.406Z" fill="#3D6567"/>
<path d="M0 82.2065H26.514C26.514 82.2065 22.5015 71.8364 16.4 71.4798C16.4 71.4798 12.4652 58.1414 0 58.9895V82.2065Z" fill="#EDE5D6"/>
<path d="M0 35.9572H99.5738C99.5738 35.9572 72.3292 17.4931 57.4435 21.8469C57.4435 21.8469 28.3809 -1.85244 0 0.11619V35.9572Z" fill="#E1DDFA" fill-opacity="0.6"/>
<path d="M23.1384 84.9106C29.6317 84.9106 33.239 88.6965 34.231 90.5894V108.707L21.2446 111.682L11.7753 103.029C8.25809 94.6456 15.0219 84.9106 23.1384 84.9106Z" fill="#3D6567"/>
<path d="M129.865 54.0832H79.001C79.001 54.0832 86.7559 41.0071 103.378 41.3595C103.378 41.3595 108.085 27.9746 130 25V34V45V54.0832H129.865Z" fill="#EDE5D6"/>
<path d="M0 102.377L0 102.289V119.795C0 119.795 6.76379 114.386 20.5619 113.846L21.9147 107.356L22.7263 106.544V101.477H13.857L13.257 97.8909C13.257 97.8909 4.32882 93.0234 0 102.377Z" fill="#3D6567"/>
<path d="M34.6304 61.3848L35.7182 64.0276L36.2537 109.248L22.8913 106.515V69.1398L19.4795 67.0635L34.6304 61.3848Z" fill="#A5BCD1"/>
<path d="M87.6585 108.167L36.2698 109.248L35.7212 64.0275L34.6304 61.1143L87.6585 62.2199L86.4679 65.5618L87.6585 108.167Z" fill="#EDE5D5"/>
<path d="M58.4404 78.9614C58.4404 78.9614 64.9216 79.0244 64.9216 85.5392C64.9216 92.0602 64.9216 85.8479 64.9216 85.8479V107.925L69.2612 108.908L54.6518 109.248V84.3106C54.6456 84.3106 54.6456 80.5618 58.4404 78.9614Z" fill="#2E81A5"/>
<path d="M55.7334 76.8856C55.7334 76.8856 57.0109 75.7269 60.4758 75.9085C60.4758 75.9085 70.023 75.8459 70.023 88.5033V108.707L71.4252 108.682V88.1338C71.4252 88.1338 71.6059 75.3574 60.4135 75.1758C60.4135 75.1758 57.9208 75.2322 55.7334 76.8856Z" fill="#A5BCD1"/>
<path d="M55.7334 81.0215C55.7334 81.0215 57.3606 77.4928 61.1197 77.3426C64.8788 77.1925 68.7199 81.5659 68.7199 85.2573C68.7199 88.9487 68.7199 85.6514 68.7199 85.6514V108.707L64.904 107.756V85.5263C64.904 85.5263 65.2131 79.2947 58.3761 78.9944C58.3824 78.9944 56.9002 79.4511 55.7334 81.0215Z" fill="#A5BCD1"/>
<path d="M76.5293 62.2523L77.796 65.2162L78.4601 108.707H76.8983L76.5293 65.8881L74.6724 62.1958L76.5293 62.2523Z" fill="#A5BCD1"/>
<path d="M87.6588 108.166L88.3568 108.47L90.3643 117.353L43.1998 118.681C43.1998 118.681 42.0089 118.983 37.4203 118.983C36.934 118.983 34.621 118.983 34.621 118.983L32.3703 118.082C32.3703 118.082 31.8217 115.915 29.2031 115.73C29.2031 115.73 26.647 113.081 24.8826 114.464L20.562 113.921L21.9024 107.174L22.5695 106.544L36.2607 109.254L87.6588 108.166Z" fill="#63607D"/>
<path d="M87.6589 108.167L88.3569 108.47L90.3644 117.353L43.1998 118.681C43.1998 118.681 42.009 118.983 37.4204 118.983C36.9341 118.983 35.1719 118.983 35.1719 118.983L36.2608 118.172C36.2608 118.172 38.602 117.539 35.9835 117.353L35.9835 116.009L36.2607 113.845L36.2608 111.412V109.254L87.6589 108.167Z" fill="#9997AC"/>
<path d="M46.0028 39.8153C46.0028 39.8153 40.6854 37.5879 53.0282 37.5879C53.0282 37.5879 63.5797 37.8583 58.8191 40.0216L46.0028 39.8153Z" fill="#63607D"/>
<path d="M49.2245 52.8065L55.3859 54.0834L58.439 52.8065V42.4179V39.3159C58.439 39.3159 58.0773 37.8584 52.6332 37.8584C47.1891 37.8584 45.9937 39.4405 45.9937 39.4405L46.2328 53.7844L49.2245 52.8065Z" fill="#EDE5D5"/>
<path d="M90.364 62.4663L58.4389 52.4609L55.8119 53.6868L49.2204 52.4609L34.6304 61.3847L90.364 62.4663Z" fill="#2E81A5"/>
<path d="M34.6659 61.4943L19.4795 67.0634L46.1916 53.4445L49.2402 52.4609L34.6659 61.4943Z" fill="#216A89"/>
<path d="M53.5693 43.4589C53.5693 43.4589 53.7532 42.7256 54.3556 42.7256C54.958 42.7256 55.1926 43.2333 55.1926 43.7347V50.2972H54.381V43.7347C54.381 43.7347 53.9371 42.9575 53.5693 43.4589Z" fill="#A5BCD1"/>
<path d="M52.8128 21.0928H51.925C51.925 21.0928 50.2898 25.9701 48.8399 28.0567C47.3899 30.1434 45.6142 31.304 45.5695 33.397C45.5248 35.4837 46.0358 37.342 46.0358 37.342L44.9116 38.6358C44.9116 38.6358 45.7548 37.6654 52.8192 37.7098C59.8773 37.7542 60.0625 38.9403 60.0625 38.9403L58.2932 37.1073C58.2932 37.1073 59.4174 36.4096 59.1363 33.1623C58.8553 29.915 56.6133 29.4964 55.0676 26.4267C53.5154 23.3697 52.8128 21.0928 52.8128 21.0928Z" fill="#2E81A5"/>
<path d="M52.4869 3.78613L51.9458 18.9295H53.028L52.4869 3.78613Z" fill="#FFA400"/>
<path d="M86.4679 65.9818L35.7275 64.7854L34.6304 61.3848L90.364 62.4664L86.4679 65.9818Z" fill="#A5BCD1"/>
<path d="M30.3018 79.2631C30.3018 79.2631 30.2466 77.7701 29.7607 77.8863V89.2374H30.3018V79.2631Z" fill="#6A6783"/>
<path d="M59.5216 73.5534V68.5494C59.5216 68.5494 59.4631 65.374 62.5917 65.442C62.5917 65.442 65.3503 65.3555 65.4736 68.6112V73.5534H59.5216Z" fill="#6A6783"/>
<path d="M36.2541 109.248L35.7756 110.272L35.1719 118.983H42.2062V117.631H44.9117L45.1823 114.294H48.9644V112.015L52.4872 111.896L54.6516 108.708L36.2541 109.248Z" fill="#9997AC"/>
<path d="M75.8181 108.593V111.026L79.1681 111.399V113.744L84.2835 114.186V116.272L89.8231 116.828V117.713L45.5623 118.983L42.2061 118.927V117.505H45.0071L45.2504 114.376L48.9698 114.386C48.9698 114.386 48.9698 112.493 48.9698 111.953C49.2755 111.94 52.3121 111.829 52.3121 111.829V109.016L54.6889 108.96V107.999L64.9198 107.626L69.2429 108.612L75.8181 108.593Z" fill="#63607D"/>
<path d="M48.1865 116.981L45.4526 117.902L89.8231 116.33L84.2931 115.738L48.1865 116.981Z" fill="#9997AC"/>
<path d="M50.3228 114.657L51.6755 113.846L79.2718 113.305L83.8711 114.116L50.3228 114.657Z" fill="#9997AC"/>
<path d="M53.8395 111.141L75.4837 110.601L78.1892 111.141L52.7573 111.953L53.8395 111.141Z" fill="#9997AC"/>
<path d="M52.4868 108.9L53.5121 109.248L75.41 108.9L72.5076 108.437L68.3176 108.341L64.661 107.626L54.6512 107.896V108.9H52.4868Z" fill="#9997AC"/>
<ellipse cx="52.4871" cy="20.0107" rx="1.62331" ry="1.6225" fill="#FFA400"/>
<path d="M49.2403 40.0217C51.6211 38.94 56.3648 39.2105 58.439 39.4809V39.2105C57.3568 38.1288 54.3807 37.8584 53.028 37.8584C48.2663 37.8584 46.3544 38.94 45.9937 39.4809L46.2642 53.5426L49.2403 52.4609V40.0217Z" fill="#A5BCD1"/>
</svg>
