<svg width="130" height="130" viewBox="0 0 130 130" fill="none" xmlns="http://www.w3.org/2000/svg">
<path d="M129.873 0.00878906H0.00732422V129.968H129.873V0.00878906Z" fill="#97A3E4"/>
<path d="M129.856 17.6444L55.7266 35.5073C55.7266 35.5073 55.7266 20.5835 67.488 12.9002C76.1515 7.23669 82.9508 9.65241 86.8802 10.5382C86.8802 10.5382 89.7301 1.39871 92.7945 0.0566406H129.862V17.6444H129.856Z" fill="#E1DDFA" fill-opacity="0.6"/>
<path d="M7.59717 56.2119L78.8142 37.2716C78.8142 37.2716 70.4218 13.5137 48.1067 21.9944C48.1067 21.9944 37.4174 25.9203 34.8487 37.2716C34.8487 37.2716 13.5635 37.0321 7.59717 56.2119Z" fill="#EDE5D6"/>
<path d="M18.289 78.0679L55.5171 71.2721C55.5171 71.2721 49.0292 58.4657 38.3911 59.9223C27.7583 61.379 25.7941 68.1585 25.7941 68.1585C25.7941 68.1585 16.7306 57.5993 -0.00585938 59.4025V81.6147L18.289 78.0679Z" fill="#EDE5D6"/>
<path d="M30.0984 123.984C40.282 101.263 20.0338 86.3551 20.0338 86.3551C18.1237 70.3593 -0.00878906 67.5381 -0.00878906 67.5381V128.819L30.0984 123.984Z" fill="#3D6567"/>
<path d="M94.5037 68.9541V118.55L40.3281 125.227V74.4395L94.5037 68.9541Z" fill="#DE5327"/>
<path d="M61.2637 110.265V112.398L61.7561 113.606V120.066L69.9106 118.837V113.146L69.6887 112.106V110.054L61.2637 110.265Z" fill="#EDE5D6"/>
<path d="M62.7641 114.083L62.7378 118.552C63.8727 118.573 67.1862 118.061 68.7012 117.803V114.057L62.7641 114.083Z" fill="#6A6783"/>
<path d="M75.6517 62.4561L94.8031 65.7362L38.3911 71.8456L75.6517 62.4561Z" fill="#2E81A5"/>
<path d="M94.8339 65.7324L94.5039 68.9543L40.2688 74.4397L38.3911 71.8459L94.8339 65.7324Z" fill="#A5BCD1"/>
<path d="M94.5039 68.9539L120.986 81.8307L121.7 80.3362L94.7528 66.5117L94.5039 68.9539Z" fill="#A5BCD1"/>
<path d="M94.834 65.7324L122.652 80.0388L121.7 80.3366L93.0093 65.8487L94.834 65.7324Z" fill="#2E81A5"/>
<path d="M120.986 81.8309V115.512L94.5039 118.55V68.9541L120.986 81.8309Z" fill="#B33F36"/>
<path d="M57.714 72.6738V123.039L55.5117 123.358V73.0366L57.714 72.6738Z" fill="#EDE5D6"/>
<path d="M73.8555 71.0445V121.095L76.2039 120.808V70.8008L73.8555 71.0445Z" fill="#EDE5D6"/>
<path d="M41.9298 74.2773V125.032L40.3281 125.227V74.4398L41.9298 74.2773Z" fill="#EDE5D6"/>
<path d="M61.6697 91.6484L68.4444 91.3126H68.9855C68.9855 91.3126 68.1089 87.9824 64.846 87.9824C61.5777 87.9824 61.6697 91.6484 61.6697 91.6484Z" fill="#EDE5D6"/>
<path d="M68.547 106.269V91.2725L62.2485 91.6213V106.762L68.547 106.653V106.269Z" fill="#EDE5D6"/>
<path d="M64.0342 104.66V95.7634C64.0342 95.7634 64.0666 93.749 65.5006 93.749C66.9345 93.749 67.7408 94.6154 67.7408 95.9475V104.66H64.0342Z" fill="#6A6783"/>
<path d="M62.7192 92.5478L67.9247 92.3203L68.0329 93.1274L63.1197 93.3495L62.7192 92.5478Z" fill="#A5BCD1"/>
<path d="M67.9248 105.446H63.3904L63.1631 104.932H68.033L67.9248 105.446Z" fill="#A5BCD1"/>
<path d="M62.5027 75.0193L68.022 74.7539L68.4982 74.7323C68.4982 74.7323 67.7352 72.041 65.0784 72.041C62.4215 72.041 62.5027 75.0193 62.5027 75.0193Z" fill="#EDE5D6"/>
<path d="M68.1033 86.9214V74.7539L62.979 74.9976V87.1325L68.1033 86.9214Z" fill="#EDE5D6"/>
<path d="M64.4292 85.9139V78.3654C64.4292 78.3654 64.5915 76.833 65.7603 76.833C66.9291 76.833 67.4486 77.4287 67.4486 78.5171V85.8327L64.4292 85.9139Z" fill="#6A6783"/>
<path d="M63.3579 75.7442L67.5948 75.5654L67.6868 76.2208L63.6826 76.3996L63.3579 75.7442Z" fill="#A5BCD1"/>
<path d="M67.5945 86.2442L63.9042 86.3526L63.7202 85.9301L67.6865 85.8271L67.5945 86.2442Z" fill="#A5BCD1"/>
<path d="M48.4177 89.1416C45.1549 89.1416 45.2468 92.8075 45.2468 92.8075L52.0323 92.4772L52.6221 92.4502C52.6167 92.4502 51.6752 89.1416 48.4177 89.1416Z" fill="#EDE5D6"/>
<path d="M52.1247 107.428L52.1275 92.4072L45.8262 92.6236L45.8262 107.921L52.1247 107.807V107.428Z" fill="#EDE5D6"/>
<path d="M47.6118 105.819V96.9226C47.6118 96.9226 47.6443 94.9082 49.0782 94.9082C50.5121 94.9082 51.3184 95.7746 51.3184 97.1067V105.819H47.6118Z" fill="#6A6783"/>
<path d="M46.3052 93.6196L51.4967 93.4785L51.6103 94.2856L46.7056 94.4267L46.3052 93.6196Z" fill="#A5BCD1"/>
<path d="M51.4966 106.6H46.9621L46.7402 106.085H51.6102L51.4966 106.6Z" fill="#A5BCD1"/>
<path d="M80.3162 90.3487L87.2586 90.013L87.8592 89.9859C87.8592 89.9859 86.9014 86.6016 83.5628 86.6016C80.2242 86.6016 80.3162 90.3487 80.3162 90.3487Z" fill="#EDE5D6"/>
<path d="M87.3557 105.315V90.0127L80.9111 90.3213V105.819L87.3557 105.705V105.315Z" fill="#EDE5D6"/>
<path d="M82.7402 103.67V94.5616C82.7402 94.5616 82.7727 92.5039 84.2445 92.5039C85.7163 92.5039 86.5388 93.3865 86.5388 94.7565V103.675H82.7402V103.67Z" fill="#6A6783"/>
<path d="M81.3877 91.2636L86.7176 91.0361L86.8312 91.8595L81.8043 92.087L81.3877 91.2636Z" fill="#A5BCD1"/>
<path d="M86.7176 104.466H82.0749L81.8477 103.94H86.8313L86.7176 104.466Z" fill="#A5BCD1"/>
<path d="M46.1775 76.6814L51.6968 76.416L52.173 76.3944C52.173 76.3944 51.41 73.7031 48.7532 73.7031C46.0964 73.7031 46.1775 76.6814 46.1775 76.6814Z" fill="#EDE5D6"/>
<path d="M51.7781 88.5835V76.416L46.6484 76.6597V88.8001L51.7781 88.5835Z" fill="#EDE5D6"/>
<path d="M48.104 87.576V80.0276C48.104 80.0276 48.2663 78.4951 49.4351 78.4951C50.6039 78.4951 51.1234 79.0908 51.1234 80.1792V87.4948L48.104 87.576Z" fill="#6A6783"/>
<path d="M47.0327 77.4127L51.2696 77.2285L51.3562 77.8839L47.3574 78.0681L47.0327 77.4127Z" fill="#A5BCD1"/>
<path d="M51.2693 87.9118L47.5736 88.0147L47.395 87.5976L51.3559 87.4893L51.2693 87.9118Z" fill="#A5BCD1"/>
<path d="M81.0734 72.8696L86.9823 72.5827L87.4964 72.5556C87.4964 72.5556 86.6793 69.6748 83.8385 69.6748C80.9977 69.6748 81.0734 72.8696 81.0734 72.8696Z" fill="#EDE5D6"/>
<path d="M87.0693 85.5942V72.582L81.5825 72.8419V85.8271L87.0693 85.5942Z" fill="#EDE5D6"/>
<path d="M83.1353 84.5225V76.4488C83.1353 76.4488 83.3084 74.8135 84.5584 74.8135C85.8083 74.8135 86.3603 75.4524 86.3603 76.6113V84.4359L83.1353 84.5225Z" fill="#6A6783"/>
<path d="M92.0742 69.1978V118.794L94.5038 118.55V68.9541L92.0742 69.1978Z" fill="#EDE5D6"/>
<path d="M81.9883 73.6432L86.5227 73.4482L86.6202 74.1524L82.34 74.3474L81.9883 73.6432Z" fill="#A5BCD1"/>
<path d="M86.5228 84.8748L82.5727 84.9886L82.3779 84.539L86.6202 84.4307L86.5228 84.8748Z" fill="#A5BCD1"/>
<path d="M77.3506 117.093C77.4696 116.85 77.843 111.462 77.843 111.462C77.843 111.462 84.4986 110.866 89.8177 110.866C95.1368 110.866 100.986 111.505 100.986 111.505L101.165 114.077V116.243L77.3506 117.093Z" fill="#EDE5D6"/>
<path d="M77.7778 112.955L77.906 111.48C83.3644 109.3 95.5347 110.444 100.938 111.288L101.162 114.365L93.0255 115.712C92.9935 115.124 92.9294 113.891 92.9294 113.66C89.5211 112.557 81.4082 112.73 77.7778 112.955Z" fill="#A5BCD1"/>
<path d="M80.9111 106.6V109.134C80.9111 109.134 88.8762 107.748 97.9939 108.733V106.605C97.9939 106.605 95.3154 105.825 89.0602 105.825C82.7996 105.82 80.9111 106.6 80.9111 106.6Z" fill="#A5BCD1"/>
<path d="M45.8262 111.727H52.1247L49.1756 107.211L45.8262 111.727Z" fill="#EDE5D6"/>
<path d="M51.6102 120.094V111.728H46.0151V121.978L51.6102 120.879V120.094Z" fill="#EDE5D6"/>
<path d="M47.8604 120.586V117.088C47.8604 117.088 47.9794 115.388 49.6189 115.388C51.2585 115.388 51.6102 117.088 51.6102 117.088V120.093L47.8604 120.586Z" fill="#6A6783"/>
<path d="M51.3235 111.728H46.4644V112.107H51.3235V111.728Z" fill="#A5BCD1"/>
<path d="M46.4644 112.912L46.7216 113.54L51.2863 113.532L51.2153 112.912H46.4644Z" fill="#A5BCD1"/>
<path d="M46.7406 120.738V113.514L46.4644 112.864V120.776L46.7406 120.738Z" fill="#A5BCD1"/>
<path d="M61.2637 110.265C61.2637 110.265 62.7842 106.946 65.5979 106.085C65.5979 106.085 67.8165 106.404 69.7807 110.049L61.2637 110.265Z" fill="#EDE5D6"/>
<path d="M47.3247 114.835H51.3181C51.3181 114.835 50.712 113.85 49.1753 113.85C47.6385 113.85 47.3247 114.835 47.3247 114.835Z" fill="#A5BCD1"/>
<path d="M59.7704 110.054H60.7281L60.9987 111.527L60.7065 112.864V119.887L60.0139 120.066V112.864L59.6567 111.5L59.7704 110.054Z" fill="#EDE5D6"/>
<path d="M70.3111 110.049H70.982L71.3175 110.861L71.074 112.35V118.388L70.4463 118.567L70.3111 112.529L69.9106 111.013L70.3111 110.049Z" fill="#EDE5D6"/>
<path d="M71.4636 63.5122V56.9114C71.4636 56.9114 69.6239 55.6172 64.9758 55.6172C60.3277 55.6172 58.1416 56.9601 58.1416 56.9601V66.8749L71.4636 63.5122Z" fill="#DE5327"/>
<path d="M66.8394 55.6875V64.6439L71.3792 63.5013V56.895C71.3792 56.895 70.0589 55.9691 66.8394 55.6875Z" fill="#B33F36"/>
<path d="M60.5332 58.2864V66.2681L64.045 65.3801V57.8262C64.045 57.8262 61.9076 57.8966 60.5332 58.2864Z" fill="#EDE5D6"/>
<path d="M64.5267 39.248C64.3914 39.5188 63.1415 44.6576 60.5496 45.8651C57.9577 47.0727 55.5443 49.8885 55.9015 52.7043C56.2586 55.5201 58.1362 56.9496 58.1362 56.9496C58.1362 56.9496 60.0734 55.6175 65.5386 55.6175C65.5386 55.6175 69.191 55.4334 71.4637 56.9063C71.4637 56.9063 73.6876 56.159 73.6876 52.1682C73.6876 48.1015 68.3253 46.2496 67.0753 44.4194C65.8254 42.5837 65.1977 39.248 65.1977 39.248H64.5267Z" fill="#2E81A5"/>
<path d="M129.991 110.86C129.991 110.86 41.3633 119.946 0.065798 127.7L0.00195428 130.008L129.991 129.829V110.86Z" fill="#809E62"/>
<path d="M66.8208 58.0107L66.929 64.6224L70.0242 63.8698V59.0017C70.0242 58.5522 68.4658 58.0974 66.8208 58.0107Z" fill="#A5BCD1"/>
<path d="M61.8696 65.9276V60.6805C61.8696 60.6805 61.9129 59.6191 62.4216 59.6191C62.9302 59.6191 62.9735 60.6805 62.9735 60.6805V65.646L61.8696 65.9276Z" fill="#6A6783"/>
<path d="M67.9683 61.4437V60.1929C67.9683 60.1929 67.9358 59.6243 68.3849 59.6243C68.3849 59.6243 68.7745 59.5322 68.8341 60.534V64.1458L67.9683 64.3949V61.4437Z" fill="#6A6783"/>
<path d="M58.1362 59.6184C58.1362 59.6184 60.6632 58.3405 64.9055 58.3405C69.1477 58.3405 71.4637 59.456 71.4637 59.456V56.9055C71.4637 56.9055 69.4075 55.6113 64.9758 55.6113C64.9758 55.6113 59.9273 55.6763 58.1416 56.9542V59.6184H58.1362Z" fill="#EDE5D6"/>
<path d="M64.5268 39.2486L63.6772 38.669L64.5268 37.6182H65.0625L65.8471 38.6257L65.1978 39.2486H64.5268Z" fill="#FFA400"/>
<path d="M64.5426 26.4795L64.5264 37.6181H65.0621L64.5426 26.4795Z" fill="#FFA400"/>
<path d="M95.2019 69.2898V101.704L94.5039 100.886V68.9541L95.2019 69.2898Z" fill="#A5BCD1"/>
<path d="M101.966 72.582L102.502 113.974L103.979 113.85L103.34 73.2481L101.966 72.582Z" fill="#A5BCD1"/>
<path d="M107.371 42.0693C107.371 42.0693 106.387 46.4338 104.2 47.8742C104.2 47.8742 100.267 49.8398 100.267 54.1177C100.267 58.3955 102.409 59.6247 102.409 59.6247C102.409 59.6247 105.05 58.8124 109.2 58.8124C113.351 58.8124 113.978 59.0074 114.698 59.9279C114.698 59.9279 117.247 59.0182 117.155 55.2169C117.063 51.4156 108.935 47.7063 108.307 42.0693H107.371Z" fill="#2E81A5"/>
<path d="M108.328 42.0957H107.922C107.922 42.1174 107.927 42.1336 107.927 42.1553C107.954 44.3862 108.88 45.8591 110.222 47.5323C111.174 48.7182 112.132 50.0016 112.175 51.5882C112.261 54.4906 109.615 56.1909 107.094 56.7649C105.038 57.236 102.089 57.2522 100.395 55.7306C100.833 58.7197 102.424 59.6456 102.424 59.6456C102.424 59.6456 105.065 58.8334 109.215 58.8334C113.365 58.8334 113.993 59.0283 114.713 59.9489C114.713 59.9489 117.261 59.0392 117.169 55.2379C117.088 51.442 108.955 47.7327 108.328 42.0957Z" fill="#216A89"/>
<path d="M109.525 76.2539V113.146L110.943 112.973L110.407 76.6817L109.525 76.2539Z" fill="#A5BCD1"/>
<path d="M115.975 79.3945V112.415L117.29 112.274L116.841 79.8115L115.975 79.3945Z" fill="#A5BCD1"/>
<path d="M64.7969 39.248C64.7969 39.248 65.3056 44.8525 69.2665 47.5221C73.2274 50.1863 66.8044 52.4877 62.4269 52.9317C58.0493 53.3757 55.6089 51.4697 56.8751 49.0492C56.8751 49.0492 53.8503 52.7097 58.1413 56.955C58.1413 56.955 59.8404 55.6121 64.9755 55.6121C70.1106 55.6121 71.4634 56.9063 71.4634 56.9063C71.4634 56.9063 74.0877 55.6554 73.6873 52.1682C73.6873 52.1682 74.039 49.3199 69.9104 46.7424C69.9104 46.7424 65.8629 44.8363 65.1973 39.248H64.7969Z" fill="#216A89"/>
<path d="M58.6454 59.4023V66.7775L58.1362 66.8696V59.6189L58.6454 59.4023Z" fill="#EDE5D6"/>
<path d="M78.8174 63.0083V51.9618C78.8174 51.9618 79.8834 50.3535 85.96 50.3535H86.8366C86.8366 50.3535 86.961 52.2163 88.3896 53.1097V64.622L78.8174 63.0083Z" fill="#DE5327"/>
<path d="M81.8096 63.5124V53.8791C81.8096 53.8791 83.3517 53.5542 84.8289 53.4893V64.0322L81.8096 63.5124Z" fill="#EDE5D6"/>
<path d="M82.7783 58.1184C82.7783 58.1184 82.8216 57.4902 83.2924 57.4902C83.7631 57.4902 83.7848 58.1184 83.7848 58.1184V63.8799L82.7783 63.6796V58.1184Z" fill="#6A6783"/>
<path d="M78.8174 54.8322C78.8174 54.8322 79.7968 54.3557 81.5824 53.9604C83.2166 53.5976 85.5325 53.2997 88.3841 53.4893V53.1102C88.3841 53.1102 86.8312 51.8214 86.8312 50.354C86.8312 50.354 81.3335 50.0128 78.8174 51.9622V54.8322Z" fill="#EDE5D6"/>
<path d="M86.9336 53.4949V64.379L88.3838 64.6227V53.4895C88.3838 53.4895 87.2691 53.3866 86.9336 53.4949Z" fill="#A5BCD1"/>
<path d="M78.817 51.962C78.817 51.962 75.6299 50.6083 75.6299 46.3359C75.6299 42.0634 81.436 38.1538 81.436 38.1538C81.436 38.1538 85.3427 36.0528 85.4997 29.5223C85.4997 29.5223 84.4066 28.7426 85.7702 27.443L85.8839 14.0518L86.4195 27.5567C86.4195 27.5567 87.6316 28.4285 86.5332 29.5711C86.5332 29.5711 87.1338 34.8019 90.0612 37.6177C90.0612 37.6177 92.0471 39.318 93.2104 39.8541C93.2104 39.8541 91.625 41.8685 90.0828 42.7403C88.5407 43.6121 86.0191 46.5904 86.8308 50.3538C86.8308 50.3538 84.5636 50.2888 83.3569 50.4675C82.1502 50.6516 80.2834 50.8574 78.817 51.962Z" fill="#FFD47E"/>
<path d="M76.2632 43.7803C76.2632 43.7803 78.406 46.661 82.7781 46.152C87.1503 45.643 87.8483 44.9986 87.8483 44.9986C87.8483 44.9986 86.2466 46.7802 86.831 50.3541C86.831 50.3541 81.6202 50.0833 78.8172 51.9623C78.8172 51.9623 73.812 49.5797 76.2632 43.7803Z" fill="#FFA400"/>
<path d="M80.1319 54.2441L80.0678 63.2359L78.7705 63.0275L78.8025 54.8211L80.1319 54.2441Z" fill="#EDE5D6"/>
<path d="M102.593 53.1534V69.6745L94.8338 65.7324L88.3838 64.6223V53.1101C88.3838 53.1101 89.2766 51.4531 95.4885 51.4531C101.7 51.4531 102.593 53.1534 102.593 53.1534Z" fill="#DE5327"/>
<path d="M102.631 53.168C102.355 52.8377 101.148 51.7818 96.9116 51.5977V66.8462L102.631 69.7541V53.168Z" fill="#B33F36"/>
<path d="M98.1133 54.1113V66.36C98.1133 66.36 100.197 66.3654 100.792 66.5116V54.6474C100.792 54.6474 99.2171 54.2088 98.1133 54.1113Z" fill="#A5BCD1"/>
<path d="M91.1543 54.5452V65.164L94.8338 65.7326V53.7784C94.8338 53.7784 92.7073 54.1662 91.1543 54.5452Z" fill="#EDE5D6"/>
<path d="M99.0654 55.3898V65.7324H100.002V55.7472C100.002 55.7472 99.9691 54.87 99.5308 54.832C99.5308 54.832 99.0654 54.8212 99.0654 55.3898Z" fill="#6A6783"/>
<path d="M93.6708 55.6114C93.6708 55.6114 93.6383 54.7775 93.0431 54.8316C92.4479 54.8858 92.594 55.6114 92.594 55.6114V65.3421H93.6654V55.6114H93.6708Z" fill="#6A6783"/>
<path d="M102.593 55.4222C102.593 55.4222 100.137 53.9927 96.0837 53.9927C92.0308 53.9927 88.3838 55.3031 88.3838 55.3031V53.11C88.3838 53.11 89.2225 51.426 95.2017 51.4585C101.181 51.491 102.593 53.1588 102.593 53.1588V55.4222Z" fill="#EDE5D6"/>
<path d="M98.0823 54.1538C96.1357 52.0791 91.719 52.1279 89.7539 52.4117C96.3533 50.3844 101.063 51.7386 102.593 52.8274V55.401C100.852 54.5893 98.9264 54.1604 98.0823 54.1538Z" fill="#A5BCD1"/>
<path d="M95.2832 34.4068C95.2832 34.4068 94.6284 38.7279 92.3666 40.5474C92.3666 40.5474 87.0638 43.7368 86.5876 47.3432C86.1114 50.9495 86.8257 51.9351 88.3895 53.1101C88.3895 53.1101 89.7747 51.4531 95.4942 51.4531C101.214 51.4531 102.599 53.1534 102.599 53.1534C102.599 53.1534 104.579 51.7239 104.579 47.6681C104.579 43.6122 96.6251 43.0762 96.1814 34.4014H95.2832V34.4068Z" fill="#2E81A5"/>
<path d="M96.3054 34.4551H96.2892C96.2134 36.4315 96.7816 38.6192 96.8032 40.6715C97.0034 41.1263 97.2199 41.6137 97.366 42.1227C98.0424 44.5215 96.9656 46.7362 94.5955 47.5593C92.3174 48.3553 89.2385 48.155 87.2906 46.7038C87.1661 46.6821 87.0417 46.6604 86.9172 46.6388C86.9064 46.6388 86.901 46.6334 86.8901 46.6334C86.809 46.8825 86.7495 47.137 86.717 47.3969C86.2408 51.0033 86.9551 51.9888 88.5189 53.1638C88.5189 53.1638 89.9041 51.5068 95.6236 51.5068C101.343 51.5068 102.728 53.2071 102.728 53.2071C102.728 53.2071 104.709 51.7776 104.709 47.7218C104.709 43.666 96.7491 43.1299 96.3054 34.4551Z" fill="#216A89"/>
<path d="M114.703 59.9225V75.9508L102.593 69.6748V67.1461V59.6192C102.593 59.6192 104.66 58.7637 109.525 58.7637C114.389 58.7637 114.703 59.9225 114.703 59.9225Z" fill="#DE5327"/>
<path d="M110.727 58.8115V73.8868L114.747 75.9716V59.9433C114.747 59.9378 114.477 58.9794 110.727 58.8115Z" fill="#B33F36"/>
<path d="M94.834 65.7321C94.834 65.7321 100.451 65.5587 102.593 66.5121V67.3571C102.593 67.3571 100.7 66.3983 95.8783 66.2683L94.834 65.7321Z" fill="#EDE5D6"/>
<path d="M96.9056 65.7364C96.9056 65.7364 101.08 65.7857 102.594 66.5125V67.3575C102.594 67.3575 101.491 66.7893 96.8892 66.3286L96.9056 65.7364Z" fill="#A5BCD1"/>
<path d="M95.283 34.4063C95.283 34.4063 94.7148 34.0489 94.7148 33.3016C94.7148 32.5544 95.5157 31.8721 95.5157 31.8721H95.9919C95.9919 31.8721 96.6953 32.2295 96.7873 33.215C96.8793 34.2005 96.1758 34.4063 96.1758 34.4063H95.283Z" fill="#FFA400"/>
<path d="M107.821 39.5615C107.821 39.5615 106.717 40.8124 106.717 41.2889C106.717 41.7654 107.372 42.0632 107.372 42.0632H108.308C108.308 42.0632 108.946 41.7654 108.919 41.2564C108.892 40.7528 107.821 39.5615 107.821 39.5615Z" fill="#FFA400"/>
<path d="M96.7388 73.0371V85.8273L100.002 86.9103V74.4396L96.7388 73.0371Z" fill="#A5BCD1"/>
<path d="M98.3946 70.8005C98.3946 70.8005 96.7388 70.5569 96.7388 73.0315L100.002 74.434C100.002 74.4394 100.196 71.6399 98.3946 70.8005Z" fill="#A5BCD1"/>
<path d="M97.2744 75.8691C97.2744 75.8691 97.9887 75.8691 97.9887 78.1272V85.8273L97.2744 85.4807V75.8691Z" fill="#6A6783"/>
<path d="M105.115 77.0713V89.0005L108.097 90.0131V78.3763L105.115 77.0713Z" fill="#A5BCD1"/>
<path d="M106.63 74.9866C106.63 74.9866 105.121 74.7592 105.121 77.0714L108.102 78.3764C108.097 78.3764 108.275 75.7718 106.63 74.9866Z" fill="#A5BCD1"/>
<path d="M105.607 79.7139C105.607 79.7139 106.262 79.7139 106.262 81.8203V89.006L105.607 88.6811V79.7139Z" fill="#6A6783"/>
<path d="M111.716 80.1143V91.816L114.519 92.807V81.3976L111.716 80.1143Z" fill="#A5BCD1"/>
<path d="M113.134 78.0734C113.134 78.0734 111.716 77.8513 111.716 80.1148L114.519 81.3981C114.519 81.3981 114.682 78.8369 113.134 78.0734Z" fill="#A5BCD1"/>
<path d="M112.176 82.7031C112.176 82.7031 112.788 82.7031 112.788 84.7662V91.8111L112.176 91.4916V82.7031Z" fill="#6A6783"/>
<path d="M117.512 82.8271V94.1336L120.012 95.0921V84.0672L117.512 82.8271Z" fill="#A5BCD1"/>
<path d="M118.778 80.8513C118.778 80.8513 117.512 80.6401 117.512 82.8223L120.017 84.0623C120.012 84.0678 120.163 81.5931 118.778 80.8513Z" fill="#A5BCD1"/>
<path d="M117.923 85.3291C117.923 85.3291 118.469 85.3291 118.469 87.3272V94.1339L117.923 93.8252V85.3291Z" fill="#6A6783"/>
<path d="M96.9658 90.3489C96.9658 90.3489 97.1877 86.8238 98.8002 87.4032C100.407 87.9826 100.369 91.8543 100.369 91.8543L96.9658 90.3489Z" fill="#A5BCD1"/>
<path d="M97.1768 105.24V90.4404L100.294 91.8158V105.83L97.1768 105.24Z" fill="#A5BCD1"/>
<path d="M97.6313 93.3916C97.6313 93.3916 98.5837 93.4837 98.5837 95.0919V104.487L97.6638 104.297L97.6313 93.3916Z" fill="#6A6783"/>
<path d="M114.703 73.8984C114.703 73.8984 112.409 72.3655 108.15 72.5822L107.344 72.203C107.344 72.203 112.734 71.9917 114.703 73.4542V73.8984Z" fill="#97A3E4"/>
<path d="M102.593 63.1383C102.593 63.1383 104.585 62.0066 108.703 62.0066C112.82 62.0066 114.698 63.2574 114.698 63.2574V59.9218C114.698 59.9218 114.969 58.8118 108.713 58.8118C108.713 58.8118 104.779 58.7319 102.593 59.5387L102.593 63.1383Z" fill="white"/>
<path d="M110.943 72.3387V62.1152C110.943 62.1152 112.555 62.4022 113.113 62.5863V72.6961C113.113 72.7015 111.592 72.2412 110.943 72.3387Z" fill="#A5BCD1"/>
<path d="M107.593 62.0342V72.1927L107.339 72.2035L104.953 70.9039V62.3699C104.958 62.3645 106.36 62.0613 107.593 62.0342Z" fill="white"/>
<path d="M106.609 70.4432V63.4687C106.609 63.4687 106.598 62.6943 106.089 62.6943C105.581 62.6943 105.602 63.4687 105.602 63.4687V71.2717L106.598 71.7536L106.609 70.4432Z" fill="#6A6783"/>
<path d="M111.424 63.4367C111.424 63.4367 111.392 62.6895 111.873 62.6895C112.35 62.6895 112.263 63.4367 112.263 63.4367V72.5772L111.43 72.3985L111.424 63.4367Z" fill="#6A6783"/>
<path d="M95.5049 21.4111L95.5157 31.8729H95.9924L95.5049 21.4111Z" fill="#FFA400"/>
<path d="M107.583 39.8491L107.821 30.2158L108.199 40.0169L107.583 39.8491Z" fill="#FFA400"/>
<path d="M105.229 92.921C105.229 92.921 105.429 89.4554 106.873 90.024C108.318 90.5925 108.297 94.3614 108.297 94.3614L105.229 92.921Z" fill="#A5BCD1"/>
<path d="M105.418 107.547V93.0078L108.215 94.3616V108.126L105.418 107.547Z" fill="#A5BCD1"/>
<path d="M105.829 95.9102C105.829 95.9102 106.684 95.9968 106.684 97.578V106.81L105.856 106.626L105.829 95.9102Z" fill="#6A6783"/>
<path d="M112.274 95.6627C112.274 95.6627 112.447 92.2837 113.681 92.8415C114.915 93.3992 114.709 96.9983 114.709 96.9983L112.274 95.6627Z" fill="#A5BCD1"/>
<path d="M112.29 109.848V95.666L114.676 96.9819V110.416L112.29 109.848Z" fill="#A5BCD1"/>
<path d="M112.636 98.498C112.636 98.498 113.367 98.5847 113.367 100.128V109.133L112.663 108.954L112.636 98.498Z" fill="#6A6783"/>
<path d="M117.956 98.1408C117.956 98.1408 118.015 94.5182 119.135 95.076C120.255 95.6337 120.239 99.305 120.239 99.305L117.956 98.1408Z" fill="#A5BCD1"/>
<path d="M118.01 112.106V97.9238L120.18 99.2451V112.674L118.01 112.106Z" fill="#A5BCD1"/>
<path d="M118.323 100.756C118.323 100.756 118.989 100.842 118.989 102.386V111.391L118.35 111.212L118.323 100.756Z" fill="#6A6783"/>
<path d="M96.6094 129.888C96.6094 129.888 98.2991 111.751 109.698 109.931C109.698 109.931 112.791 91.3311 129.926 91.3311V129.888H96.6094Z" fill="#3D6567"/>
<path d="M88.7896 98.8506C88.7896 98.8506 80.5215 100.28 80.5215 106.762L80.9111 107.211L97.9938 106.941L98.3942 106.599L97.9938 106.345C97.9884 106.345 96.4733 99.208 88.7896 98.8506Z" fill="#2E81A5"/>
<path d="M88.7574 92.3203L88.4868 99.2082H89.2552L88.7574 92.3203Z" fill="#2E81A5"/>
<path d="M76.5444 111.727L80.9112 109.133C80.9112 109.133 85.213 108.375 90.2182 108.375C95.2234 108.375 97.9939 108.732 97.9939 108.732L102.328 111.548C102.328 111.548 93.5731 110.785 89.8178 110.86C86.0625 110.942 79.0011 111.369 76.5444 111.727Z" fill="#2E81A5"/>
<path d="M64.9273 55.5742C64.9273 55.5742 61.7146 55.6121 59.5068 56.3323C62.1637 56.7113 64.5257 57.3378 66.8362 58.4208C69.769 58.6862 71.4646 59.6355 71.4646 59.6355V56.8684C71.4592 56.8684 69.3643 55.5742 64.9273 55.5742Z" fill="#A5BCD1"/>
<path d="M86.549 50.3337C86.549 50.3337 81.91 50.1754 79.2295 51.7096C81.6374 52.1049 84.0279 52.5265 86.5007 53.1168C86.6631 53.1547 86.804 53.4272 86.9447 53.4814C87.4533 53.4868 87.827 53.4831 88.3789 53.521L88.4481 53.125C88.2008 53.1898 86.638 51.8482 86.549 50.3337Z" fill="#A5BCD1"/>
<path d="M108.646 58.6777C108.646 58.6777 105.39 58.7838 103.149 59.4119C105.682 59.596 107.543 59.8935 109.734 61.1227C110.053 61.3014 110.761 61.9049 110.961 62.1323C113.336 62.4734 114.69 63.2706 114.69 63.2706L114.691 59.8884C114.691 59.8938 114.901 58.6777 108.646 58.6777Z" fill="#A5BCD1"/>
<path d="M65.4827 111.9C67.5213 111.9 68.4162 113.345 68.714 114.074L62.6455 114.109C62.6718 113.368 63.4441 111.9 65.4827 111.9Z" fill="#A5BCD1"/>
</svg>
