<svg width="130" height="130" viewBox="0 0 130 130" fill="none" xmlns="http://www.w3.org/2000/svg">
<path d="M0 0.108398C0.216486 1.18993 0 129.892 0 129.892H129.892V0.108398H0Z" fill="#93A0E4"/>
<path d="M82.9143 121.888L76.9609 122.537C77.7186 119.581 79.234 113.625 79.234 113.452C79.234 113.279 79.7392 109.126 79.9917 107.071H85.5121L86.7028 115.075L82.9143 121.888Z" fill="#A5BCD1"/>
<path d="M105.589 70.0828V56.4556C105.589 56.4556 105.674 54.5088 107.189 53.6436V52.5621L105.024 51.9131V44.3424C105.024 44.3424 105.457 43.2609 106.107 43.2609V42.612L104.797 42.1123L99.8286 42.1794L98.0967 42.612V43.2609C98.0967 43.2609 99.1791 43.4772 99.1791 44.9913L99.3198 50.5504L104.158 60.5654L103.725 61.2143V66.4056L105.589 70.0828Z" fill="#A5BCD1"/>
<path d="M99.1572 44.6586C99.1572 44.6586 100.017 43.4775 100.692 43.4775C101.775 43.4776 101.775 44.9917 101.775 44.9917V52.2379L101.558 52.7787V53.2113H100.573L99.1572 50.2912V44.6586Z" fill="#EDE5D6"/>
<path d="M129.892 93.4443L95.5786 101.556V115.399L96.4446 119.942L129.892 115.832V93.4443Z" fill="#EDE5D5"/>
<path d="M16.9941 41.9633L130 20.0083C130 20.0083 130 16.7637 130 7.24624C130 4.86689 130 2.05493 130 0C115.387 0 77.2911 0.108153 73.3888 0.108153C69.7207 4.91653 69.4989 8.79817 69.4989 8.79817C69.4989 8.79817 59.9667 -2.92022 42.8642 5.40759C30.2041 11.5723 30.0916 24.5507 30.0916 24.5507C30.0916 24.5507 16.9941 30.4991 16.9941 41.9633Z" fill="#E1DDFA" fill-opacity="0.6"/>
<path d="M98.0944 48.0195L104.156 60.5653H95.4966L98.0944 48.0195Z" fill="#63607D"/>
<path d="M95.7127 61.2148V66.4062L93.5479 67.4877V62.2964L95.7127 61.2148Z" fill="#9997AC"/>
<path d="M98.0942 48.0195L93.522 61.3224L95.4963 60.5653L98.0942 48.0195Z" fill="#9997AC"/>
<path d="M89.6514 90.8486L116.279 91.0649L103.5 65.5L95.5001 66.5L89.6514 90.8486Z" fill="#63607D"/>
<path d="M86.0532 92.3628L89.6512 90.8486L116.279 91.0649L116.496 91.2812L111.3 92.1465L86.0532 92.3628Z" fill="#4E4B6F"/>
<path d="M87.7031 115.075L87.9196 92.125L99.8242 92.1466H111.621L95.4966 101.015V115.291L87.7031 115.075Z" fill="#A5BCD1"/>
<path d="M17.7778 130L129.918 115.724V130H17.7778Z" fill="#809E62"/>
<path d="M87.9196 92.1465L79.2601 95.8237V115.291L73.5103 122.862L77.7599 122.364L82.0744 116.373V112.696C82.0744 112.696 82.0744 108.369 83.3734 108.369C84.6723 108.369 84.8888 111.83 84.8888 112.479C84.8888 113.128 84.8888 115.724 84.8888 115.724L81.1024 121.938C81.1024 121.938 85.1875 121.393 85.3889 121.393C85.5382 120.915 87.7031 115.075 87.7031 115.075L87.9196 92.1465Z" fill="#EDE5D5"/>
<path d="M95.4966 101.015L129.918 92.7949V93.6601L95.4966 101.607V101.015Z" fill="#4E4B6F"/>
<path d="M129.918 87.6035L111.517 92.1459L95.4966 101.014L129.918 92.7949V87.6035Z" fill="#9997AC"/>
<path d="M95.4966 115.292L96.5747 119.968L85.3218 121.348L87.7031 115.075L95.4966 115.292Z" fill="#A5BCD1"/>
<path d="M79.2598 105.773L77.1773 106.206L42.4572 112.695L41.5912 111.397L0.0258789 119.617V130H18.3623L73.6052 122.862L79.2598 115.291V105.773Z" fill="#EDE5D5"/>
<path d="M40.4828 22.3881L42.2147 34.5012L43.5136 35.4746L41.9982 36.3398V38.0703L44.8125 39.9089C44.8125 39.9089 43.2971 40.5578 43.2971 42.5045V49.4263L45.6785 49.859V50.9405C45.6785 50.9405 43.5136 52.022 43.5136 55.4829V89.6593C43.5136 89.6593 45.462 85.9821 46.7609 84.2516V81.007L45.8949 80.5744V80.1418L46.5444 79.4929V75.3831L45.7867 73.7608L47.1939 72.2466L47.3021 69.9754C47.3021 69.9754 47.1939 67.3797 49.1422 66.5145C49.1422 66.5145 51.0906 66.9471 51.0906 70.1917V72.1385L52.606 73.6526L51.5236 75.1668V79.0603L55.8533 78.1951L54.9874 73.22L55.4203 73.0037V70.1917H56.5028C56.5028 70.1917 57.5852 64.5678 60.8325 62.1884V60.0253C60.8325 60.0253 61.049 58.0786 59.3171 57.8623L58.8841 57.2134C58.8841 57.2134 59.9665 56.3481 60.8325 56.1318L60.7242 47.9122L59.7501 47.4796V46.6144L61.6984 45.1002V42.9372H60.8325L61.3737 42.1801L62.0232 41.7475C62.0232 41.7475 63.1056 31.9055 63.2138 30.1751C63.2138 30.1751 64.4045 38.7192 64.9457 41.7475L65.8117 42.1801L66.2446 43.0453L65.1622 43.2616V45.1002L67.3271 46.6144V47.2633L66.2446 48.1285V56.0237L67.3271 56.24L67.9765 56.8889L68.626 56.9971L71.2238 55.9155L71.6568 48.7774L72.3063 55.9155C72.3063 55.9155 77.069 57.646 77.7184 58.2949V50.0753L77.5019 49.6426V48.3448C77.5019 48.3448 76.636 47.047 75.5536 47.047V45.9654C75.5536 45.9654 76.4195 45.1002 77.7184 45.1002V36.448C77.7184 36.448 77.7184 35.7991 76.8525 35.5827V34.7175L78.8008 33.2034L79.0173 30.6077H77.7184L78.3679 29.7425L79.2338 29.0936C79.2338 29.0936 79.3421 21.4147 80.641 18.819L80.7492 13.0869L81.074 18.819C81.074 18.819 82.8058 23.2533 82.8058 29.0936L83.9965 29.9588L84.4295 30.6077H82.9141L83.1306 33.2034L85.2954 34.7175V35.3664C85.2954 35.3664 83.9965 36.2317 83.9965 36.6643V45.1002C83.9965 45.1002 86.5944 45.1002 86.5944 45.9654V47.2633C86.5944 47.2633 84.646 47.4796 84.646 48.5611V49.6426L84.4295 50.2916V63.7025C84.4295 63.7025 86.8108 65.8656 87.2438 69.7591H88.5427V77.3298L89.2896 77.2995L82.2646 93.8772L77.2854 96.1485H79.2338V105.882L42.4312 112.588L41.5652 111.29L36.6943 112.252L36.8025 90.7408L37.452 89.6593V55.0503C37.452 55.0503 37.6685 51.8057 35.2871 51.3731V50.2916L37.6685 49.4263V42.0719C37.6685 42.0719 37.8849 40.3415 36.3695 40.1252L38.5344 37.7458V36.2317L37.452 35.4746L38.9674 34.3931L40.4828 22.3881Z" fill="#EDE5D6"/>
<path d="M83.5635 78.1943H88.9756L85.0789 87.6037L83.5635 87.9281V78.1943Z" fill="#A5BCD1"/>
<path d="M72.3064 72.2458C72.3064 72.2458 70.384 74.4089 70.6005 77.0045L88.5689 77.4372V69.8664C88.5689 69.8664 88.1099 70.1909 87.0535 73.111L85.538 72.2458C85.538 72.2458 85.1051 70.2991 84.4556 69.2175L77.9351 69.7583C77.9351 69.7583 77.3938 68.8931 76.8526 68.6768C76.8526 68.6768 74.6878 69.8664 74.4713 71.5969C74.4713 71.5969 73.3888 71.4887 72.3064 72.2458Z" fill="#A5BCD1"/>
<path d="M65.812 71.8134C65.812 71.8134 64.7295 71.8134 64.1147 72.5164C64.1017 72.5337 64.0887 72.5532 64.0801 72.5705C64.0801 72.5705 66.0285 74.301 65.812 76.8966H69.0593V75.8151C69.0593 75.8151 69.0593 74.301 70.5747 72.3542H69.2757C69.2757 72.3542 69.7044 71.0239 69.4922 70.083C69.4922 70.083 68.7345 69.2178 67.8686 68.7852C67.8686 68.7852 66.2449 69.6504 65.812 71.8134Z" fill="#A5BCD1"/>
<path d="M59.9666 69.8664C59.9666 69.8664 60.6421 70.0828 61.075 71.3806C61.508 72.6784 61.075 71.4952 61.075 71.4952L60.8585 76.3556L60.7416 77.6535L56.7042 78.1921L55.4204 70.1909C55.4204 70.1909 56.3946 70.948 57.3688 72.5703L58.2347 72.1377C58.2347 72.1377 58.7759 70.1909 59.9666 69.1094V69.8664Z" fill="#A5BCD1"/>
<path d="M82.2909 93.8769L77.0952 96.2563H79.2601V95.8237L87.9195 92.1465H86.6206L82.2909 93.8769Z" fill="#4E4B6F"/>
<path d="M52.6322 73.7607L51.1167 72.2465V70.2998C51.1167 67.0552 49.1684 66.4062 49.1684 66.4062C47.22 67.2715 47.22 70.0835 47.22 70.0835V72.2465L45.7046 73.7607H52.6322Z" fill="#2D81A5"/>
<path d="M69.0851 80.25C69.0851 80.25 59.3433 85.6577 59.3433 91.4979V109.637L69.0851 107.844C69.0851 107.844 69.0851 80.4771 69.0851 80.25Z" fill="#A5BCD1"/>
<path d="M87.8933 94.4177L79.2339 97.6623V95.8237L87.8933 92.1465V94.4177Z" fill="#A5BCD1"/>
<path d="M65.2706 87.9287C65.2706 87.9287 63.0234 88.9021 63.0234 92.7956V104.909H67.5696V92.7956C67.5696 92.7956 67.5696 89.2265 65.2706 87.9287Z" fill="#4E4B6F" fill-opacity="0.5"/>
<path d="M50.8741 89.875C50.8741 89.875 52.0647 90.6321 52.4977 93.8767L52.6319 110.805L49.311 111.447V94.3093C49.3132 94.3093 49.5751 90.8484 50.8741 89.875Z" fill="#4E4B6F" fill-opacity="0.5"/>
<path d="M52.6321 81.5479C52.6321 81.5479 53.7145 83.9272 53.7145 84.7924C53.7145 84.7924 48.0859 87.6044 48.0859 94.5262V111.671L44.9165 112.248V93.8773C44.9165 93.8773 44.8386 85.2251 52.6321 81.5479Z" fill="#A5BCD1"/>
<path d="M39.617 93.1201C39.617 93.1201 40.7254 93.5527 40.7254 97.3381V111.569L38.5605 111.831V97.2299C38.5605 97.2299 38.5605 94.6343 39.617 93.1201Z" fill="#4E4B6F" fill-opacity="0.5"/>
<path d="M35.3135 51.2534C35.3135 51.2534 39.6432 51.2621 39.8597 53.6414V90.6298L41.3751 89.5483L42.4575 90.6298L43.54 89.7646V54.5067C43.54 54.5067 44.1894 51.911 45.7048 51.0458L45.6788 49.7501L43.3235 49.4256V42.5038C43.3235 42.5038 43.514 40.5571 44.8129 39.9082L43.107 39.3652H39.8597V40.0142L36.3699 40.1245C36.3699 40.1245 37.3441 40.3408 37.6191 41.3098C37.6191 41.3098 40.0762 41.0957 40.0762 41.9609V49.7479L39.6432 50.3968V50.6132L35.3135 50.8468V51.2534Z" fill="#A5BCD1"/>
<path d="M38.7749 90.5238L39.8595 91.9298L41.3749 90.8483L43.1068 91.9298L43.9728 91.0646L45.2457 91.4972C45.2457 91.4972 45.6245 87.4804 49.452 83.6475L46.7611 83.8184C46.7611 83.8184 44.8127 85.4406 43.5138 89.6586L42.6479 90.4157L41.3749 89.5505L39.8574 90.632L38.7749 89.5505L37.909 90.632L37.476 89.5505L36.8027 90.7401L37.476 91.9298L38.7749 90.5238Z" fill="#2D81A5"/>
<path d="M56.5028 70.1917C56.5028 70.1917 57.3688 61.5395 68.6261 56.9971H75.1012C75.1012 56.9971 77.2855 57.8623 77.7185 58.2949L77.935 69.3265C77.935 69.3265 77.7185 68.8939 76.8526 68.245C76.8526 68.245 74.4712 69.5428 74.2547 71.2733C74.2547 71.2733 73.6053 71.057 72.3063 71.9222C72.3063 71.9222 71.0074 70.8407 70.358 70.8407C70.358 70.8407 69.1673 69.0021 67.8684 68.3531C67.8684 68.3531 65.8118 69.651 65.5953 71.3814C65.5953 71.3814 64.5128 71.4896 63.8634 72.1385C63.8634 72.1385 63.2139 71.4896 62.348 71.2733C62.348 71.2733 60.8326 69.5428 59.9666 69.1102C59.9666 69.1102 58.6677 70.408 58.2347 72.1385L57.3688 72.5711C57.3688 72.5711 56.2864 70.8407 55.4204 70.1917H56.5028Z" fill="#2D81A5"/>
<path d="M68.2192 70.083C68.2192 70.083 69.3017 70.9482 69.3017 72.4624H70.6006C70.6006 72.4624 69.0852 74.4091 69.0852 75.9233H67.3533C67.3533 75.9233 66.9203 73.1113 65.8379 72.6787L67.0001 71.4998C67.0001 71.4998 67.5001 70.9998 68.2192 70.083Z" fill="#4E4B6F" fill-opacity="0.5"/>
<path d="M76.4456 70.083C76.4456 70.083 75.3632 70.7319 75.3632 72.6787H74.2808C74.2808 72.6787 75.3632 74.1928 75.3632 75.707H77.3116C77.3116 75.707 77.3116 74.1928 77.961 73.3276V72.6787H77.3116C77.3116 72.6787 77.3116 70.9482 76.4456 70.083Z" fill="#4E4B6F" fill-opacity="0.5"/>
<path d="M61.0753 71.3809C61.0753 71.3809 60.6163 72.1379 60.6163 73.0032L59.3174 73.1113C59.3174 73.1113 60.7245 74.0847 60.8588 76.3559H61.7247C61.7247 76.3559 61.9152 73.9765 62.8894 73.0032L61.7247 72.895C61.7247 72.895 61.7247 72.0298 61.0753 71.3809Z" fill="#4E4B6F" fill-opacity="0.5"/>
<path d="M61.1572 77.5461C61.3737 77.5461 65.1622 77.5461 65.1622 77.5461L70.3839 78.3032L77.9609 76.7891V77.6543L69.085 80.25L61.1572 77.5461Z" fill="#2D81A5"/>
<path d="M61.3559 78.1943L62.0313 79.8166L56.1862 82.8449L53.4541 81.9797C53.4541 81.9797 59.4075 78.6269 61.3559 78.1943Z" fill="#A5BCD1"/>
<path d="M50.0342 79.3848C50.0342 79.3848 51.7769 80.7865 52.0951 81.8161L61.2806 77.583L55.8533 78.1951L50.0342 79.3848Z" fill="#2D81A5"/>
<path d="M45.7871 73.7607L47.4389 74.1934L48.7378 75.4912L48.9543 79.601L47.2224 80.2499L45.9235 80.6825L46.7894 81.1152L48.7378 81.5478V83.4945C48.7378 83.4945 49.1708 80.6825 50.0367 79.3847L51.5521 79.1684V75.2749L52.6346 73.7607H45.7871Z" fill="#A5BCD1"/>
<path d="M69.085 80.25L74.2806 82.6293L77.9609 81.1152V77.6543L69.085 80.25Z" fill="#A5BCD1"/>
<path d="M84.4556 69.218C84.4556 69.218 84.9708 70.2995 85.538 72.2462L87.0534 73.1115C87.0534 73.1115 88.2181 70.1913 88.6511 69.7587H87.3522C87.3522 69.7587 86.8369 65.6489 84.4556 63.7021V69.218Z" fill="#216A89"/>
<path d="M52.6323 81.5479C52.6323 81.5479 56.1459 82.4131 56.4468 82.6294C56.7477 82.8457 57.828 83.062 57.828 83.062L61.2918 81.5479L65.838 82.3914C65.838 82.3914 61.3914 85.874 60.0427 88.686H59.1269C59.1269 88.686 58.9104 86.0903 56.962 84.7924C56.962 84.7924 55.2302 86.5229 54.7972 89.3349H53.9312C53.9312 89.3349 54.5807 85.874 52.6323 81.5479Z" fill="#2D81A5"/>
<path d="M69.085 80.25L74.2806 82.6294L77.9609 81.1152L78.1774 87.6044L77.095 88.9022C77.095 88.9022 74.7136 82.6294 69.085 80.25Z" fill="#216A89"/>
<path d="M84.4556 81.1152V85.4414C84.4556 85.4414 85.6029 82.4131 87.7353 81.1152L84.6721 82.1968L84.4556 81.1152Z" fill="#216A89"/>
<path d="M61.2916 46.2891L61.5081 47.1543L59.7502 47.4787L60.7244 47.9114H60.8327L63.24 48.6684V56.2391L62.374 56.4554L62.807 56.6718V57.1044C62.807 57.1044 59.642 57.1044 58.8843 57.2125L59.3432 57.9696C59.3432 57.9696 62.374 58.1859 62.5905 59.7V60.4138C62.5905 60.4138 64.7554 58.4022 68.6521 57.1044L67.3532 56.2391L66.2708 56.0228V48.2358L67.3532 47.3706L67.3272 46.6135L66.4873 46.5054L63.5387 46.2891H61.2916Z" fill="#A5BCD1"/>
<path d="M84.4556 77.3291H88.6511H89.4088L87.8934 81.2226L84.4556 79.384V77.3291Z" fill="#216A89"/>
<path d="M63.6469 62.1884C63.6469 62.1884 67.7601 58.9438 72.0899 59.3764L73.6053 60.458H77.7618L77.7185 58.2949C77.7185 58.2949 76.4196 57.646 75.1207 56.9971H68.6261C68.6261 56.9971 58.7759 59.1601 56.5028 70.1917H55.4204C55.4204 70.1917 57.1523 71.4896 57.3688 72.5711L58.2347 72.1385C58.2347 72.1385 58.8842 69.7591 59.9666 69.1102L60.1831 66.2982L61.6985 65.6493C61.6985 65.6493 63.4304 65.6493 63.6469 65.433C63.8634 65.2167 65.3788 62.8373 65.3788 62.8373L63.6469 62.1884Z" fill="#216A89"/>
<path d="M40.4832 22.3877L38.9678 34.3927L37.4523 35.4742L38.5348 36.2313V37.7454L36.9111 39.4759L39.8597 39.3677H43.107L44.8129 39.9085L42.0245 38.0699V36.3394L43.514 35.4742L42.241 34.609L40.4832 22.3877Z" fill="#2D81A5"/>
<path d="M40.4829 22.3877L40.2923 34.3927L39.8594 35.0416L37.478 35.4742L38.5605 36.3394L40.0759 35.9068V38.2862L39.8594 39.3677H43.1067L44.8126 39.9085L42.0242 38.0699V36.3394L43.5137 35.4742L42.2147 34.3927L40.4829 22.3877Z" fill="#216A89"/>
<path d="M59.75 46.6143L61.2914 46.2899H63.4562L66.4871 46.5062L67.327 46.6143L65.1622 45.1002L65.1881 43.2616L66.2706 43.0453L65.8376 42.18L64.9716 41.7474L63.2398 30.2832L61.9408 41.7474L61.2914 42.18L60.8324 42.9371L61.6984 43.0453V44.992L59.75 46.6143Z" fill="#2D81A5"/>
<path d="M83.1306 33.2026L82.9401 30.607H84.646L83.9966 29.7417L82.8059 29.0928C82.8059 23.2526 81.2082 18.8183 81.2082 18.8183L80.7753 12.3291L80.5588 18.8183C79.2599 21.414 79.2339 29.0928 79.2339 29.0928L78.3939 29.7417L77.7185 30.607H79.0174L78.8009 33.2026L76.8525 34.7168C76.8525 34.7168 78.1774 34.3923 78.3939 34.3923C78.6104 34.3923 80.7753 34.3923 80.7753 34.3923H83.8061L85.2955 34.7168L83.1306 33.2026Z" fill="#2D81A5"/>
<path d="M41.3748 90.8486L39.8594 91.9302C39.8594 91.9302 41.3748 93.228 41.3748 95.8237V111.398H41.5913L42.4572 112.696L44.9165 112.263V94.9584C44.9165 94.9584 44.8905 92.2546 45.2456 91.4976L43.9726 91.0649L43.1067 91.9302L41.3748 90.8486Z" fill="#A5BCD1"/>
<path d="M56.871 86.1982C56.871 86.1982 58.1699 87.2798 58.1699 91.6059V109.884L55.8535 110.373V92.0385C55.8535 92.0385 55.8535 87.7124 56.871 86.1982Z" fill="#4E4B6F" fill-opacity="0.5"/>
<path d="M69.085 80.25C69.085 80.25 73.9905 85.874 73.9191 91.0653L73.5099 106.985L71.0333 107.505L69.085 107.937V80.25Z" fill="#A5BCD1"/>
<path d="M77.0952 88.9023L77.7447 88.4697L78.6106 89.5512L79.4766 88.2534L80.992 89.3349L82.7239 88.2534L84.2826 89.2116L84.9688 87.6045L84.2393 86.9556L83.5898 87.8208L82.5074 86.7393L81.2085 87.8208L80.126 86.7393L79.0436 87.8208L78.1776 87.2368V87.6045L77.0952 88.9023Z" fill="#2D81A5"/>
<path d="M75.5796 47.1548L76.8785 46.7222L80.5588 46.5059L84.8885 46.7222L86.6204 47.1548V47.3711C86.6204 47.3711 84.672 47.5874 84.672 48.8852V49.7505L84.4555 50.3994V87.1476L84.239 86.9551L83.5896 87.8203L82.4812 86.847L81.2602 87.7771V49.5341C81.2602 49.5341 79.1711 47.7994 76.833 47.6934C76.8352 47.6934 76.229 47.1548 75.5796 47.1548Z" fill="#A5BCD1"/>
<path d="M76.8784 35.5366L78.6103 35.0391H80.7752H83.806L85.2954 35.3657C85.2954 35.3657 84.0225 36.1985 84.0225 36.9166V45.2055H80.5587V37.2021C80.5587 37.2021 79.9092 35.2554 77.7444 35.9043L77.4543 35.9778L76.8784 35.5366Z" fill="#A5BCD1"/>
<rect x="77.9351" y="69.3262" width="3.24729" height="8.65224" fill="#EDE5D6"/>
<path d="M63.2398 30.2832V42.3963L61.1313 42.5045L60.8325 42.9371L61.508 43.0453L63.2398 43.2616V45.4246L66.1364 45.7491L65.1622 45.1002L65.1882 43.2616L66.2707 43.0453L65.8377 42.18L64.9717 41.7474L63.2398 30.2832Z" fill="#216A89"/>
<path d="M103.723 61.2148H95.7129V66.4062H103.723V61.2148Z" fill="#63607D"/>
<path d="M94.2235 61.0327L90.9502 62.2959L93.548 62.6139V62.2959L95.7129 61.2144H103.723V62.5165L106.321 60.998L94.2235 61.0327Z" fill="#4E4B6F"/>
<path d="M95.7127 62.6208L93.5479 63.8105V62.2964L95.7127 61.2148V62.6208Z" fill="#63607D"/>
<path d="M48.9518 61.4307L49.3848 67.0546H48.7354L48.9518 61.4307Z" fill="#2D81A5"/>
<path d="M48.391 66.9362C48.391 66.9362 49.8176 67.9204 49.8176 70.0835V71.8139L48.3022 72.0302L49.0599 73.7607H52.632L51.1166 72.2465C51.1166 72.2465 51.766 67.4878 49.1682 66.4062C49.1682 66.4062 48.6963 66.6009 48.391 66.9362Z" fill="#216A89"/>
<path d="M47.8436 75.707C47.8436 75.707 48.2766 75.9233 48.2766 77.2212V79.6005H47.4106V77.2212C47.4106 77.2212 47.4106 76.1396 47.8436 75.707Z" fill="#4E4B6F" fill-opacity="0.5"/>
<path d="M49.8177 75.707C49.8177 75.707 50.2507 76.2478 50.2507 77.113V79.3431L50.0342 79.3842L49.8805 79.6373L49.3848 79.6005V77.0049C49.3848 77.0049 49.3848 76.1396 49.8177 75.707Z" fill="#4E4B6F" fill-opacity="0.5"/>
<path d="M51.5497 75.7832C51.5497 75.7832 51.1167 76.3564 51.1167 77.0053V79.1835L51.5497 79.1684V75.7832Z" fill="#4E4B6F" fill-opacity="0.5"/>
<path d="M100.476 40.8817C100.259 41.098 98.0942 42.6121 98.0942 42.6121V42.8284L99.8261 42.1795H102.207C102.207 42.1795 104.805 41.9632 105.022 42.1795C105.238 42.3958 106.104 42.6121 106.104 42.6121L105.888 42.3958L104.156 41.098V38.5023L104.805 38.286L103.723 37.4208C103.723 37.4208 103.29 29.6338 102.207 27.4707H101.775C101.775 27.4707 100.692 32.4263 100.692 37.4208C100.692 37.6371 99.3932 38.5023 99.3932 38.5023L100.476 38.7186V40.8817Z" fill="#2D81A5"/>
<path d="M101.803 42.1514V42.7203C101.803 42.7203 100.017 42.7203 99.8004 42.7203C99.5839 42.7203 98.0967 43.261 98.0967 43.261V42.6121L99.8286 42.1795L101.803 42.1514Z" fill="#EDE5D6"/>
<path d="M101.774 27.4711C101.774 27.2548 101.991 20.7656 101.991 20.7656L102.207 27.4711H101.774Z" fill="#2D81A5"/>
<path d="M101.991 37.4208H103.073C103.073 37.4208 103.723 37.8534 103.506 37.8534C103.29 37.8534 101.558 37.8534 101.558 37.8534L99.3931 38.5023L100.475 38.7186L101.991 38.5023C101.991 38.5023 101.991 40.8817 101.991 41.098C101.991 41.3143 101.774 42.1795 101.774 42.1795H104.805L106.104 42.6121L104.156 41.098V38.5023L104.805 38.286L103.723 37.4208C103.723 37.4208 103.29 29.4175 102.207 27.4707H101.774C101.774 27.4707 101.991 29.6338 101.991 30.9316V37.4208Z" fill="#216A89"/>
<path d="M2.38135 80.6296L35.5037 73.9769C35.5037 73.9769 29.6586 61.6731 19.8085 63.4861C11.582 65.0002 9.30891 72.41 9.30891 72.41C9.30891 72.41 2.59783 74.1404 2.38135 80.6296Z" fill="#EDE5D5"/>
<path d="M72.5487 88.6855C72.5487 88.6855 74.2806 90.6323 74.2806 93.0117V106.816L71.1221 107.504V93.0117C71.1242 93.0117 71.2498 90.6323 72.5487 88.6855Z" fill="#4E4B6F" fill-opacity="0.5"/>
<path d="M95.4963 60.5654L94.1714 61.0327L106.104 60.998L104.156 60.5654H95.4963Z" fill="#9997AC"/>
<path d="M95.7132 66.4062L89.6515 90.8488L82.291 93.8771L93.5483 67.4878L95.7132 66.4062Z" fill="#9997AC"/>
<path d="M80.966 29.0929C80.966 26.0646 80.7496 20.9814 80.6413 18.8184H81.1825C82.3083 21.6736 82.8062 26.8577 82.9144 29.0929L83.9969 29.7418L84.6463 30.607H82.9144L83.1309 33.2027L85.2958 34.7169L83.8886 34.3924H78.4765L80.5331 33.2027L80.6413 30.607H77.7188L79.9919 29.9581H82.9144L82.265 29.0929H80.966Z" fill="#216A89"/>
</svg>
