<svg width="130" height="130" viewBox="0 0 130 130" fill="none" xmlns="http://www.w3.org/2000/svg">
<rect width="129.943" height="129.943" fill="#97A3E4"/>
<path d="M41.1886 87.9517L0 101.51V87.2474C0 87.2474 3.05593 74.5386 15.8418 77.5626C15.8418 77.5626 35.0279 69.2865 41.1886 87.9517Z" fill="#E1DDFA" fill-opacity="0.6"/>
<path d="M130 20.1776L12.2847 61.304C12.2847 61.304 13.1833 40.3552 29.3579 40.7408C29.3579 40.7408 33.8508 21.4628 58.4979 23.7762C58.4979 23.7762 59.5248 11.5668 71.4632 0H130V20.1776Z" fill="#EDE5D6"/>
<path d="M0 34.7646L39.7947 15.8722C39.7947 15.8722 27.7279 8.41803 17.0732 12.5307C17.0732 12.5307 11.4249 15.7437 8.85753 21.1415C8.85753 21.1415 6.03339 17.9285 0 17.2859V34.7646Z" fill="#EDE5D6"/>
<path d="M17.1398 120.294C17.1398 120.294 72.8022 117.081 100.145 120.294C100.145 120.294 108.634 115.413 129.943 113.999V129.933H0C0 129.933 4.55952 121.579 17.1398 120.294Z" fill="#809E62"/>
<path d="M49.236 122.029L49.6314 87.4576L48.8612 86.558V84.1161L48.4761 83.345L49.2463 82.8309C49.2463 82.8309 48.7328 78.8468 49.8881 75.3768C49.8881 75.3768 50.4016 74.4771 50.6584 73.1919H52.7123C52.7123 73.1919 52.1988 70.236 52.7123 68.3082C53.2258 66.3804 54.0812 64.8381 54.2095 64.3241L56.3354 64.3073L56.8201 63.6815C56.8201 63.6815 57.462 61.6251 58.1038 61.2396H60.0294L64.7791 57.127L100.979 60.597L100.851 61.2396L102.135 61.3681C102.135 61.3681 102.212 62.643 102.173 63.6121C102.173 63.6121 102.391 66.5089 102.135 68.1797L104.959 71.5212C104.959 71.5212 106.114 71.9067 106.884 74.7342C106.884 74.7342 107.398 75.2483 108.168 75.3768C108.168 75.3768 108.425 76.1479 107.655 76.5334L108.682 77.3046L108.168 78.0757V80.6461C108.168 80.6461 107.655 81.1602 107.655 81.4172V82.3168L107.526 82.8309V122.544L49.236 122.029Z" fill="#DE5427"/>
<path d="M64.7789 57.127L100.979 60.597L100.851 61.2396L102.135 61.3681C102.135 61.3681 102.212 62.643 102.173 63.6121C102.173 63.6121 102.391 66.5089 102.135 68.1797L104.959 71.5212C104.959 71.5212 106.114 71.9067 106.884 74.7342C106.884 74.7342 107.398 75.2482 108.168 75.3768C108.168 75.3768 108.425 76.1479 107.655 76.5334L108.681 77.3046L61.1846 73.9631L62.2115 71.9067C62.2115 71.9067 67.0896 66.5089 70.5556 65.7378C70.5556 65.7378 71.3258 60.7255 66.7045 59.4403C66.7045 59.4403 65.2924 59.4403 64.9073 58.1551L64.7789 57.127Z" fill="#B0362C"/>
<path d="M61.9551 79.6178V122.168L107.526 122.543V82.3167V81.2886L61.9551 78.2041V79.6178Z" fill="#B0362C"/>
<path d="M104.964 83.1748C104.964 83.4728 104.964 102.839 104.964 102.839H105.433L105.496 100.694L105.456 83.1748H104.964Z" fill="#983028"/>
<path d="M106.559 83.1748V97.5244L106.825 93.3391V83.1748H106.559Z" fill="#983028"/>
<path d="M69.272 85.2725L74.15 85.5295V100.566H69.272V85.2725Z" fill="#983028"/>
<path d="M132.47 61.6947C132.47 61.6947 120.119 68.0103 120.443 99.8471C120.443 99.8471 119.471 95.3238 116.066 95.3238C112.661 95.3238 106.825 103.327 107.149 118.81C107.473 134.293 116.066 137.773 116.066 137.773C116.066 137.773 121.695 139.891 123.803 131.192C123.803 131.192 125.793 134.293 131.144 137.077C136.494 139.861 139.136 133.279 139.136 133.279V63.2997C137.458 61.0004 135.35 60.3475 132.47 61.6947Z" fill="#3D6567"/>
<path d="M75.562 5.46191L75.9471 14.0727H75.562V5.46191Z" fill="#FFA400"/>
<path d="M75.4337 20.499H76.3323C76.3323 20.499 76.3323 25.7683 80.5685 30.3951C80.5685 30.3951 86.987 34.5077 82.6224 41.1907C82.6224 41.1907 81.5955 39.3914 76.8458 39.3914C76.8458 39.3914 74.7919 39.3914 73.2514 39.777C73.2514 39.777 72.2245 37.0781 70.2989 35.9214C70.2989 35.9214 69.5287 35.1503 69.272 33.8651C69.272 33.8651 70.4273 32.0658 72.2245 30.5236C74.0217 28.9813 75.5621 25.5113 75.4337 20.499Z" fill="#698A68"/>
<path d="M80.5685 30.3951C76.3323 25.7683 76.3323 20.499 76.3323 20.499H75.8496C75.8766 20.6995 75.8817 20.8949 75.8612 21.0799C75.7123 22.3497 75.6301 23.6285 75.6609 24.906C76.0871 25.8853 76.5287 26.8582 76.9831 27.8247C77.4633 28.8438 77.8907 29.9452 78.5018 30.904C80.0461 32.8421 80.0371 35.4086 78.3079 37.2953C76.7996 38.9403 73.8432 39.1138 72.1128 37.6976C72.8612 38.754 73.0765 39.8601 73.0765 39.8601C74.617 39.4745 76.6639 39.4615 76.6639 39.4615C81.4136 39.4615 82.6224 41.1907 82.6224 41.1907C86.987 34.5077 80.5685 30.3951 80.5685 30.3951Z" fill="#456A6D"/>
<path d="M82.6225 41.191V41.9621L81.3388 43.7614V58.5411L72.0962 57.8985V43.6329C72.0962 43.6329 73.3799 42.0906 73.2515 39.7773C73.2515 39.7773 80.3119 38.3635 82.6225 41.191Z" fill="#DF4F21"/>
<path d="M77.3594 58.4227V44.5322C77.3594 44.5322 80.5172 44.5322 81.3388 45.3076C81.3388 45.5646 81.3388 58.5409 81.3388 58.5409L77.3594 58.4227Z" fill="#B0362C"/>
<path d="M82.6225 41.9621C82.6225 41.9621 80.9537 40.4199 76.9743 40.4199C76.9743 40.4199 74.7111 40.3954 73.2104 40.8581C73.2104 40.8581 73.2515 40.1628 73.2515 39.7773C73.2515 39.7773 75.3529 39.4238 77.1912 39.4238C79.0282 39.4238 81.5956 39.7773 82.6225 41.191V41.9621Z" fill="#FFA400"/>
<path d="M91.2231 59.6976V49.5446C91.2231 49.5446 92.2501 48.7734 94.4324 48.7734C96.6147 48.7734 97.2565 49.8016 97.2565 49.8016V60.2117L91.2231 59.6976Z" fill="#DF4F21"/>
<path d="M94.6084 48.7754V59.9849L97.2567 60.2111V49.801C97.2567 49.801 96.6495 48.8281 94.6084 48.7754Z" fill="#B0362C"/>
<path d="M90.1963 47.488L91.2232 48.5161V49.5443C91.2232 49.5443 92.2502 48.7732 94.4325 48.7732C96.6148 48.7732 97.2566 49.8013 97.2566 49.8013V48.6447L98.1552 47.488C98.1552 47.488 97.7701 46.3506 94.2399 46.3506C90.7098 46.3506 90.1963 47.488 90.1963 47.488Z" fill="#456A6D"/>
<path d="M90.1963 46.5882C90.1963 46.5882 89.041 45.56 89.041 43.1182C89.041 40.6763 91.9935 39.3911 92.507 38.2344C93.0205 37.0777 94.1758 31.4229 94.1758 31.4229C94.1758 31.4229 94.8177 37.4633 96.7432 39.0055C98.6688 40.5478 99.439 41.7044 99.439 43.2467C99.439 44.7889 98.1553 46.5882 98.1553 46.5882C98.1553 46.5882 96.8716 45.6886 93.7907 45.6886C90.7098 45.6886 90.1963 46.5882 90.1963 46.5882Z" fill="#698A68"/>
<path d="M96.743 39.0057C95.3656 37.903 94.6455 34.5011 94.3464 32.6504C94.3951 34.1888 94.6429 35.7272 95.0408 37.2116C95.1564 37.6408 95.3258 38.0611 95.4799 38.4801C95.5299 38.5507 95.5826 38.6189 95.6326 38.6895C96.8714 40.4503 95.8829 42.9063 94.2526 43.9576C93.4362 44.4845 92.2103 44.6002 91.2886 44.3457C90.3207 44.0784 89.6429 43.4705 89.0716 42.6891C89.0511 42.8279 89.0396 42.9705 89.0396 43.117C89.0396 45.5589 90.1949 46.5871 90.1949 46.5871C90.1949 46.5871 90.7084 45.6874 93.7892 45.6874C96.8701 45.6874 98.1538 46.5871 98.1538 46.5871C98.1538 46.5871 99.4375 44.7878 99.4375 43.2456C99.4375 41.7033 98.6686 40.5479 96.743 39.0057Z" fill="#456A6D"/>
<path d="M98.1552 47.4885V46.5888C98.1552 46.5888 96.7432 45.6943 94.1758 45.6943C91.6084 45.6943 90.7098 46.2033 90.1963 46.5888V47.4885C90.1963 47.4885 91.3516 46.3318 94.1758 46.3318C94.1758 46.3318 97.2566 46.2033 98.1552 47.4885Z" fill="#FFA400"/>
<path d="M87.1605 58.9928V56.2026C87.1605 56.2026 86.4737 55.585 84.5481 55.585C82.6226 55.585 81.3389 56.2026 81.3389 56.2026V58.5409L87.1605 58.9928Z" fill="#DF4F21"/>
<path d="M88.1425 53.7854C88.1425 53.7854 89.4262 52.2432 89.4262 50.7009C89.4262 49.1587 88.0141 48.2591 86.4737 47.2309C84.9332 46.2027 84.2914 41.8331 84.163 39.9053C84.163 39.9053 83.5212 45.4316 82.6226 46.5883C81.724 47.745 81.3389 47.9622 81.3389 47.9622V53.7854C81.3389 53.7854 82.6226 53.1428 84.2914 53.1428C85.9602 53.1428 88.0141 54.0425 88.0141 54.0425L88.1425 53.7854Z" fill="#3D8F77"/>
<path d="M87.1181 56.2849V55.3274L88.0141 54.6848V54.0422C88.0141 54.0422 86.0885 53.1426 84.2914 53.1426C82.4942 53.1426 81.3389 53.7852 81.3389 53.7852V56.2271C81.3389 56.2271 83.3928 55.5845 84.5481 55.5845C85.7034 55.5845 87.1181 56.2849 87.1181 56.2849Z" fill="#3D8F77"/>
<path d="M84.5482 55.585C84.2273 55.585 83.9243 55.6081 83.6406 55.6454C84.0001 56.6607 84.2465 57.721 84.3877 58.8005L87.1606 58.9928V56.2026C87.1619 56.2026 86.4738 55.585 84.5482 55.585Z" fill="#B0362C"/>
<path d="M84.2913 53.1426C83.6199 53.1426 83.0384 53.2325 82.5737 53.3444C83.0089 54.0833 83.3658 54.8622 83.6495 55.6706C83.973 55.6192 84.2387 55.6706 84.5031 55.6706C85.6584 55.6706 87.118 56.2849 87.118 56.2849V55.3274L88.014 54.6848V54.0422C88.014 54.0422 86.0885 53.1426 84.2913 53.1426Z" fill="#456A6D"/>
<path d="M76.2655 20.4611C76.1516 20.3315 75.9238 15.1465 75.9238 15.1465H75.5821L75.4683 20.4611H76.2655Z" fill="#FFA400"/>
<path d="M75.9474 14.0732C75.9474 14.0732 76.525 14.2018 76.525 14.6516C76.525 15.1014 75.9474 15.2299 75.9474 15.2299H75.5623C75.5623 15.2299 74.9204 15.1014 74.9204 14.7158C74.9204 14.3303 75.5623 14.0732 75.5623 14.0732H75.9474Z" fill="#FFA400"/>
<path d="M71.1977 57.7693V46.5881C71.1977 46.5881 70.4275 45.6885 67.8601 45.6885C65.2927 45.6885 64.5225 46.5881 64.5225 46.5881V57.3838L64.7792 57.1267L71.1977 57.7693Z" fill="#DF4F21"/>
<path d="M68.7407 57.6421V45.6885C68.7407 45.6885 70.6842 45.9455 71.1977 46.5881V57.8812L68.7407 57.6421Z" fill="#B0362C"/>
<path d="M71.8392 44.7887V43.6321C71.8392 43.6321 71.1973 42.7324 67.603 42.7324C64.0086 42.7324 63.4951 43.8891 63.4951 43.8891V44.9173C63.4951 44.9173 64.9072 43.6321 67.7313 43.6321C70.5555 43.6321 71.8392 44.7887 71.8392 44.7887Z" fill="#FFA400"/>
<path d="M71.1973 46.5888L71.8392 44.7895C71.8392 44.7895 70.4271 43.6328 67.7313 43.6328C65.0356 43.6328 63.4951 44.918 63.4951 44.918L64.5221 46.5888C64.5221 46.5888 65.2923 45.6891 67.8597 45.6891C70.4271 45.6891 71.1973 46.5888 71.1973 46.5888Z" fill="#3D8F77"/>
<path d="M67.8599 27.9531C67.8599 27.9531 67.3464 34.2506 64.5223 36.564C61.6981 38.8773 61.5698 41.7047 63.4953 43.7611C63.4953 43.7611 64.7803 42.7329 68.1179 42.7329C71.4543 42.7329 71.8394 43.6325 71.8394 43.6325C71.8394 43.6325 73.3798 42.6044 73.3798 39.5199C73.3798 36.4354 68.7585 35.5358 68.3734 31.0376L67.8599 27.9531Z" fill="#698A68"/>
<path d="M68.3734 31.0376L67.86 27.9531C67.86 27.9531 67.8561 28.0058 67.8459 28.1035C67.8792 28.2783 67.8972 28.4569 67.8972 28.6356C67.8998 29.4992 67.919 30.3629 67.9819 31.2252C67.9999 31.463 68.0204 31.6995 68.0435 31.9372C68.0474 31.9797 68.0666 32.1326 68.0808 32.2521C68.0975 32.3614 68.1167 32.4834 68.1231 32.5207C68.1347 32.5914 68.2297 32.8883 68.2592 33.0554C68.2643 33.0785 68.2695 33.1003 68.2695 33.1209C68.3337 33.2494 68.3991 33.3767 68.4633 33.5052C68.7188 34.018 68.9588 34.5449 69.1552 35.0834C69.4787 35.9689 69.5865 37.1256 69.2977 38.0355C68.9036 39.2757 67.9036 40.345 66.5955 40.6072C65.4492 40.8372 64.3645 40.6278 63.3041 40.1805C62.9498 40.0314 62.634 39.8451 62.3516 39.6279C61.9485 41.0981 62.3709 42.5607 63.4954 43.7611C63.4954 43.7611 64.7804 42.7329 68.118 42.7329C71.4543 42.7329 71.8394 43.6325 71.8394 43.6325C71.8394 43.6325 73.3799 42.6044 73.3799 39.5199C73.3799 36.4354 68.7586 35.5358 68.3734 31.0376Z" fill="#456A6D"/>
<path d="M100.979 60.2118L64.5734 57L60.0296 61.24H58.2324C58.2324 61.24 60.5431 62.1396 60.5431 66.3808C60.5431 66.3808 59.7729 60.4689 64.1374 59.0551C64.1374 59.0551 64.7793 58.7981 64.9077 58.1555C64.9077 58.1555 65.2928 59.0551 66.063 59.3122C66.8332 59.5692 70.8127 60.2118 70.5559 65.4811L71.1978 64.71L71.7113 65.0956C71.7113 65.0956 71.3262 62.7822 72.995 60.7259C74.6638 58.6696 76.5893 59.1837 77.1028 58.7981C77.1028 58.7981 77.4943 58.41 77.6189 58.2827C77.6189 58.2827 78.0014 59.0551 78.6433 59.3122C79.2851 59.5692 83.9064 60.8544 84.0348 66.1237L84.5483 65.6097L84.805 65.9952C84.805 65.9952 85.0618 60.9829 89.8114 60.2118C89.8114 60.2118 90.71 60.2118 91.0951 59.8263C91.0951 59.8263 91.737 60.4689 92.5072 60.5974C93.2774 60.7259 97.3853 61.8826 97.5136 67.7945L98.4122 66.8949L98.669 67.1519C98.669 67.1519 97.7704 62.2681 101.365 61.7541C101.365 61.7541 101.878 61.7541 102.007 61.3685L100.851 61.24L100.979 60.2118Z" fill="#698A68"/>
<path d="M78.8998 60.2113C78.643 60.3399 76.0756 63.2958 76.0756 63.2958C76.0756 63.2958 74.5352 63.4243 74.5352 66.5088C74.5352 66.5088 72.738 65.7377 72.2245 65.3521C72.2245 65.3521 71.8394 59.8258 77.1026 59.6973C77.1026 59.6973 78.3863 59.8258 78.8998 59.9543V60.2113Z" fill="#983028"/>
<path d="M91.4798 60.8537L91.2231 60.5967L90.7096 60.8537C90.7096 60.8537 87.2436 60.8537 86.2167 64.0667C86.2167 64.0667 85.8315 65.3519 85.8315 66.8942L87.8855 67.7938C87.8855 67.7938 87.372 64.0667 91.2231 64.1952L92.8919 61.3678C92.8919 61.3678 92.25 60.9822 91.4798 60.8537Z" fill="#983028"/>
<path d="M79.5415 74.9912C79.5415 74.9912 79.5415 68.9508 85.0614 68.6938L85.5749 68.1797L85.8316 68.6938L84.6763 70.6216C84.6763 70.6216 81.4671 72.0353 81.5954 75.1198L79.5415 74.9912Z" fill="#983028"/>
<path d="M61.9548 79.6178L65.5492 79.8748V80.2604L76.7173 80.7744L77.1025 80.6459L80.3117 80.7744L80.5684 81.0315L91.4799 81.417L91.7366 81.2885L93.4054 81.417L93.6622 81.6741L104.574 82.1882L107.655 82.3167V81.417L107.911 80.903L108.168 80.6459V78.0755L108.681 77.3044L61.1846 73.9629L61.5697 75.1196L61.4413 76.9188L61.9548 78.0755V79.6178Z" fill="#456A6D"/>
<path d="M49.3747 87.4575L61.9549 79.6178V78.204L61.4414 76.9188L61.5698 75.1196L61.1847 73.9629L48.4761 83.3448L48.8612 84.116V86.5578L49.3747 87.4575Z" fill="#3D8F77"/>
<path d="M67.8599 99.2818V85.0161C67.8599 85.0161 67.8599 81.6746 71.4542 81.6746C71.4542 81.6746 71.9677 81.5461 72.0961 81.2891C72.0961 81.2891 72.6096 81.6746 72.6096 81.9317C72.6096 82.0602 72.6096 82.4457 72.6096 82.4457L72.0961 83.4739C72.0961 83.4739 69.2719 83.4739 69.2719 85.2732C69.2719 87.0725 69.2719 85.4017 69.2719 85.4017V99.2818H67.8599Z" fill="#983028"/>
<path d="M62.9785 80.7832V82.7901V104.699H63.51V80.7832H62.9785Z" fill="#983028"/>
<path d="M64.4139 80.7832H64.8391V104.699H64.3076L64.4139 80.7832Z" fill="#983028"/>
<path d="M66.1673 81.3145L65.9016 82.1437V104.699H65.3701V81.3145H66.1673Z" fill="#983028"/>
<path d="M60.0293 86.1725C60.0293 86.1725 60.286 83.7307 59.0023 83.9877C57.7186 84.2447 57.829 87.0722 57.829 87.0722L57.9999 103L60.0293 102.5V87.0722V86.1725Z" fill="#B0362C"/>
<path d="M55.3986 85.8613C55.3986 85.8613 54.5 85.9898 54.5 88.5602V103.5L56.2972 103V87.9176C56.2972 87.9176 56.4256 85.8613 55.3986 85.8613Z" fill="#B0362C"/>
<path d="M52.0588 87.5019C52.0588 87.5019 51 87.3602 51 89.5V104L52.9664 103.5V89.5C52.9664 89.5 53 87.5019 52.0588 87.5019Z" fill="#B0362C"/>
<path d="M65.4211 74.2613C65.4211 74.2613 65.036 67.7941 70.941 67.5371L70.0425 69.7219C70.0425 69.7219 66.9102 70.1422 66.9102 74.3654L65.4211 74.2613Z" fill="#983028"/>
<path d="M102.135 61.3682C102.135 61.3682 102.135 62.2678 102.135 62.9104C102.135 63.553 102.52 66.766 102.006 68.5653C102.006 68.5653 101.236 68.6938 101.236 68.5653C101.236 68.4368 101.584 63.4977 100.255 62.1123C100.255 62.1123 100.723 61.8822 101.364 61.7537C101.364 61.7537 101.878 61.7537 102.135 61.3682Z" fill="#983028"/>
<path d="M81.3387 45.2752C81.3387 45.2752 76.1872 43.5299 72.0884 45.4448L72.0961 43.4078C72.0961 43.4078 73.081 42.2065 73.2094 40.7902C73.2094 40.7902 79.1884 39.3287 82.6224 41.9619L81.3387 43.7612V45.2752Z" fill="#3D8F77"/>
<path d="M41.1591 53.2794L37.9139 63.7483L37.0512 63.81L36.4094 65.7378L36.4851 68.2414L34.8689 73.3205C34.8689 73.3205 33.7136 73.9631 33.842 76.0194V120.23H42.6995H46.4222H49.6315V101.723V87.4577L48.8613 86.6865V83.9876L48.4762 83.345L49.2567 82.768C49.2567 82.768 48.7329 78.5898 49.8882 75.3768L47.3208 67.5371V66.2519L46.8074 64.1956H46.0371L42.916 53.2794V52.3493L42.9563 50.8295C42.9563 50.8295 43.7265 49.4158 42.4428 48.6447L42.1142 44.9639L41.8009 48.6447C41.8009 48.6447 40.1321 49.5443 41.1591 50.8295L41.1887 52.3493L41.1591 53.2794Z" fill="#DE5427"/>
<path d="M41.8529 53.2793L41.8008 73.963C41.8008 73.963 43.0845 72.5493 44.7533 72.6778C46.4221 72.8063 47.3207 74.7341 47.3207 74.7341L42.9158 53.2793H41.8529Z" fill="#C83E32"/>
<path d="M35.896 74.0917L41.1592 53.2715L41.8531 53.2795L41.801 73.9632C41.801 73.9632 40.1322 72.4209 38.4634 72.4209C36.7946 72.4209 35.896 74.0917 35.896 74.0917Z" fill="#F35F2F"/>
<path d="M41.8008 73.9629V95.6802V111H47.3207V74.7341C47.3207 74.7341 46.6788 72.6777 44.7533 72.6777C44.7533 72.6777 42.9561 72.8063 41.8008 73.9629Z" fill="#B0362C"/>
<path d="M59.259 35.6641C59.259 35.6641 59.6441 41.9615 61.0562 43.5038C61.0562 43.5038 64.7789 45.9187 64.5222 48.2462C64.2655 50.5736 63.2385 51.729 63.2385 51.729C63.2385 51.729 62.0832 50.9579 59.3874 50.9579C56.6916 50.9579 55.9214 51.8576 55.9214 51.8576C55.9214 51.8576 55.6647 51.215 55.2796 50.7009C54.8944 50.1868 53.0973 47.2308 57.9753 43.3753C57.9753 43.3753 59.1307 41.576 59.259 35.6641Z" fill="#698A68"/>
<path d="M86.4737 47.2309C84.9332 46.2027 84.2914 41.8331 84.163 39.9053C84.163 39.9053 83.9153 42.0387 83.5122 43.9318C83.5212 45.7067 83.3068 47.5561 82.3761 49.0906C82.0796 49.579 81.7304 50.0121 81.3389 50.3963V53.7854C81.3389 53.7854 82.6226 53.1428 84.2914 53.1428C85.9602 53.1428 88.0141 54.0425 88.0141 54.0425L88.1425 53.7854C88.1425 53.7854 89.4262 52.2432 89.4262 50.7009C89.4262 49.1587 88.0141 48.2591 86.4737 47.2309Z" fill="#456A6D"/>
<path d="M61.0565 43.5038C59.6444 41.9615 59.2593 35.6641 59.2593 35.6641C59.2439 36.3992 59.2118 37.0701 59.1681 37.6818C59.3902 38.2807 59.4339 38.9323 59.2221 39.5235C59.1707 39.6662 59.1373 39.8204 59.0873 39.9631C59.0847 40.0466 59.0821 40.1288 59.0834 40.2124C59.0847 40.2921 59.1181 40.5388 59.1194 40.5902C59.1438 40.711 59.1669 40.8306 59.1951 40.9501C59.2567 41.2161 59.326 41.4809 59.3966 41.7443C59.7625 43.1144 60.1425 44.5204 60.0963 45.9521C60.0565 47.2206 59.1707 48.732 57.8087 48.9594C56.7201 49.1407 55.6829 49.1895 54.6572 49.0044C54.7445 49.8951 55.1258 50.494 55.2798 50.6996C55.6649 51.2137 55.9217 51.8563 55.9217 51.8563C55.9217 51.8563 56.6919 51.2224 59.3877 51.2224C62.0834 51.2224 63.2388 51.7278 63.2388 51.7278C63.2388 51.7278 64.2657 50.5711 64.5225 48.2449C64.7792 45.9187 61.0565 43.5038 61.0565 43.5038Z" fill="#456A6D"/>
<path d="M62.5841 58.9736V53.5282V52.6285C62.5841 52.6285 61.8267 51.8574 59.6445 51.8574C57.4622 51.8574 56.8203 52.5 56.8203 52.5V63.9383C56.8203 63.9383 57.2054 61.882 58.2324 61.2394H60.0296L62.5841 58.9736Z" fill="#DF4F21"/>
<path d="M63.2385 51.7294V52.7576L62.5966 53.5287V52.6291C62.5966 52.6291 61.6968 51.858 59.8354 51.858C57.9753 51.858 56.82 52.5006 56.82 52.5006V53.5287L56.0498 52.6291L55.8662 51.7294C55.8662 51.7294 57.1499 50.8876 60.2578 50.9866C60.2578 50.9866 61.9548 50.9583 63.2385 51.7294Z" fill="#FFA400"/>
<path d="M65.0059 137C65.0059 137 55.1362 133.464 55.1362 120.148C55.1362 106.833 59.5455 102 65.0059 102C70.4648 102 78.4446 112.606 75.505 124.744C72.564 136.883 65.0059 137 65.0059 137Z" fill="#3D6567"/>
<path d="M74.4759 140C74.4759 140 64.1362 136.464 64.1362 123.148C64.1362 109.833 68.7555 105 74.4759 105C80.1947 105 88.5545 115.607 85.475 127.745C82.3939 139.883 74.4759 140 74.4759 140Z" fill="#3D6567"/>
<path d="M107.4 132C107.4 132 98 128.666 98 116.111C98 103.557 102.199 99 107.4 99C112.599 99 120.198 109.001 117.399 120.445C114.598 131.889 107.4 132 107.4 132Z" fill="#3D6467"/>
<path d="M50.0059 140C50.0059 140 40.1362 136.869 40.1362 125.073C40.1362 113.277 44.5455 109 50.0059 109C55.4662 109 63.4445 118.393 60.505 129.145C57.5639 139.896 50.0059 140 50.0059 140Z" fill="#3D6567"/>
<path d="M36.7944 82.831V75.2483C36.7944 75.2483 37.1795 73.7061 38.5916 73.7061C38.5916 73.7061 39.6186 73.9631 40.0037 74.9913V76.9191C40.0037 76.9191 38.5916 76.2765 38.5916 78.7183V82.831H36.7944Z" fill="#983028"/>
<path d="M45.9085 75.2481C45.9085 75.2481 45.5234 73.9629 44.6248 73.9629C43.7262 73.9629 42.8276 74.3485 42.8276 75.7622V82.8308H44.1113V78.204C44.1113 78.204 44.3681 76.9188 45.5234 76.9188L45.9085 75.2481Z" fill="#983028"/>
<path d="M35.1257 76.0196C35.1257 76.0196 34.9973 74.7344 34.4838 74.7344C33.9704 74.7344 34.0987 76.2766 34.0987 76.2766V83.9878L34.9973 83.2167L35.1257 76.0196Z" fill="#983028"/>
<path d="M37.0513 63.8105L37.5647 65.7383H37.9499L38.2066 64.9672L37.9499 63.8105H37.0513Z" fill="#B0362C"/>
<path d="M71.1974 64.71L70.5556 65.7381C70.5556 65.7381 68.1166 66.2522 64.9073 65.9952C64.9073 65.9952 63.2385 67.1518 61.1846 67.1518H58.6172C58.6172 67.1518 58.6172 68.0515 58.8739 68.3085C58.8739 68.3085 60.286 69.5937 60.286 71.2645V73.1923L62.2115 71.9071L64.5222 72.9352C64.5222 72.9352 64.6506 67.2804 70.684 66.5092L71.3258 65.4811L71.9677 66.6378C71.9677 66.6378 77.7443 67.7944 78.2578 73.7063H78.6429C78.6429 73.7063 78.3862 68.437 84.6763 67.7944C90.9664 67.1518 84.8047 67.7944 84.8047 67.7944L85.5749 66.8948H82.2373C82.2373 66.8948 81.8522 67.1518 80.5685 67.1518L74.7918 66.6378C74.7918 66.6378 72.096 65.3526 71.1974 64.71Z" fill="#698A68"/>
<path d="M66.5765 59.826L66.063 61.4968C66.063 61.4968 62.8537 61.1112 62.597 64.3242C62.597 64.3242 62.4994 65.5632 62.9975 66.8715C62.9975 66.8715 61.5687 67.1517 60.606 67.1517C59.6432 67.1517 60.5431 67.2802 60.5431 67.2802C60.5431 67.2802 60.4969 65.0953 60.5842 63.9387C60.6714 62.782 61.3351 60.164 64.0193 59.0948C64.0193 59.0948 64.6509 59.0549 64.9077 58.1553C64.9077 58.1553 65.4083 59.0819 65.7998 59.1976L66.6663 59.488L66.5765 59.826Z" fill="#B0362C"/>
<path d="M58.2324 61.2393H61.4699C61.4699 61.2393 60.4391 62.9756 60.4905 65.321C60.5431 67.6652 60.4147 65.3519 60.4147 65.3519C60.4147 65.3519 60.5431 62.653 58.2324 61.2393Z" fill="#456A6D"/>
<path d="M93.1592 76.2125L94.828 76.3295C94.828 76.3295 94.1746 71.3918 98.7959 71.3918L100.08 69.721C100.081 69.7223 93.8126 68.0528 93.1592 76.2125Z" fill="#983028"/>
<path d="M31.3828 139.293C31.3828 139.293 12.2618 130.637 10.01 120.926C7.75833 111.215 29.3789 92.2513 46.8878 110.466C46.8878 110.466 60.4181 125.674 31.3828 139.293Z" fill="#3D6567"/>
<path d="M57.3338 70.3643H54.2529C54.2529 70.3643 54.3813 71.3924 54.638 71.6495C54.8948 71.9065 56.4352 72.9347 56.4352 74.991C56.4352 74.991 56.4352 71.778 57.3338 70.3643Z" fill="#456A6D"/>
<path d="M53.354 73.1924H50.6582C50.6582 73.1924 50.7866 73.835 51.3001 74.3491C51.8135 74.8631 52.7121 75.7628 52.7121 77.9476C52.7121 77.9476 52.7121 74.8631 53.4823 73.5779L53.354 73.1924Z" fill="#456A6D"/>
<path d="M59.9008 70.4934C59.9008 70.4934 59.259 68.8226 58.3604 69.2082C57.4618 69.5937 56.6248 73.8349 56.6582 77.3049L58.3976 76.021C58.3976 76.021 57.9753 70.7504 59.9008 70.4934Z" fill="#B0362C"/>
<path d="M56.0498 74.2198C56.0498 74.2198 55.4079 72.292 54.6377 72.292C53.8675 72.292 52.9676 75.6566 53.1601 79.8862L54.5915 78.8298C54.5915 78.8298 54.5093 73.1916 56.0498 74.2198Z" fill="#B0362C"/>
<path d="M52.1986 77.0478C52.1986 77.0478 51.6851 74.6059 50.7865 74.9915C49.8879 75.377 49.3475 78.8933 49.49 82.5973L50.6581 81.7349C50.6581 81.7336 50.6581 75.5056 52.1986 77.0478Z" fill="#B0362C"/>
<path d="M56.0498 68.9505C56.0498 68.9505 55.5363 65.2234 54.381 65.4805C53.2256 65.7375 52.8405 69.3361 52.9689 72.292L53.9959 71.6494L54.2526 70.3642C54.2526 70.3642 54.1242 68.4364 55.1512 67.0227C55.1512 67.0227 55.9214 67.6653 56.0498 68.9505Z" fill="#B0362C"/>
<path d="M58.2323 61.8818C58.2323 61.8818 56.6919 63.0385 56.6919 69.8501L57.9833 69.593C57.9833 69.593 58.2323 69.2075 58.4891 69.2075C58.7458 69.2075 58.2323 69.2075 58.2323 69.2075L58.6174 67.1511L59.3877 67.0226C59.3877 67.0226 59.3877 64.8378 60.0295 64.7093C60.0295 64.7093 59.6444 62.2674 58.2323 61.8818Z" fill="#B0362C"/>
<path d="M61.5376 75.5694L108.168 78.7734V78.204L108.681 77.3044L61.1846 73.9629L61.4413 75.1196L61.5376 75.5694Z" fill="#2B6B58"/>
<path d="M48.4761 83.2163L48.8612 83.9874L48.9254 84.8344L61.4414 75.6336L61.1847 73.9629L48.4761 83.2163Z" fill="#456A6D"/>
<path d="M42.916 53.2793L47.3209 74.7341C47.3209 74.7341 47.706 73.3204 48.8613 73.706L49.8036 75.1197L47.3209 67.3437L47.3006 66.1673L46.7691 64.1743L46.5355 64.8838L42.916 53.2793Z" fill="#B0362C"/>
<path d="M34.2666 73.9631C34.2666 73.9631 34.8687 73.1919 35.8956 74.0916L41.1884 53.1465L34.8687 73.1919L34.2666 73.9631Z" fill="#E4564B"/>
<path d="M45.395 76.9189V82.8309H44.1113V78.2041C44.1113 78.2041 44.1113 77.0475 45.395 76.9189Z" fill="#97A3E4"/>
<path d="M40.0039 76.9187V82.8306H38.5918V78.718C38.5918 78.718 38.2067 76.6617 40.0039 76.9187Z" fill="#97A3E4"/>
<path d="M75.2026 40.3918C75.2026 40.3918 77.3595 41.448 77.3595 42.9903V44.5698C77.3595 44.5698 80.4404 44.7938 81.339 45.3079V43.7614L82.6227 41.9621C82.6227 41.9621 80.6502 39.8603 75.2026 40.3918Z" fill="#456A6D"/>
<path d="M66.9025 43.8256C66.9025 43.8256 68.3376 44.9951 68.7407 45.7277C68.7407 45.7277 69.914 45.6891 71.1977 46.5888L71.8396 44.918C71.8396 44.918 71.3209 43.6328 66.8306 43.6328L66.9025 43.8256Z" fill="#456A6D"/>
<path d="M60.2861 61.1182L60.2861 51.8574C60.2861 51.8574 61.8266 52.1145 62.5968 52.6285L62.584 58.9736L60.2861 61.1182Z" fill="#B0362C"/>
<path d="M85.5752 66.8945L86.3454 67.7942C86.3454 67.7942 91.6086 69.2079 92.1221 75.1198H92.6355C92.6355 75.1198 92.8923 69.5934 96.615 69.3364C96.615 69.3364 98.9257 68.4368 99.3108 67.2801L98.4122 66.8945L97.5136 67.7942C97.5136 67.7942 96.8718 68.3082 93.9192 68.3082C90.9667 68.3082 88.0142 67.7942 88.0142 67.7942L85.5752 66.8945Z" fill="#3D8F77"/>
<path d="M105.472 75.6341C105.472 75.6341 104.317 70.4933 101.493 69.3366C101.493 69.3366 99.4389 68.1799 99.3105 67.2803L101.236 68.5655H102.006V68.1799L104.769 71.2965C104.769 71.2965 106.371 72.2925 106.884 74.7344L108.168 75.377C108.168 75.377 108.296 76.4052 107.526 76.5337H105.472V75.6341Z" fill="#456A6D"/>
<path d="M15.7727 108.602C22.6628 103.084 28.7188 102.667 30.8855 103.148C34.8939 104.057 42.7483 106.998 42.0982 111.489C41.4482 115.98 34.2439 117.531 30.723 117.744C30.5605 122.236 24.8729 124 20.1603 124C16.3902 124 13.931 120.044 13.1726 118.065C11.1684 117.21 8.88254 114.119 15.7727 108.602Z" fill="#809E62"/>
<path d="M42.9159 50.8882V52.3497H41.1886V50.8882C40.1616 49.603 41.7201 48.6294 41.7201 48.6294L42.212 44.9092L42.5406 48.59C43.8243 49.3611 42.9159 50.8882 42.9159 50.8882Z" fill="#FFA400"/>
<path d="M90.5251 140C90.5251 140 73.1362 133.433 73.1362 108.704C73.1362 83.9752 80.9057 75 90.5251 75C100.144 75 114.204 94.6976 109.024 117.239C103.844 139.78 90.5251 140 90.5251 140Z" fill="#3D6567"/>
<path d="M63.9361 109.982C67.7761 109.112 68.3094 105.168 68.0961 103.305C66.4321 101.69 63.5628 101.908 62.4962 102.218C57.3762 104.081 55.5096 109.102 55.1362 112C57.2162 108.584 59.1362 111.068 63.9361 109.982Z" fill="#809E62"/>
<path d="M75.9189 119.997C74.3599 115.547 72.9417 107.443 73.1582 104.106C73.1582 95.525 75.2694 77.092 88.0987 75.1851C99.0117 73.2782 101.307 86.5734 101.09 93.4593C102.13 114.816 85.2297 120.155 75.9189 119.997Z" fill="#809E62"/>
<path d="M54.2095 64.3069C54.2095 64.3069 56.4008 65.7032 56.4008 69.9444C56.4008 69.9444 56.6101 64.5422 56.8668 63.6426L56.2025 64.3069H54.2095Z" fill="#456A6D"/>
<path d="M83.1746 53.9437C86.1508 53.9437 87.6035 54.4751 87.9578 54.7409V53.9437C87.5149 53.678 86.2039 53.1465 84.5032 53.1465C82.8026 53.1465 81.6688 53.3236 81.3145 53.4122V54.2094C81.7396 54.1031 82.7317 53.988 83.1746 53.9437Z" fill="#FFA400"/>
<path d="M62.5801 54.3428C60.6668 53.5988 57.9741 54.0328 56.8669 54.3428L56.4683 52.6156C56.8669 52.3498 58.0892 51.8184 59.7899 51.8184C61.4906 51.8184 62.5358 52.4384 62.8459 52.7484L62.5801 54.3428Z" fill="#698A68"/>
<path d="M62.58 54.3428C61.7828 54.21 61.517 54.0771 60.3212 53.9442L58.0625 51.9512C58.4611 51.8184 59.524 51.8184 59.7898 51.8184C61.4905 51.8184 62.5357 52.4384 62.8457 52.7484L62.58 54.3428Z" fill="#456A6D"/>
</svg>
