<svg width="130" height="130" viewBox="0 0 130 130" fill="none" xmlns="http://www.w3.org/2000/svg">
<path d="M129.972 36.8438H0.0258789V129.972H129.972V36.8438Z" fill="#97A3E4"/>
<path d="M129.972 0.0263672H0.0263672V36.8444H129.972V0.0263672Z" fill="#93A0E4"/>
<path d="M81.7144 11.8854H111.8C111.8 11.8854 110.703 2.34855 102.868 1.56685C95.0336 0.785161 93.3384 5.88388 93.3384 5.88388C93.3384 5.88388 85.1332 5.53085 81.7144 11.8854Z" fill="#E1DDFA" fill-opacity="0.6"/>
<path d="M26.133 13.3264H68.3427C68.3427 13.3264 67.5998 7.10736 61.4713 8.17146C61.4713 8.17146 58.1284 2.4093 52.1689 2.4093C45.8713 2.4093 43.8848 5.93285 43.293 7.10736C43.293 7.10736 38.7565 -1.11426 34.2199 -1.11426L0.185547 -1.11426V13.3715C0.185547 13.3715 26.133 12.9545 26.133 13.3264Z" fill="#EDE6D6"/>
<path d="M71 27H144C144 27 141.993 14.2928 133.651 15.3649C133.651 15.3649 130 3.01638 118.5 3.01638C105.5 2.48342 103.822 15.1338 103.822 15.1338C103.822 15.1338 100.578 11.5278 95.7084 11.5278C90.5 11.5278 88.5 13.5 87.1828 18.3207C87.1828 18.3207 73.5 14 71 27Z" fill="#EDE6D6"/>
<path d="M0 12.1376C0 12.1376 5.77079 11.1896 14.6674 14.2706C24.7374 17.7569 35.5865 18.2997 44.4831 24.6988C44.4831 24.6988 57.4674 24.6988 68.2876 31.0978C68.2876 31.0978 98.8247 35.1269 101.71 36.0749C104.596 37.0229 106.76 38.2079 107 39.393L0 42" fill="#3D6467"/>
<path d="M111.23 36.0295C111.23 36.0295 113.726 30.6047 124.231 34.2735C124.231 34.2735 137 36.6082 137 38.9429H111.301C111.3 38.9429 110.674 36.7849 111.23 36.0295Z" fill="#3D6467"/>
<path d="M0.0258789 80.1592L5.87344 82.9747L13.237 90.3383L28.614 94.6698C28.614 94.6698 30.7797 99.4345 30.7797 99.6511C30.7797 99.8676 29.0471 103.116 29.0471 103.116C29.0471 103.116 35.1113 105.499 35.3278 105.932C35.5444 106.365 37.4936 111.13 37.4936 111.13L48.539 113.512L60.8839 129.972H0.0258789V80.1592Z" fill="#EDE5D5"/>
<path d="M37.7002 113.843L38.4431 111.243H41.9716L46.6145 115.143L49.4002 130H17.6431L20.2431 122.757L23.2145 119.415L34.5431 119.972L39.1859 118.857L37.7002 113.843Z" fill="#A7BDD1"/>
<path d="M98.8001 83.4396L95.7567 72.7998C95.7567 72.7998 94.0176 79.7958 95.0321 84.3141L98.8001 83.4396Z" fill="#EDE6D6"/>
<path d="M98.0571 78L98.6209 83.5714L100.657 83.0469C100.657 83.0469 99.2887 79.0705 98.0571 78Z" fill="#EDE6D6"/>
<path d="M47.8893 19.085L48.3224 22.117L49.6219 29.0475L50.2716 29.6972H49.1887V32.9458H51.1379C51.1379 32.9458 50.7047 34.2453 50.7047 34.895H52.2208C52.2208 34.895 52.2208 33.1624 51.7876 32.9458H53.0871V29.9138H51.7876L53.0871 29.0475L53.9534 20.3844L55.686 29.0475L56.5523 29.9138H55.4694V32.9458H57.4186C57.4186 32.9458 56.7689 34.0287 56.7689 34.895H61.1004C61.1004 34.895 60.6673 33.1624 60.0175 32.9458H61.5336V29.4806L60.2753 29.6301L61.5336 28.1812L62.833 19.5181L64.5656 28.3977L65.6485 29.4806H64.3491V32.9458H66.0817C66.0817 32.9458 65.2154 34.0287 65.2154 35.1116H67.1646V29.4806H66.2982L67.1646 27.9646L68.2474 20.1678L69.7635 28.1812L70.6298 29.4806H69.5469V32.7293L70.6298 32.5127V38.5638L69.98 39.2266V41.6089H70.6298L69.7635 43.1249L70.6298 43.9912V49.6222L69.5469 51.788V69.7638C69.5469 69.7638 74.5281 69.5473 75.3944 70.8467V74.7451C75.3944 74.7451 77.5602 75.6114 76.2608 76.6943L74.3116 77.7772V78.4269C74.3116 78.4269 73.0121 79.2932 71.9292 79.2932L69.7635 82.3253V92.9375C69.7635 92.9375 77.1271 93.3707 77.1271 95.3198V100.301L77.5602 100.951V103.766L76.6181 105.928L61.9667 107.448L12.3707 85.1408L2.40822 81.2424L0.0258789 80.1595V72.3628H3.05795L3.4911 72.7959V75.828L4.35741 74.7451V71.2799L3.27452 71.0633L4.57398 69.5473L5.44029 60.451L6.95632 69.5473L8.0392 70.8467L7.1729 71.2799V74.9617L7.82263 74.7451L17.5686 71.9296V68.681H16.4857L17.7851 67.3815L18.6514 59.1516L19.9509 67.3815L21.4669 68.681H19.9509V71.2799L22.7664 70.4136L25.5819 71.2799L25.3653 71.713V75.5074L30.3466 73.2291V61.9671H29.4803V58.0687L28.614 57.2024L34.8947 56.3361C34.8947 56.3361 35.3278 55.6864 35.9776 55.4698V55.0366H37.277V55.4698C37.277 55.4698 37.9267 55.6864 38.1433 55.9029H48.3224C48.3224 55.9029 47.8893 52.0046 46.8064 50.7051V42.0421L46.5898 39.8763L45.9401 39.4431V35.5448L45.2903 34.4619H45.9401C45.9401 34.4619 45.5069 33.379 44.8572 33.1624H46.5898V29.6972H45.5069L46.5898 28.8309L47.8893 19.085Z" fill="#EDE5D5"/>
<path d="M37.7103 75.6109L34.6783 76.6938L39.443 76.9103V77.3435L41.8253 76.6938L41.3922 77.3435L39.0098 77.9932V82.9745L35.5446 79.7258V77.7766L34.2451 76.9103V75.1777H37.9269L37.7103 75.6109Z" fill="#A7BDD1"/>
<path d="M103.333 129.971C103.333 129.971 106.016 124.681 104.5 121C104.5 121 98.5001 119 96.0001 122C96.0001 122 92.7208 115.461 85.1406 115.244C85.1406 115.244 86.8732 110.263 84.4909 107.447C84.4909 107.447 84.9241 100.734 81.0257 100.734C77.1273 100.734 77.777 106.581 77.777 106.581C77.777 106.581 76.6942 105.715 75.6113 105.715C75.6113 105.715 76.6942 97.7015 72.146 97.0518C67.5979 96.4021 66.2985 100.734 66.2985 100.734C66.2985 100.734 62.5001 91.9995 55.2531 97.0518C55.2531 97.0518 54.4653 92.9327 51.0001 92.4995C47.5349 92.0664 45.9403 94.6695 45.9403 94.6695C45.9403 94.6695 43.9911 91.4208 39.8762 91.2042C39.8762 91.2042 41.8254 85.1401 38.1436 80.8086C34.4618 76.477 28.6142 79.2925 28.6142 79.2925C28.6142 79.2925 27.0982 74.5278 21.034 74.3113C14.9699 74.0947 13.2373 79.2925 13.2373 79.2925C13.2373 79.2925 6.65551 77.7527 2.47559 81.337L5.87367 82.9743L13.2373 90.3379L28.6142 94.6695L30.78 99.6507L29.0473 103.116L35.3281 105.931L37.4938 111.129L40.0039 111.671C40.0039 111.671 39.443 115.244 42.0419 115.244C42.0419 115.244 39.2264 118.709 44.4243 121.308C44.4243 121.308 38.7933 122.391 37.0607 124.124C37.0607 124.124 33.812 116.111 28.181 116.76C22.5501 117.41 25.149 125.64 26.4484 126.939C26.4484 126.939 21.3264 126.939 18.9051 129.971H103.333Z" fill="#809E62"/>
<path d="M64 130H47.0161H37C39.7871 126.924 46.871 127.579 50.0645 128.291C50.3548 127.01 51.9806 124.361 56.1613 124.02C60.3419 123.678 63.129 127.864 64 130Z" fill="#3D6467" fill-opacity="0.6"/>
<path d="M46.4998 97.5C46.4998 99.5 44.8332 100.667 43.9998 101C43.5998 103.8 46.1665 104.5 47.4998 104.5C50.2998 106.1 51.6665 108.833 51.9998 110C51.5998 103.6 55.8332 101.667 57.9998 101.5C56.3998 98.7 58.9998 96.3333 60.4998 95.5C57.6998 95.5 55.9998 96.5 55.4998 97C55.4998 100.2 53.1665 101.333 51.9998 101.5C49.1998 101.5 47.1665 98.8333 46.4998 97.5Z" fill="#3D6467" fill-opacity="0.6"/>
<path d="M69.6406 109.581C69.6406 109.581 70.9401 108.498 72.6727 110.664C72.6727 110.664 72.4561 107.632 73.9721 107.415C73.9721 107.415 75.7048 104.816 74.8385 103.733C74.8385 103.733 72.6727 100.268 69.424 101.784C69.424 101.784 71.3732 105.683 69.424 106.765C69.424 106.765 67.6914 108.498 69.6406 109.581Z" fill="#3D6467" fill-opacity="0.6"/>
<path d="M63.6994 116.327C63.6994 116.327 65.2154 112.862 63.6994 111.563C62.1834 110.263 62.1834 110.263 62.1834 110.263C62.1834 110.263 62.6165 108.747 61.9668 107.448C61.9668 107.448 66.7315 106.798 67.8144 110.263C67.8144 110.263 66.2983 110.696 66.7315 112.429C67.1646 114.162 69.9801 114.378 70.8464 112.862C70.8464 112.862 72.1459 113.728 71.9293 115.894C71.7127 118.06 68.4641 117.843 68.4641 117.843C68.4641 117.843 68.0309 115.244 63.6994 116.327Z" fill="#3D6467" fill-opacity="0.6"/>
<path d="M71.9294 122.825C71.9294 122.825 74.7449 121.742 75.8278 122.825C76.9107 123.908 74.5283 127.157 74.5283 127.157L76.261 127.806C76.261 127.806 77.1273 126.074 79.5096 126.507C81.8919 126.94 83.2261 128.889 83.317 129.972H70.1557C70.1557 129.972 72.146 126.074 69.7637 124.991C69.7637 124.991 72.146 125.207 71.9294 122.825Z" fill="#3D6467" fill-opacity="0.6"/>
<path d="M32.6858 95.4567C30.4572 96.3482 29.0334 95.3329 28.6001 94.7139L30.8287 99.7282L29.1572 103.071L35.2858 105.857L37.5144 111.242L39.9287 111.614C39.483 114.288 41.1049 115.204 41.9715 115.328C40.3372 118.151 43.0239 120.466 44.5715 121.271C42.7887 119.934 43.8287 117.619 44.5715 116.628C45.3144 115.204 46.0201 112.32 42.9001 112.171C39.7801 112.022 39.1239 110.252 39.1858 109.385C42.1572 110.277 43.3953 108.766 43.643 107.9C43.9401 105.077 41.043 104.866 39.5572 105.114C38.6658 104.52 38.9382 103.133 39.1858 102.514C32.9458 101.92 32.2525 97.5615 32.6858 95.4567Z" fill="#3D6467" fill-opacity="0.6"/>
<path d="M6.68582 79.4861C6.4382 80.2909 6.46296 82.1233 8.54296 83.0147C8.35725 83.8814 8.43153 85.7633 10.2144 86.3576C11.5763 86.6671 14.4858 86.5061 15.2287 83.3861C15.5382 84.3147 16.7887 86.3204 19.3144 86.9147C20.1191 85.7385 22.6572 83.9804 26.3715 86.3576C27.362 85.429 29.1944 82.7547 28.6001 79.4861C29.2191 80.7242 30.2715 83.9433 29.5287 86.9147C30.7049 86.9766 33.0572 87.7318 33.0572 90.2575C33.0572 93.1657 38.0997 93.3951 39.4756 91.6713C39.5519 91.5529 39.6232 91.4369 39.6891 91.3242L39.743 91.1861C39.7273 91.2331 39.7093 91.2791 39.6891 91.3242C39.6338 91.4474 39.5619 91.5632 39.4756 91.6713C37.782 94.2996 33.5759 98.1267 28.6001 94.7147L13.0001 90.2575L5.94295 83.0147L2.6001 81.3433C3.34296 80.6623 5.20011 79.3376 6.68582 79.4861Z" fill="#3D6467" fill-opacity="0.6"/>
<path d="M16.2691 96.1856C16.2691 96.1856 19.0846 102.25 21.0338 102.683C22.983 103.116 27.5311 102.683 27.5311 102.683V104.199L19.9509 105.065L17.5686 111.563H13.4536L14.7531 103.766L8.68896 95.3193L16.2691 96.1856Z" fill="#A7BDD1"/>
<path d="M35.328 105.932L27.9644 107.448C27.9644 107.448 32.5125 111.563 32.9456 111.563C33.3788 111.563 37.4937 111.129 37.4937 111.129L35.328 105.932Z" fill="#A7BDD1"/>
<path d="M4.79056 110.913L6.09002 118.71L2.40822 123.475L0.0258789 118.461V129.972H15.5544L9.55524 124.991L13.8868 122.175C13.8868 122.175 11.9376 118.06 13.237 117.627C14.5365 117.194 16.9188 115.678 16.9188 115.678V112.863H12.1542L11.9376 107.881L8.47236 107.448L8.68894 112.43L4.79056 110.913Z" fill="#A7BDD1"/>
<path d="M3.34816 82.0303L3.27453 87.7392L0.0258789 88.6099V92.5212L3.27453 90.7713L6.3066 92.5039L5.87344 82.9745L3.34816 82.0303Z" fill="#A7BDD1"/>
<path d="M56.336 56.3359H54.1702L46.1114 57.3127L46.1569 58.5017H45.5072V56.769H43.9911L42.6917 57.2022V58.7182H42.2585V56.769H40.5259L39.6596 57.2022H39.2264L39.0099 56.769H38.5767L38.7933 56.3359L38.1436 55.9027H48.3226C48.1061 52.6541 46.8066 50.7049 46.8066 50.7049V42.0418L46.59 39.8761L45.9403 39.4429V35.5445L45.2906 34.4617H46.8066V34.2451L46.59 33.1622V29.697H45.5072L46.59 28.8307L47.8895 18.8682V28.6141L46.3735 29.2638L47.0232 29.697H49.189V30.9575C47.2398 31.5682 47.4563 33.1622 47.4563 33.1622H48.7558L47.8895 34.6782H49.4055V35.328H50.705V37.9269H52.8707V35.328H55.6862V37.9269H58.0686V35.328H61.3172L61.1007 34.8948C60.6675 33.3788 60.0178 32.9456 60.0178 32.9456H61.5338V29.7511L60.2343 29.697L61.5338 28.181L62.8333 19.5179L62.1835 28.6141L61.5338 29.4804L64.3493 29.2638V29.9915C63.2664 30.0717 62.8333 31.4296 62.8333 31.4296V32.9456H64.3493C63.0498 33.1622 63.0498 35.5445 63.0498 35.5445V38.5766L61.967 39.0098H63.5001L63.2664 39.8761V40.959V47.8894C62.8333 48.106 62.4001 48.7557 62.4001 48.7557L57.6354 49.622L64.999 50V50.2717L64.5659 50.7049C64.5659 50.7049 63.483 54.8199 63.2664 55.0364C63.0498 55.253 56.5525 59.5845 56.336 59.8011V58.9348L56.1194 58.5017V57.4188C56.1194 57.4188 56.5525 57.2022 56.5525 56.9856C56.5525 56.769 56.336 56.3359 56.336 56.3359Z" fill="#A7BDD1"/>
<path d="M69.5469 30.8384C69.5469 30.7799 68.2474 32.0794 68.2474 32.0794V34.0286L67.1646 34.4141V29.4805H69.5469V30.8384Z" fill="#A7BDD1"/>
<path d="M53.0871 29.9141H55.4694V30.8388C55.4694 30.8388 54.3865 31.8633 53.9534 32.513V34.4622C53.9534 34.4622 53.7368 32.9461 51.7876 32.9461H53.0871V29.9141Z" fill="#A7BDD1"/>
<path d="M53.6285 35.3277C53.6285 35.3277 52.8705 33.3785 51.7876 32.9453C51.7876 32.9453 52.2207 33.595 52.2207 34.8945L52.8705 36.3932V35.3277H53.6285Z" fill="#A7BDD1"/>
<path d="M69.3305 65.4323C69.3305 65.4323 69.5471 62.8334 68.4642 61.3174C68.4642 61.3174 67.5979 62.8334 67.3813 65.6489V73.2291L69.114 73.0125V65.8655L69.3305 65.4323Z" fill="#A7BDD1"/>
<path d="M74.3119 77.7773C74.3119 77.7773 70.4135 78.4271 66.5151 78.4271L63.4831 78.8602H59.8013V85.7907L61.5339 84.2746C61.5339 84.2746 63.2665 87.3067 63.6996 89.4725C63.6996 89.4725 67.3814 85.834 69.7638 85.4875V82.3255L71.9296 79.2934C71.9296 79.2934 73.6622 79.0768 74.3119 78.4271V77.7773Z" fill="#A7BDD1"/>
<path d="M69.98 93.3701V97.0519C69.98 97.0519 72.1436 96.4737 73.7701 97.7363C73.7701 97.7363 77.127 96.4022 76.0441 95.1027C74.9612 93.8033 69.98 93.3701 69.98 93.3701Z" fill="#A7BDD1"/>
<path d="M48.9724 57.419L46.1569 57.3086V58.5019H44.6409V57.2025H42.6917V58.7185H40.9591V57.6356H39.2265V59.1517H37.7105V56.5527H35.5447V59.1517H34.895V57.419H32.7292V59.1517H31.6463V58.0688L31.2132 57.2025H28.6143L29.4806 58.0688V61.9671H30.3469V73.2291C30.3469 73.2291 28.9348 73.92 28.8828 73.8983C28.8308 73.8789 30.3469 73.8789 30.3469 73.8789L30.78 74.312L32.0795 73.4457L32.5126 73.8789L31.8629 74.5286L32.5126 75.3949H34.0287V74.9617H37.927V69.5473L39.2265 68.8976L39.6597 68.4644H33.8121L35.1115 67.8147H36.6276V65.6489L35.7613 65.4324L36.6276 64.9992V59.8014H37.927V64.9992L38.7933 65.4324L37.927 65.8655V67.8147H39.6597L40.0928 68.2479L39.2265 69.1142V74.7452H40.526V72.3628H39.6597L40.7425 71.0634L42.042 60.8843L43.558 71.0634L44.4243 72.3628H43.1249V73.2291H43.3415H43.558V74.5286L48.7559 73.2291L48.5393 62.8335L48.5002 62.5004H48.5393V62.1837V58.5019L48.9724 57.419Z" fill="#A7BDD1"/>
<path d="M68.2475 20.168V28.3979L66.8181 29.4808H66.2983L67.1647 27.9647L68.2475 20.168Z" fill="#A7BDD1"/>
<path d="M42.0419 76.0441L40.5259 75.3944V72.3623H43.1898V73.2286H43.5579C43.5579 73.2286 42.0419 74.5281 42.0419 75.6109V76.0441Z" fill="#A7BDD1"/>
<path d="M19.9511 69.5361C19.9511 69.5361 18.4351 69.9801 18.4351 71.4962V74.5824L17.5645 74.8682V68.6807H19.9511V69.5361Z" fill="#A7BDD1"/>
<path d="M18.6516 59.1514L18.435 67.5978L16.4858 68.6807L17.7853 67.3813L18.6516 59.1514Z" fill="#A7BDD1"/>
<path d="M5.93615 63.4156C5.87551 63.4849 6.74181 63.4849 6.74181 63.4849L9.12415 61.1025L10.4236 62.1854L10.6402 66.7335V69.1159L11.0733 70.1988L11.5693 73.6661L7.17496 74.9634V71.2816L8.04127 70.8485L6.95839 69.549L5.93615 63.4156Z" fill="#A7BDD1"/>
<path d="M5.00714 65.2158C5.00714 65.2158 4.79056 69.3308 4.57398 69.5473C4.35741 69.7639 3.27452 71.0634 3.27452 71.0634L4.35741 71.28V74.9618L3.4911 75.8281V72.796L3.05795 72.3628H1.36865L2.40822 70.6302V69.5473L3.01463 68.3324L2.6248 66.5153L5.00714 65.2158Z" fill="#A7BDD1"/>
<path d="M105.114 86.914C93.9716 86.4683 87.3478 83.8807 85.4287 82.6426C91.3716 85.4654 100.657 85.5521 104.557 85.614C120.9 85.0569 126.472 92.114 126.843 95.4569C125.729 92.114 119.043 87.4711 105.114 86.914Z" fill="#EDE6D6"/>
</svg>
