<svg width="130" height="130" viewBox="0 0 130 130" fill="none" xmlns="http://www.w3.org/2000/svg">
<path d="M130.848 -1H-0.934082V131H130.848V-1Z" fill="#97A3E4"/>
<path d="M12.1385 31H79C79 31 72.4333 18.087 61.4887 18.087C61.4887 18.087 52.335 4 32.2368 4C12.1385 4 0.79597 19.0652 0 31H12.1385Z" fill="#EDE6D7"/>
<path d="M130.823 111.926H-1V130.934H130.823V111.926Z" fill="#809E62"/>
<path d="M20.0638 111.926L7.04102 113.246L48.1697 117.206L87.0574 119.318L97.8668 117.602L115.927 116.546L130.822 114.962V111.926H20.0638Z" fill="#6A6783"/>
<path d="M98.7896 114.962V73.1183C98.7896 73.1183 99.7123 72.9863 99.7123 72.0623C99.7123 71.1383 98.1305 71.0063 98.1305 71.0063C98.1305 71.0063 96.4168 66.5183 94.4394 65.5943C94.4394 65.5943 93.5167 60.8423 90.2211 60.8423C90.2211 60.8423 89.0347 58.4663 86.3982 57.8063C86.3982 57.8063 84.1573 52.6583 80.9935 52.6583L73.4796 54.6383C73.4796 54.6383 71.8978 52.5263 71.3705 52.2623V33.7823C71.3705 33.7823 69.2613 29.8223 60.2974 29.8223C51.3334 29.8223 49.2243 33.6503 49.2243 33.6503V54.3743L43.2922 52.3943C43.2922 52.3943 37.8875 51.9983 35.1192 60.4463L29.0554 59.9183C29.0554 59.9183 25.4962 60.1823 23.7825 64.9343L21.5415 65.7263V66.2543L22.0688 66.6503L22.7279 67.5743V113.378L38.6784 114.302L42.1058 113.906H44.6105V114.698L48.1697 114.962H50.0152L51.0698 114.698L61.8792 115.358L61.2201 115.622L61.3519 116.018H63.5929H65.4384C65.4384 116.018 74.666 116.678 78.6207 116.414C78.6207 116.414 79.5435 116.414 80.2026 116.018C80.2026 116.018 90.0893 116.942 94.7031 115.754C94.7031 115.754 95.0985 115.358 95.2304 115.094C95.2304 115.094 96.8122 115.226 98.7896 114.962Z" fill="#EDE5D5"/>
<path d="M64.6831 34.1341V30.1514C68.2049 30.7203 70.6 32.6643 71.3574 33.5652V52.341L64.6831 53.9057V34.1341Z" fill="#A5BCD1"/>
<path d="M28.3306 60.075C28.3306 60.075 30.1755 59.4526 33.357 62.822L34.5355 62.3164C34.5355 62.3164 35.4134 60.446 35.1194 60.446C34.9876 60.446 29.0556 59.918 29.0556 59.918C29.0556 59.918 28.5283 59.9681 28.3306 60.075Z" fill="#6A6783"/>
<path d="M51.4653 52.9217V40.1177C51.4653 40.1177 51.4653 38.1377 52.6517 38.1377C53.8381 38.1377 53.8381 39.4577 53.8381 39.4577V52.3937L51.4653 52.9217Z" fill="#6A6783"/>
<path d="M59.3748 51.6022V38.7982C59.3748 38.7982 59.2429 36.9502 60.5612 36.9502C61.8794 36.9502 61.8794 39.4582 61.8794 39.4582V51.6022H59.3748Z" fill="#6A6783"/>
<path d="M67.6797 51.6019V39.8539C67.6797 39.8539 67.6797 38.1379 68.7343 38.5339C68.7343 38.5339 69.2616 38.6659 69.2616 40.2499V51.6019C69.2616 51.6019 68.0752 51.4699 67.6797 51.6019Z" fill="#6A6783"/>
<path d="M52.9155 55.2976L43.2925 52.3936C43.2925 52.3936 47.4098 53.0649 49.9144 58.7409L52.0445 57.1763C52.0445 57.1763 52.4706 55.8961 52.9155 55.2976Z" fill="#6A6783"/>
<path d="M33.2739 62.8213L35.4298 63.0079C35.4298 63.0079 37.3604 53.1853 43.2924 53.1853C43.2924 53.1853 45.5122 53.3355 47.3565 55.0888C47.3565 55.0888 45.3702 52.4821 43.0981 52.3398C43.0981 52.3398 37.6241 52.3933 35.1194 60.4453L34.5777 62.1545L33.2739 62.8213Z" fill="#A5BCD1"/>
<path d="M37.7013 64.7238C37.7013 64.7238 38.6241 55.8798 43.897 55.8798C43.897 55.8798 45.2152 55.7478 46.2698 56.5398L44.5561 53.7678C44.5561 53.7678 38.8877 51.6558 36.2513 63.4038C36.2513 63.4038 35.8558 64.7238 35.8558 68.5518L35.5718 83.4678L37.4173 82.1478L37.7013 64.7238Z" fill="#A5BCD1"/>
<path d="M86.3986 57.8061L84.0258 57.0141L80.4666 55.9581C80.4666 55.9581 78.2256 55.8261 76.2483 60.0501C76.2483 60.0501 74.5346 56.7501 69.9208 56.3541C65.307 55.9581 64.1206 63.8781 64.1206 63.8781V59.9181L64.5161 59.3901V58.2021L64.1206 57.5421V54.7701C64.1206 54.7701 66.3274 51.3551 69.2275 51.4871C72.9196 51.6552 75.3255 57.2781 75.3255 57.2781H76.1165C76.1165 57.2781 77.171 52.7901 80.9939 52.6581C80.9939 52.6581 83.7622 52.2621 86.3986 57.8061Z" fill="#A5BCD1"/>
<path d="M72.9527 64.934C72.9527 64.934 66.6252 64.802 65.8342 64.934V116.046L63.5933 116.018V115.094L64.1206 114.038V63.878C64.1206 63.878 74.5345 63.086 77.8301 63.482C77.8301 63.482 79.1483 63.482 79.6756 63.878C79.6756 63.878 90.4851 63.086 94.5716 66.122L94.3079 67.574L94.5716 70.742C94.5716 70.742 100.372 71.534 99.0536 72.59L98.7899 73.118V114.962C98.7899 114.962 96.0216 115.094 95.2307 115.094C95.2307 115.094 94.6639 115.741 94.1563 115.879C94.1563 115.879 87.9805 116.81 80.2029 116.018C80.2029 116.018 79.2802 116.942 73.8754 116.282V65.462L72.9527 64.934Z" fill="#A5BCD1"/>
<path d="M80.8618 64.9334C80.8618 64.9334 92.0667 73.7774 93.1213 76.5494V66.6494C93.1213 66.6494 90.7485 64.6694 80.8618 64.9334Z" fill="#EDE5D5"/>
<path d="M62.6703 80.6426C62.5384 80.6426 51.5972 82.0946 51.5972 82.0946V82.4906L62.6703 81.1706V80.6426Z" fill="#A5BCD1"/>
<path d="M48.8291 82.2266L34.2939 84.0609L34.1519 84.7721L48.8291 82.8866V82.2266Z" fill="#A5BCD1"/>
<path d="M32.6149 84.4697L24.0464 85.6577V86.0537L32.6149 84.9977V84.4697Z" fill="#A5BCD1"/>
<path d="M45.4015 102.289C45.4015 102.289 45.2697 100.573 44.0833 100.573C42.8969 100.573 42.2378 101.761 42.2378 102.949V113.926L44.6106 113.905V103.213L44.347 102.949V102.421L45.4015 102.289Z" fill="#A5BCD1"/>
<path d="M43.8196 97.2734C43.8196 97.2734 42.6332 96.4814 41.8423 96.4814C41.0514 96.4814 38.0195 96.6134 38.0195 102.553L37.2285 103.213L38.0195 103.609V114.169L38.5428 114.294V102.289C38.5428 102.289 38.5467 95.9534 43.8196 97.2734Z" fill="#A5BCD1"/>
<path d="M43.8198 97.9331C43.8198 97.9331 39.3379 96.8771 39.2061 102.553V114.218L39.8823 114.163V102.553C39.8823 102.553 39.8652 97.6691 43.8198 97.9331Z" fill="#A5BCD1"/>
<path d="M44.215 99.3857C44.215 99.3857 40.9194 99.3857 40.9194 102.686V114.043L41.4467 113.906V102.686C41.4467 102.686 41.4467 100.046 44.215 99.3857Z" fill="#A5BCD1"/>
<path d="M22.0688 65.9907H24.0462L25.1008 65.3307C25.1008 65.3307 26.6919 59.6877 31.1686 60.9259C31.1686 60.9259 26.7672 57.1775 23.7825 64.9347L22.0688 65.9907Z" fill="#A5BCD1"/>
<path d="M28.7919 81.9624V70.0824C28.7919 70.0824 28.6601 68.2344 29.7147 68.2344C30.7692 68.2344 30.6374 69.9504 30.6374 69.9504V81.5664L28.7919 81.9624Z" fill="#A5BCD1"/>
<path d="M51.5971 58.7305L51.2016 59.2585L50.938 62.0305L50.5425 114.698L50.0152 114.962H49.1465L49.6197 114.566L49.8834 114.302L50.2788 62.0305L49.7515 61.3705L49.799 58.7305H51.0698H51.5971Z" fill="#A5BCD1"/>
<path d="M59.6384 54.373C59.6384 54.373 53.4427 51.865 51.8608 60.973V81.697L54.1018 80.377V60.973C54.1018 60.973 54.6291 56.353 57.7929 56.353C57.7929 56.353 59.1111 56.089 60.0338 57.145L59.6384 54.373Z" fill="#A5BCD1"/>
<path d="M57.7928 61.2383C57.7928 61.2383 56.2109 61.3703 56.2109 64.6703V77.4743L58.5837 75.7583V63.3503C58.5837 63.3503 58.7156 62.6903 59.3747 62.9543C59.3747 62.9543 59.3747 61.2383 57.7928 61.2383Z" fill="#A5BCD1"/>
<path d="M59.3749 75.7582H58.4521L58.584 63.8782C58.584 63.8782 58.584 62.8315 59.1113 62.8922L59.3749 62.9542V75.7582Z" fill="#6A6783"/>
<path d="M59.3747 77.2109L56.2109 77.6069V78.1349L59.3747 77.8709V77.2109Z" fill="#A5BCD1"/>
<path d="M44.1836 66.5372C44.1836 66.5372 43.5562 66.5187 43.5562 67.1787V78.3987H44.1836V66.5372Z" fill="#6A6783"/>
<path d="M43.556 78.3977L41.5786 79.8497V66.9137C41.5786 66.9137 41.5786 64.3687 43.2923 64.4532C43.2923 64.4532 43.9514 64.5377 44.2151 66.5177C44.2151 66.5177 43.556 66.4926 43.556 67.5618V78.3977Z" fill="#A5BCD1"/>
<path d="M28.792 81.9612L30.6375 80.6689V81.5652L28.792 81.9612Z" fill="#EDE5D5"/>
<path d="M33.2738 62.8225L34.1966 65.9905L33.0102 112.718L32.2061 113.928L34.1966 113.906L35.4297 62.7246L33.2738 62.8225Z" fill="#A5BCD1"/>
<path d="M46.7196 102.554L46.1923 103.874V114.805L45.665 114.698V103.874L46.1923 102.554H46.7196Z" fill="#A5BCD1"/>
<path d="M49.8701 32.8719C50.0151 32.7253 52.6516 25.0693 60.5609 25.0693C68.4703 25.0693 70.8774 33.1372 70.8774 33.1372C70.8774 33.1372 68.4703 29.8227 60.6268 29.8227C52.7834 29.8227 49.8701 32.8719 49.8701 32.8719Z" fill="#FFD47E"/>
<path d="M26.2874 83.9423L24.0464 85.6583L24.7055 67.4423C24.7055 67.4423 25.7601 61.8983 29.7148 61.2383L31.4285 63.3503C31.4285 63.3503 30.5057 62.9543 29.7148 62.9543C28.9238 62.9543 26.8147 64.5383 26.6828 67.8383L26.2874 83.9423Z" fill="#A5BCD1"/>
<path d="M22.7281 82.4899C22.7281 82.4899 12.9732 77.3419 8.09576 86.0539C8.09576 86.0539 3.21832 84.3379 -1 86.8459V111.926H22.7281V82.4899Z" fill="#3D6467"/>
<path d="M99.185 83.5464C99.185 83.5464 102.481 83.0184 105.776 85.3944C105.776 85.3944 104.722 68.2344 130.822 68.2344V111.926H98.7896L99.185 83.5464Z" fill="#3D6467"/>
<path d="M131 48.4993H76.7534C76.7534 48.4993 78.2985 37.0727 88.1368 36.6496C88.1368 36.6496 96.1478 22.1195 110.762 28.0452C110.762 28.0452 116.525 15.7724 131 14.3613V48.4993Z" fill="#E1DDFA" fill-opacity="0.6"/>
<path d="M49.2246 36.9497C49.2246 36.9497 51.9929 33.3857 60.6932 33.3857C69.3935 33.3857 71.3708 35.8964 71.3708 35.8964V36.6805C71.3708 36.6805 68.8662 34.3097 60.6932 34.3097C52.5202 34.3097 49.2246 37.8579 49.2246 37.8579V36.9497Z" fill="#A5BCD1"/>
<path d="M49.752 58.7299H51.5975L52.6521 57.4099C52.6521 57.4099 54.3657 53.186 57.7931 53.186C57.7931 53.186 59.6387 53.186 61.7478 55.298L64.1152 55.3276C64.1152 55.3276 64.9673 53.1939 66.6714 52.1982L64.1206 53.186L62.2751 52.394L59.7705 53.054L57.7931 52.394C57.7931 52.394 55.4203 51.866 52.9157 55.298C52.9157 55.298 52.2566 55.9579 51.9929 57.0139C51.7293 58.0699 52.1221 57.1671 51.9916 57.1565C51.8611 57.1459 49.752 58.7299 49.752 58.7299Z" fill="#6A6783"/>
<path d="M64.1206 63.8786C64.1206 63.8786 76.4698 62.8669 79.8779 63.8786C79.8779 63.8786 75.9536 56.4324 69.5115 56.1816C69.5115 56.1816 65.3933 55.7549 64.1206 63.8786Z" fill="#6A6783"/>
<path d="M94.5042 66.1375C94.5042 66.1375 94.1741 59.6333 87.4998 57.4996L80.4456 55.7539C80.4456 55.7539 78.1514 56.2216 76.4746 59.5876C76.4746 59.5876 78.8843 62.0296 79.6753 63.8776C79.6753 63.8776 89.5252 63.7364 94.5042 66.1375Z" fill="#6A6783"/>
<path d="M98.1306 71.006L94.5424 70.3882L94.3077 67.574L94.5714 66.122L93.6486 65.594L93.3428 65C93.3428 65 96.2851 65.594 98.1306 71.006Z" fill="#6A6783"/>
<path d="M58.4839 25.2575C58.4839 25.2575 62.8024 24.6279 64.8456 30.1956C64.8456 30.1956 68.9981 30.8781 70.8436 33.1221C70.8436 33.1221 68.2889 24.6622 59.8878 25.1057C59.437 25.1308 58.969 25.1796 58.4839 25.2575Z" fill="#FFA400"/>
<path d="M60.6928 12.5303L60.0337 25.0703L61.2109 25.0901L60.6928 12.5303Z" fill="#FFA400"/>
<path d="M28.9258 -1C28.9258 -1 37.7445 12.6515 34.1303 23.1079C30.516 33.5643 18.5168 40.0996 12.0112 39.8091C12.0112 39.8091 17.0711 47.361 14.3243 53.0249C11.5775 58.6888 5.79474 58.834 5.79474 58.834C5.79474 58.834 4.34905 68.2739 -1 69V-1H28.9258Z" fill="#3D6467"/>
<path d="M130.819 25C130.819 25 114 28.7767 114 46.0419C114 63.307 125.755 65.645 125.755 65.645C125.755 65.645 125.755 76.6155 131 83L130.819 25Z" fill="#3D6467"/>
<path d="M51.9023 114.785V83.207L54.1744 83.4915V115.069L51.9023 114.785Z" fill="#A5BCD1"/>
<path d="M34.5776 114.074L35.4297 84.9141L36.7077 85.483L36.1397 114.216L34.5776 114.074Z" fill="#A5BCD1"/>
<path d="M23.7852 113.505L24.2112 86.7632L25.9153 87.3322V113.505H23.7852Z" fill="#A5BCD1"/>
<path d="M77.3218 98.1427H74.9077V81.3583C74.9077 80.7893 75.1349 79.6514 76.0438 79.6514C76.9526 79.6514 77.2745 80.7893 77.3218 81.3583V98.1427Z" fill="#6A6783"/>
<path d="M89.534 98.2843H87.5459V81.4999C87.5459 80.9309 87.733 79.793 88.4815 79.793C89.2299 79.793 89.495 80.9309 89.534 81.4999V98.2843Z" fill="#6A6783"/>
<path d="M92.6585 98.2843H91.5225V81.4999C91.5225 80.9309 91.6294 79.793 92.0571 79.793C92.4848 79.793 92.6362 80.9309 92.6585 81.4999V98.2843Z" fill="#6A6783"/>
</svg>
