<svg width="130" height="130" viewBox="0 0 130 130" fill="none" xmlns="http://www.w3.org/2000/svg">
<mask id="mask0" mask-type="alpha" maskUnits="userSpaceOnUse" x="0" y="0" width="130" height="130">
<rect width="130" height="130" rx="20" fill="#C4C4C4"/>
</mask>
<g mask="url(#mask0)">
<rect x="-2.0791" y="-1.98486" width="132.97" height="131.955" fill="#97A3E4"/>
<path d="M-1.625 80.8374L130.082 90.9898V117.814H-1.625V80.8374Z" fill="#DE5327"/>
<path d="M-1.625 80.8374L24.3762 82.0612L21.0835 117.814H-1.625V80.8374Z" fill="#B33F36"/>
<path d="M12.2261 71.4749V81.9512L13.9164 83.4384V99.3256L10.4097 117.814H19.5963L21.045 94.6444L20.4414 61.564L12.2261 71.4749Z" fill="#B33F36"/>
<path d="M26.297 52.5322L79.5286 60.6587C79.5286 60.6587 62.3729 40.819 44.2369 38.4017C26.1107 35.9745 26.297 52.5322 26.297 52.5322Z" fill="#E1DDFA" fill-opacity="0.6"/>
<path d="M68.7724 117.814H19.5962L21.045 94.6444L20.4413 61.564L64.2285 64.467V95.517L68.7724 117.814Z" fill="#DE5327"/>
<path d="M37.3548 40.5405L56.5676 60.9607L25.0347 59.0289L37.3548 40.5405Z" fill="#9997AC"/>
<path d="M68.7722 64.9556L17.0552 61.5642L25.0344 59.0288L56.5674 60.9605L68.7722 64.9556Z" fill="#9997AC"/>
<path d="M8.83984 72.139H12.2258V71.4749L20.4411 61.564H17.0551L8.83984 72.139Z" fill="#63607D"/>
<path d="M64.1627 64.7742L20.5347 61.7559V65.3229L64.1627 67.7924V64.7742Z" fill="#B33F36"/>
<path d="M37.3547 40.5405L21.8462 60.0442L25.5175 59.0289L37.3547 40.5405Z" fill="#63607D"/>
<path d="M-1.625 98.7822C-1.2189 98.6889 13.911 98.7822 13.911 98.7822V99.3255L13.697 100.467H-1.625V98.7822Z" fill="#A7BED2"/>
<path d="M21.0285 93.6621L13.9163 98.7822V99.3255L13.6968 100.467L20.9736 95.7914L21.0449 94.6444L21.0285 93.6621Z" fill="#A7BED2"/>
<path d="M37.2066 93.6621H21.0285L20.9736 95.7914H37.2066V93.6621Z" fill="#EDE5D5"/>
<path d="M50.3442 93.6621V95.6103H64.2284V93.9859L50.3442 93.6621Z" fill="#EDE5D5"/>
<path d="M34.7041 62.7222V70.9923H36.8718V62.8868L34.7041 62.7222Z" fill="#983028"/>
<path d="M26.2969 62.8535V71.1236H28.4646V63.0181L26.2969 62.8535Z" fill="#983028"/>
<path d="M42.2441 63.2158V71.3542H44.549V63.342L42.2441 63.2158Z" fill="#983028"/>
<path d="M49.3179 63.6821V71.7766H51.6173V63.8632L49.3179 63.6821Z" fill="#983028"/>
<path d="M57.2861 64.0063V72.6222H59.5306V64.3521L57.2861 64.0063Z" fill="#983028"/>
<path d="M7.87431 83.9819H5.03711V90.9295H7.87431V83.9819Z" fill="#983028"/>
<path d="M65.4521 101.504L130.082 104.49V105.307L65.6826 102.657L65.4521 101.504Z" fill="#EDE5D5"/>
<path d="M130.082 117.814H-1.625V130.809H130.082V117.814Z" fill="#809E62"/>
<path d="M38.293 115.004V106.668C38.293 106.668 38.1119 102.135 44.5436 102.135C44.5436 102.135 49.318 103.134 49.318 107.393V115.641H38.293V115.004Z" fill="#63607D"/>
<path d="M64.2286 110.236H49.3182V115.641H38.2932V110.236H24.4255V108.386H23.3389V106.85H24.5188V102.657H22.7078V100.467H25.6054V97.4216H22.7078V95.7917V92.6197H25.0347V90.9295H22.7078V86.9124H23.7944V84.5527L20.8639 84.6514L19.2231 86.7478V89.0307L19.8761 88.4545L19.8487 90.9295L17.9115 92.3563V94.5569L19.9804 93.1685L19.9475 94.4362V96.5216V99.1447L18.3286 99.9569L18.2024 101.79L19.5963 101.713L19.4865 103.178L17.3737 103.705V106.219L19.1682 105.615L18.9322 108.134L16.6274 108.315V110.279L11.7542 110.872L10.4097 117.814H68.7725L64.2286 95.5173V80.8374L62.8566 80.7222L62.8841 82.9228L61.0456 82.7142V84.3112L63.2737 84.5472V86.8795L59.2402 86.6435L59.2127 89.0307L63.2243 89.2118V90.3642L60.7877 90.2874V92.1203L63.378 92.1752V93.0917L59.3719 92.8557L59.3993 93.871V96.2088L63.0158 96.2636L63.0652 97.0758L61.3091 97.0209V98.5411L63.4877 98.5685V99.8801L60.5737 99.902V100.846H63.5645V101.998H62.1213V103.409H63.6963L63.6414 104.698L61.7042 104.649V107.19L64.481 107.322L64.6127 108.419L63.7456 108.342L64.2286 110.236Z" fill="#EDE5D5"/>
<path d="M19.2231 86.7477L20.8639 84.6514V95.7806L19.9804 117.814H10.4097L11.7542 110.872L16.6274 110.279V108.315L18.9322 108.134L19.1682 105.615L17.3737 106.218V103.705L19.4865 103.178L19.5963 101.713L18.2024 101.79L18.3286 99.9569L19.9475 99.1447V96.5215V94.4361L19.9804 93.1684L17.9115 94.5569V92.3562L19.8487 90.9294L19.8761 88.4544L19.2231 89.0306V86.7477Z" fill="#A7BED2"/>
<path d="M45.2405 92.0161H42.2441V96.1868H45.2405V92.0161Z" fill="#983028"/>
<path d="M50.3441 86.2314H49.3179V98.7436H50.3441V86.2314Z" fill="#983028" fill-opacity="0.5"/>
<path d="M-16.6081 22.5014L101.48 40.3537C101.48 40.3537 92.6239 21.8718 76.5979 22.5014C76.5979 22.5014 63.7324 1.28482 41.5898 11.1617C41.5898 11.1617 17.2444 -11.9438 -20.3496 0.871429V21.8782L-16.6081 22.5014Z" fill="#EDE5D6"/>
<path d="M38.37 85.9023H37.2725V98.5243H38.37V85.9023Z" fill="#983028" fill-opacity="0.5"/>
<path d="M138.248 73.2803L99.8335 67.0619C99.8335 67.0619 110.815 55.655 124.327 56.9139C137.839 58.1729 138.248 73.2803 138.248 73.2803Z" fill="#EDE5D6"/>
<path d="M133.858 26.6342L88.3091 18.6654C88.3091 18.6654 106.109 6.93687 133.858 8.70621V26.6342Z" fill="#E1DDFA" fill-opacity="0.6"/>
<path d="M130.016 91.939L64.1626 87V88.6463L130.016 93.5854V91.939Z" fill="#B33F36"/>
<path d="M64.2285 87.4556L69.859 87.8836L130.082 92.4879V90.9897L64.2285 85.8257V87.4556Z" fill="#9997AC"/>
<path d="M70.04 94.1014H68.4102V87.7739L69.8589 87.8837L70.04 94.1014Z" fill="#983028"/>
<path d="M74.3369 88.2236V94.6334L75.7802 94.7267V88.3389L74.3369 88.2236Z" fill="#983028"/>
<path d="M80.1978 88.7671V95.1768L81.641 95.2646V88.8768L80.1978 88.7671Z" fill="#983028"/>
<path d="M85.5103 89.2393V95.6435L86.959 95.7368V89.349L85.5103 89.2393Z" fill="#983028"/>
<path d="M91.2505 89.541V95.9508L92.6993 96.0386V89.6508L91.2505 89.541Z" fill="#983028"/>
<path d="M96.4365 89.9087V96.2087L97.8798 96.302V90.0185L96.4365 89.9087Z" fill="#983028"/>
<path d="M101.645 90.4136V96.8233L103.088 96.9111V90.5233L101.645 90.4136Z" fill="#983028"/>
<path d="M111.791 91.1162V97.3394L113.24 97.4272V91.1931L111.791 91.1162Z" fill="#983028"/>
<path d="M106.721 90.8525V97.2623L108.164 97.3501V90.9623L106.721 90.8525Z" fill="#983028"/>
<path d="M64.2285 66.1465C65.145 66.1629 72.6358 66.4648 75.4127 74.927C75.4127 74.927 84.2371 70.0758 93.7968 78.7685C93.7968 78.7685 107.077 77.638 108.768 89.3544L64.2285 85.8203L64.2285 66.1465Z" fill="#3D6567"/>
<path d="M-1.69092 67.7271C-1.69092 67.7271 0.553594 64.8405 4.96579 64.9557C4.96579 64.9557 9.91579 48.9203 27.4713 52.888L21.7804 60.0441L16.9896 61.5697L8.77433 72.1447H12.1603V81.4082L-1.69092 80.8594V67.7271Z" fill="#3D6567"/>
<path d="M15.8701 84.8048L12.0286 80.9633L-1.69092 80.1401V84.256L15.8701 84.8048Z" fill="#63607D"/>
<path d="M106.164 111.884C94.8473 114.916 90.6427 126.558 89.9551 132H131.51V97.307C132.099 97.7929 132.865 98.3565 131.215 96.7239C129.565 95.0913 126.401 94.6831 125.026 94.6831C112.53 94.6831 107.245 106.15 106.164 111.884Z" fill="#3D6567"/>
</g>
</svg>
