<svg width="130" height="130" viewBox="0 0 130 130" fill="none" xmlns="http://www.w3.org/2000/svg">
<path d="M130 0H0.0268555V130H130V0Z" fill="#97A3E4"/>
<path d="M106.416 65.9217C106.416 65.9217 110.652 58.2591 116.579 56.2206C116.579 56.2206 119.241 43.1164 129.995 41.8955V83.8929L107.277 82.9648L106.498 82.3184L106.416 65.9217Z" fill="#3D6567"/>
<path d="M130 105.132H0.0268555V130H130V105.132Z" fill="#9997AC"/>
<path d="M47.9871 108.713C47.9871 108.713 47.2553 100.441 42.2024 99.7592C42.2024 99.7592 40.6947 69.0063 26.2109 66.331C26.2109 66.331 17.3036 48.8598 0 49.5223V108.643L47.9871 108.713Z" fill="#3D6567"/>
<path d="M52.8799 50.5495L129.994 27.5708V0H98.3426C98.3426 0 85.872 2.39312 80.6426 19.5758C80.6426 19.5758 57.8893 16.8849 52.8799 50.5495Z" fill="#EDE5D6"/>
<path d="M0.0268555 77.3938L21.5103 78.0221L21.4804 49.9771L26.3409 48.3453L30.2293 50.3376V60.3584L34.5672 60.5805V63.7546L36.8471 63.8467V60.7159L39.4585 60.7863L47.4399 47.5317L47.5319 45.9609L46.5082 44.7758L47.6669 44.136L47.725 42.2353H48.5753C48.5753 42.2353 48.5197 43.9228 48.5197 44.2102C48.7421 44.34 49.4545 44.883 49.4545 44.883L48.5938 45.9717L48.5717 47.3096L56.5326 62.2488L56.8529 62.7601L57.6373 65.3201L59.1104 65.3634L59.6032 62.8121L60.8588 62.8162L64.6515 63.0182L64.6559 58.3867L64.1631 57.6717V53.6038L69.5299 52.8455L71.6744 54.4542V58.5221L71.2737 59.1505V62.9963L73.5969 63.1751L75.6548 64.1121V66.6634L76.6838 63.7113L79.0612 64.2584L85.1807 52.0384V49.9367L84.5092 49.0863L85.4028 48.2792V46.4917H86.4317V48.328L87.504 48.9563L86.5671 50.1209V52.0871L94.1705 65.3688L101.059 65.7263V61.0301L100.48 60.5371V57.1842L106.025 56.2905L107.276 57.7205V61.1655L106.962 61.7017V81.4726L130 82.4096V116.399H109.334H95.1129L74.5446 113.539L75.709 114.433L76.2451 117.206H73.4724L70.9704 117.835L65.4249 117.298L63.1016 117.39L59.1212 116.854L44.4992 114.352V98.9684C44.4992 98.9684 41.5478 95.1226 32.6067 96.3738V119.091H29.7473L24.6513 119.541L20.4488 119.005H0.0268555V77.3938Z" fill="#DE5327"/>
<path d="M38.7105 62.0068L36.8335 60.7041L36.8335 61.6273L38.2797 62.7145L38.7105 62.0068Z" fill="#EDE5D6"/>
<path d="M59.1862 17.8642L0.0268555 42.1959V4.45997C0.0268555 4.45997 11.6743 1.80093 18.1615 12.3461C21.3737 5.92036 45.7936 4.39838 59.1862 17.8642Z" fill="#E1DDFA" fill-opacity="0.6"/>
<path d="M18.1581 93.0472C18.1581 93.0472 9.42823 86.6826 0.0268555 88.1397V91.4384C0.0268555 91.433 10.885 88.6434 18.1581 93.0472Z" fill="#B33F36"/>
<path d="M25.7183 79.3105V114.524L29.2113 114.513V80.096L25.7183 79.3105Z" fill="#B33F36"/>
<path d="M5.05811 113.891V102.532C5.05811 102.532 5.23682 98.2043 9.71005 97.1914C9.71005 97.1914 13.7338 98.0581 13.9125 102.798V113.891H5.05811Z" stroke="#FF0303" stroke-width="0.25" stroke-miterlimit="10"/>
<path d="M25.7182 79.3107L21.3045 80.1665V80.8598L0.0268555 80.4048V78.379L21.0662 78.9748L26.0106 78.0215L25.7182 79.3107Z" fill="#A5BCD1"/>
<path d="M48.1984 64.6313C49.7835 64.6313 51.0686 63.346 51.0686 61.7605C51.0686 60.175 49.7835 58.8896 48.1984 58.8896C46.6132 58.8896 45.3281 60.175 45.3281 61.7605C45.3281 63.346 46.6132 64.6313 48.1984 64.6313Z" fill="#EDE5D6"/>
<path d="M87.0603 67.1989C88.4601 67.1989 89.5948 66.0639 89.5948 64.6639C89.5948 63.2639 88.4601 62.1289 87.0603 62.1289C85.6606 62.1289 84.5259 63.2639 84.5259 64.6639C84.5259 66.0639 85.6606 67.1989 87.0603 67.1989Z" fill="#EDE5D6"/>
<path d="M26.1895 53.2999V52.2003L26.3411 48.2354L30.5706 50.3533V54.3183L30.2294 55.0008L26.1895 53.2999Z" fill="#A5BCD1"/>
<path d="M24.9708 76.8896L23.6278 77.0684L21.5103 78.0217L0.0268555 77.3934V78.3792L21.0662 78.9751L26.0106 78.0217V77.3934L24.9979 77.453L24.9708 76.8896Z" fill="#EDE5D6"/>
<path d="M23.8343 55.2715C23.8343 55.2715 22.5234 56.0786 22.5234 58.1911V77.5611L23.6284 77.0627V57.9852C23.6284 57.9852 23.688 56.7015 24.1972 56.2844L23.8343 55.2715Z" fill="#B33F36"/>
<path d="M26.1895 53.2999L21.5105 54.5938L21.126 53.9608L21.184 49.717L26.3411 48.2354L26.1895 53.2999Z" fill="#EDE5D6"/>
<path d="M26.2452 52.5537L21.1655 53.9815L21.5178 54.612L26.2267 53.3325L26.2452 52.5537Z" fill="#A5BCD1"/>
<path d="M26.0107 77.3932L26.1895 53.2998L30.2294 55.0006V76.169L28.9622 78.1406L26.0107 77.3932Z" fill="#B33F36"/>
<path d="M32.4502 62.9307V63.3478C32.4502 63.3478 31.7027 63.4994 31.7027 64.4528V73.5473L31.2856 74.2623V64.4202C31.2911 64.4257 31.2315 63.169 32.4502 62.9307Z" fill="#B33F36"/>
<path d="M30.2295 61.3817L34.5673 61.5604V60.58L30.2295 60.3525V61.3817Z" fill="#EDE5D6"/>
<path d="M34.5674 63.7539V64.6314L36.864 64.7831L36.8478 63.8406L34.5674 63.7539Z" fill="#A5BCD1"/>
<path d="M28.9622 78.1408L47.44 47.5258L47.5375 45.9549L46.5361 44.7752L47.6577 44.1355V42.1514H48.6125L48.6217 44.1911L49.46 44.877L48.5939 46.0176L48.5772 47.3091L66.1073 79.4408L67.2988 78.8233L68.6418 78.7962L68.9667 79.3108H69.3242L70.5047 80.3508L63.6324 80.8599L48.1982 52.1678L30.8739 80.5566L25.7183 79.3108L26.0107 78.0216V77.3933L28.9622 78.1408Z" fill="#EDE5D6"/>
<path d="M48.1982 49.9307V52.1677L30.8739 80.5565L25.7183 79.3107L26.0107 78.0215L30.5706 79.1211L48.1982 49.9307Z" fill="#A5BCD1"/>
<path d="M49.4601 44.8766L46.499 44.7656L47.5375 45.9545L48.6125 45.9987L49.4601 44.8766Z" fill="#A5BCD1"/>
<path d="M34.5674 65.915V68.8075L35.1036 67.968V66.6625L35.889 66.668L36.252 66.0667L34.5674 65.915Z" fill="#B33F36"/>
<path d="M62.7663 65V65.9154C62.7663 65.9154 62.1975 66.2296 62.1975 67.2046V72.2854L61.5854 71.1587V67.08C61.5854 67.08 61.6342 65.4821 62.7663 65Z" fill="#B33F36"/>
<path d="M64.1685 57.6707L69.4757 56.7607L69.324 57.6707L64.6613 58.3857L64.1685 57.6707Z" fill="#A5BCD1"/>
<path d="M69.5353 52.8398L69.4757 56.7615L64.1685 57.6715V53.6036L69.5353 52.8398Z" fill="#EDE5D6"/>
<path d="M71.6807 54.4486L69.5357 52.8398L69.4761 56.7615L71.6807 58.5219V54.4486Z" fill="#A5BCD1"/>
<path d="M69.3242 57.6707L71.2796 59.1441L71.6805 58.5212L69.4759 56.7607L69.3242 57.6707Z" fill="#A5BCD1"/>
<path d="M69.3242 79.3105V57.6709L71.2796 59.1442V79.8088L69.3242 79.3105Z" fill="#B33F36"/>
<path d="M63.6323 80.8598L64.4392 81.7156L70.0118 81.2877L70.5046 80.3506L63.6323 80.8598Z" fill="#A5BCD1"/>
<path d="M72.9908 81.0331V81.9539L70.0122 81.2877L70.505 80.3506L72.9908 81.0331Z" fill="#A5BCD1"/>
<path d="M69.3242 79.3105L70.5048 80.3505L72.9905 81.033L71.2792 79.8089L69.3242 79.3105Z" fill="#A5BCD1"/>
<path d="M70.0122 81.2881V113.561L72.7254 113.236V84.2239L73.2344 84.2835L73.4998 81.2881L72.9908 81.9544L70.0122 81.2881Z" fill="#B33F36"/>
<path d="M30.8743 80.5571L30.5764 83.1192C30.5764 83.1192 29.2114 82.9675 29.2114 82.8483C29.2114 82.7292 29.2114 80.0967 29.2114 80.0967L30.8743 80.5571Z" stroke="#FF0303" stroke-width="0.25" stroke-miterlimit="10"/>
<path d="M9.68287 98.6807C9.68287 98.6807 6.43896 99.3523 6.43896 102.749V113.885H12.786V102.749C12.7914 102.754 12.8347 99.309 9.68287 98.6807Z" fill="#6A6783"/>
<path d="M67.0663 59.1445V59.8379C67.0663 59.8379 66.2484 60.4391 66.2484 61.3816V79.3108L66.1075 79.4408L65.6309 78.5633V61.4249C65.6309 61.4249 65.8746 59.5291 67.0663 59.1445Z" fill="#B33F36"/>
<path d="M59.609 62.8115H60.8819L60.6815 63.8624L59.1865 64.9999L59.609 62.8115Z" fill="#EDE5D6"/>
<path d="M59.1164 65.3632H59.8098L60.8823 65.9157V66.6361L59.0528 66.5534L58.3906 65.3076L59.1164 65.3632Z" fill="#A5BCD1"/>
<path d="M60.6812 63.8624L64.5966 64.0682L65.0136 63.4399L64.6742 63.0064L60.8815 62.8115L60.6812 63.8624Z" fill="#A5BCD1"/>
<path d="M71.2793 79.8091L85.1864 51.9572V49.9308L84.2653 48.9074L85.4331 48.0423L85.4084 46.4912H86.4374V48.1162L87.5097 48.9504L86.5728 50.1095V51.914L103.133 81.2879L106.962 80.86L107.726 81.4937L107.303 82.4633L101.222 83.3083L86.3182 55.6779L73.4997 81.2879L72.9906 81.7158V81.0333L71.2793 79.8091Z" fill="#EDE5D6"/>
<path d="M75.6605 64.9029H71.2793V63.9062L75.6605 64.1121V64.9029Z" fill="#A5BCD1"/>
<path d="M71.2793 63.9057V62.9902L73.6026 63.169L75.6605 64.1115L71.2793 63.9057Z" fill="#A5BCD1"/>
<path d="M76.6895 63.7109L79.3208 63.8152L78.5741 65.2439H77.9622L75.731 66.4518L76.6895 63.7109Z" fill="#EDE5D6"/>
<path d="M77.7242 66.9388L75.6567 66.4639L75.6605 66.9388V67.7351H77.3234L77.7242 66.9388Z" fill="#A5BCD1"/>
<path d="M73.4727 66.002V66.457C73.4727 66.457 72.9961 66.7982 72.9961 68.3636V76.3911L72.6277 77.1224V68.342C72.6277 68.3365 72.5086 66.549 73.4727 66.002Z" fill="#B33F36"/>
<path d="M75.731 68.8076V71.0555L76.7872 68.8076H75.731Z" fill="#B33F36"/>
<path d="M93.8894 79.3103L91.3874 80.1716C91.3874 80.1716 90.2718 78.4383 88.8475 77.7558C88.7988 77.7341 88.75 77.7124 88.7013 77.6908C87.212 77.0624 81.3091 82.2516 78.206 89.6779C78.206 89.6779 87.7427 86.1408 96.3913 93.9299L96.0014 93.9787C96.0014 93.9787 90.4884 87.3812 78.4713 90.1545L78.623 90.8099C78.623 90.8099 87.7752 87.8307 95.0483 94.3903C95.0483 94.3903 93.3803 94.7208 92.6059 95.1053L92.6384 97.4237L86.7463 115.228L74.3664 113.56V91.4653C74.3664 91.4653 74.1876 78.942 86.4105 72.9512C86.4105 72.9512 90.64 74.6358 93.8894 79.3103Z" fill="#B33F36"/>
<path d="M92.9686 75.9633C92.9686 75.9633 89.0261 73.2116 86.5891 72.9679C86.5296 72.9625 86.47 72.9571 86.4104 72.9516C83.9951 72.8325 74.3663 81.1525 74.3663 91.2004C74.3663 91.2004 73.9493 76.6404 86.9141 71.5596C86.9141 71.5596 90.7591 73.7262 92.9686 75.9633Z" fill="#B33F36"/>
<path d="M58.6828 94.0929L57.4318 94.8404V100.923L53.89 115.949L44.4941 114.34V98.957C44.4941 98.957 42.4091 95.1383 32.6016 96.3624V115.592L31.291 114.757V92.1591C31.291 92.1591 32.3525 74.1108 48.1171 69.3008C48.1171 69.3008 54.5183 72.4804 57.0202 75.9416C57.0202 75.9416 50.7761 70.4545 48.2037 70.6929C48.2037 70.6929 53.0236 72.957 56.6628 78.1462L55.3522 78.9804C55.3522 78.9804 52.6716 76.2395 51.8917 75.882C51.8917 75.882 42.2358 80.237 39.0731 88.882C39.0731 88.882 51.6697 85.1228 60.0367 93.4753C60.0367 93.4753 50.8194 86.022 40.4433 89.6566C40.4379 89.6512 51.3502 87.1433 58.6828 94.0929Z" fill="#B33F36"/>
<path d="M20.4383 114.292L19.0952 115.635V118.988H20.6603L24.6407 119.524L29.5147 119.097L32.6016 119.08V115.592L31.2856 114.752L29.2114 114.514L25.7184 114.525L20.4383 114.292Z" fill="#6A6783"/>
<path d="M60.0369 94.0928H59.1865V113.208H60.0369V94.0928Z" fill="#B33F36"/>
<path d="M96.6046 94.7764H96.0859V112.57H96.6046V94.7764Z" fill="#B33F36"/>
<path d="M74.5447 113.534L72.725 113.236L70.0119 113.561H64.6451H62.1756L60.031 113.203H59.1862H57.8648L57.186 116.539L62.987 117.459L65.406 117.349L70.965 117.824L73.2612 117.249L76.2397 117.201L75.7036 114.427L74.5447 113.534Z" fill="#6A6783"/>
<path d="M107.304 82.4629V112.547H108.707V83.5679L107.304 82.4629Z" fill="#B33F36"/>
<path d="M130 85.1179L108.706 84.3433V83.5687L107.304 82.4637L107.726 81.4941L109.064 82.4637L130 83.3087V85.1179Z" fill="#A5BCD1"/>
<path d="M110.136 94.0924V115.234L111.148 114.817V96.0912C111.148 96.0912 118.005 88.1936 127.395 95.1378H129.995C129.995 95.1378 125.971 90.4795 120.062 90.4795C114.159 90.4795 110.136 94.0924 110.136 94.0924Z" fill="#B33F36"/>
<path d="M72.7524 80.86L86.5296 53.9121L86.3184 55.6779L73.4998 81.2879L72.9907 81.9542V81.0334L72.7524 80.86Z" fill="#A5BCD1"/>
<path d="M103.518 61.7607V62.4974C103.518 62.4974 102.581 63.1637 102.581 64.6641V80.3453L101.861 79.0453V64.6261C101.861 64.6316 101.996 62.4107 103.518 61.7607Z" fill="#B33F36"/>
<path d="M106.025 56.2842V59.9079L100.48 60.5308V57.1779L106.025 56.2842Z" fill="#EDE5D6"/>
<path d="M101.059 61.2461L106.025 60.5311V59.9082L100.48 60.5311L101.059 61.2461Z" fill="#A5BCD1"/>
<path d="M106.025 56.2842L107.277 57.7142V61.1592L106.025 59.9079V56.2842Z" fill="#A5BCD1"/>
<path d="M106.025 60.5311L106.962 61.6957L107.277 61.1595L106.025 59.9082V60.5311Z" fill="#A5BCD1"/>
<path d="M101.222 83.3087L102.175 82.2254L107.726 81.4941L107.303 82.4637L101.222 83.3087Z" fill="#A5BCD1"/>
<path d="M98.2433 65.5742L97.7505 66.3867L101.222 66.6359L101.639 65.9155L101.059 65.7205L98.2433 65.5742Z" fill="#A5BCD1"/>
<path d="M95.2378 67.362L97.7506 66.387L98.2434 65.5745L94.1709 65.3633L95.2378 67.362Z" fill="#EDE5D6"/>
<path d="M99.3592 67.7354C99.3592 67.7354 98.5088 68.082 98.5088 69.2953C98.5088 70.5087 98.5088 73.1412 98.5088 73.1412L99.0667 74.1216V69.5662C99.0667 69.5662 98.915 68.7645 99.3592 68.3637V67.7354Z" fill="#B33F36"/>
<path d="M95.2378 67.3613L97.7506 67.7351L98.2434 68.1792L95.5627 67.9355L95.2378 67.3613Z" stroke="#FF0303" stroke-width="0.25" stroke-miterlimit="10"/>
<path d="M98.0211 68.8076L95.9632 68.6397L95.5625 67.9355L98.2432 68.1793L98.0211 68.8076Z" fill="#A5BCD1"/>
<path d="M114.517 98.1936C114.517 98.1936 116.353 98.7028 116.84 100.057C116.84 100.057 115.096 98.8219 114.517 98.8219L113.667 99.3582C113.667 99.3582 112.102 99.9648 112.102 102.857V111.031H111.148V101.189C111.148 101.189 111.116 98.1015 114.609 97.1211L114.517 98.1936Z" fill="#B33F36"/>
<path d="M115.714 110.728C115.714 110.576 115.714 102.619 115.714 102.619C115.714 102.619 115.681 99.7859 113.672 99.3525C113.672 99.3525 112.118 100.203 112.112 102.559V111.025H115.714V110.728Z" fill="#6A6783"/>
<path d="M118.335 102.381H119.05C119.05 102.381 118.839 97.9661 122.537 97.2511C122.537 97.2511 125.846 98.0257 126.323 102.381H128.083L127.368 101.666L126.8 101.454L127.217 101.037L127.065 100.442L126.35 100.263L126.707 99.5749L126.258 98.887L125.841 99.0061L125.933 98.3778L125.397 97.6899L124.861 97.809L124.98 97.2403L124.53 96.8503L124.054 97.1049L123.962 96.3466C123.962 96.3466 123.485 95.9565 123.393 96.0486C123.301 96.1407 122.917 96.3791 122.917 96.3791L122.559 95.7236H121.871L121.574 96.352L120.945 95.9945L120.528 96.352L120.68 96.9207L120.057 96.8611L119.786 97.1157L119.906 97.6357H119.25L119.012 98.0257L119.402 98.4428C119.402 98.4428 118.904 98.8599 118.644 99.8457C118.644 99.8457 118.324 98.8328 117.967 98.5024L118.205 97.9661L117.669 97.3703L117.219 97.5057V96.9857L116.591 96.6282L116.174 96.9857L115.996 96.2382L115.546 96.0595L115.037 96.4766L114.647 95.7291H113.976L113.889 96.3249L113.456 95.9349L112.827 96.2328V97.1103L112.291 96.6499L111.663 97.1103V97.7495L111.127 97.782L111.154 100.821C111.154 100.821 111.365 97.8415 114.582 97.1103C114.609 97.1157 117.469 97.2836 118.335 102.381Z" fill="#EDE5D6"/>
<path d="M121.433 99.3525C121.433 99.3525 123.101 100.382 123.101 102.38C123.101 104.379 123.101 102.532 123.101 102.532V110.912H119.884V102.175C119.884 102.169 120.155 99.6071 121.433 99.3525Z" fill="#6A6783"/>
<path d="M124.563 100.024C124.563 100.024 122.981 98.8002 122.267 98.8002L121.433 99.3527C121.433 99.3527 120.209 99.8131 119.884 102.169C119.884 102.169 120.122 98.5293 122.386 98.291C122.391 98.2964 123.94 98.681 124.563 100.024Z" fill="#B33F36"/>
<path d="M93.3857 112.548L93.3589 116.177L95.1132 116.394H109.6V113.561L108.706 112.548H102.267H96.3967H93.3857Z" fill="#6A6783"/>
<path d="M106.025 60.5312V80.86H106.962V61.6958L106.025 60.5312Z" fill="#B33F36"/>
<path d="M32.6016 119.08L53.8955 115.949L44.4941 114.335V113.203L32.6016 113.561V119.08Z" fill="#63607D" fill-opacity="0.6"/>
<path d="M76.24 117.2L86.7461 115.229L74.5449 113.533L75.7038 114.427L76.24 117.2Z" fill="#63607D" fill-opacity="0.6"/>
<path d="M39.2191 119.08V119.887C39.2191 119.887 31.9731 122.568 15.0279 125.212L0.0268555 127.135V126.328C0.0268555 126.328 19.7665 123.69 24.4184 122.883C29.065 122.076 37.172 120.353 39.2191 119.08Z" fill="#63607D"/>
<path d="M3.35742 102.554L3.95855 102.889C3.95855 102.889 3.95855 97.5648 9.92647 96.3568L9.21162 96.1348C9.21162 96.1348 4.33763 96.5139 3.35742 102.554Z" stroke="#FF0303" stroke-width="0.25" stroke-miterlimit="10"/>
<path d="M17.6219 102.732H15.2283C15.2283 102.732 15.1145 97.1424 9.93187 96.3569C9.93187 96.3569 5.01456 96.4003 3.96395 102.889H2.935C2.935 102.889 3.44947 99.0436 0.0268555 97.0286V95.6636L0.785031 96.1349L1.32117 95.864L1.70026 96.1349L1.45656 96.9203L1.92771 97.3211L2.46385 97.0286L2.935 97.4295L2.57216 98.1228C2.57216 98.1228 3.24368 99.2169 3.35199 99.6449C3.35199 99.6449 4.31596 98.1932 4.64631 97.8357L4.28888 97.3645L5.04706 96.6928L5.46947 96.9203L5.91896 96.5411L5.76191 96.1403L6.43344 95.7828L6.94791 96.1403L7.72775 95.8045L7.68442 95.2249L8.42094 95.0245L8.81086 95.3819C8.81086 95.3819 9.35783 95.0894 9.47155 94.5315V93.2099L8.64297 92.4245L9.3145 91.9099L9.76399 92.2457L9.60694 91.5957H10.5222L10.1431 92.3324L10.6142 92.0886L11.1504 92.6899L10.1539 93.2911V94.564C10.1539 94.564 10.3543 95.4361 11.0475 95.5716L11.4266 94.9703L12.0277 95.1924L11.914 95.864L12.3851 96.1349L13.0133 95.5769L13.6794 95.8911L13.4357 96.6711L13.9935 97.1911L14.6867 96.8065L15.1579 97.2453L14.8221 97.9928L15.2012 98.529L15.6723 98.307L16.1435 99.022L15.6074 99.5149L15.7861 100.208L16.6146 100.094L16.9287 100.902L16.1706 101.259L16.306 101.752C16.3005 101.747 17.4432 101.768 17.6219 102.732Z" fill="#EDE5D6"/>
<path d="M129.982 82.3952L107.721 81.5137L109.081 82.4708L129.982 83.3271V82.3952Z" fill="#EDE5D6"/>
<path d="M38.7201 62.0273L36.8179 60.7041L39.4585 60.7863L38.7201 62.0273Z" fill="#EDE5D6"/>
</svg>
