<svg width="130" height="130" viewBox="0 0 130 130" fill="none" xmlns="http://www.w3.org/2000/svg">
<path d="M130.043 -0.120117H0.043457V129.88H130.043V-0.120117Z" fill="#93A0E4"/>
<path d="M104.464 95.5507C104.464 95.5507 106.876 96.4895 107.821 97.801V97.2626H109.086V102.391L109.844 103.351H94.6929L95.5755 102.446V97.0624L96.7779 97.0072V97.6629C96.7779 97.6629 98.2095 96.2686 100.107 95.5507V90.9053H104.499L104.464 95.5507Z" fill="#A5BCD1"/>
<path d="M4.32861 81.242L129.923 56.313L130.051 26.088C130.051 26.088 105.501 14.8652 93.1305 36.4819C93.1305 36.4819 52.9049 26.2916 34.1106 62.6758C34.1106 62.6758 10.4711 60.7888 4.32861 81.242Z" fill="#E1DDFA" fill-opacity="0.6"/>
<path d="M0.0166016 29.7544L75.3313 17.0296C75.3313 17.0296 71.3864 7.02191 61.5665 7.40451C52.2567 8.29723 50.7263 12.1232 50.7263 12.1232C50.7263 12.1232 35.0118 3.95076 21.2665 4.85387C7.33258 5.77272 0.0166114 16.8099 0.0166114 16.8099L0.0166016 29.7544Z" fill="#EDE5D6"/>
<path d="M45.5474 119.691C45.5053 119.65 45.5459 113.49 45.5459 113.49L44.4116 111.993L44.3931 111.026L45.3512 111.036H46.0448V110.013C46.0448 110.013 45.8136 107.782 46.5842 106.841H47.2007C47.2007 106.841 48.4337 106.69 48.5527 101.137V100.266L48.6485 99.4079L48.7839 98.673V97.8424L47.1236 96.3666H48.5107L48.8944 95.4619L48.9381 93.0031L48.8564 83.9868L48.2864 83.5308L48.0964 82.8469L48.9381 82.7273C48.9381 82.7273 50.136 82.1987 50.136 81.5535C50.136 80.9083 50.5633 74.9432 53.898 74.1126V67.2346L53.3025 66.5139C53.3025 66.5139 54.3043 66.0196 54.3043 64.2075C54.3043 64.2075 54.0731 61.1117 55.6564 60.1644V54.4945L55.3481 53.966L56.1188 52.9089L57.737 3.78809L59.7406 52.9844L60.3992 53.8149L60.1259 54.6455V60.0477C60.1259 60.0477 61.6672 60.844 61.6672 64.3585C61.6672 64.3585 61.7862 66.3628 62.5569 66.5482C62.5569 66.5482 61.9754 67.2689 61.9754 68.5114V74.1058C61.9754 74.1058 65.1769 74.6343 65.5973 77.9223C65.5973 77.9223 65.9476 82.5351 67.4117 82.7616L67.5889 82.8469L67.3229 83.4168L67.1805 84.1207V93.1541L67.2346 95.5478L67.5658 96.2156L68.4803 96.2171L67.3697 97.8424V99.126L67.3833 100.084L67.2506 100.712V108.832L67.2737 109.462L67.2926 109.93V111.743L69.2612 111.935L67.797 113.26V115.223H63.5937L59.8527 118.772H56.8193L48.903 123.913H45.3932L45.5474 119.691Z" fill="#FFD47E"/>
<path d="M56.1839 94.6928H52.5436V88.8416L51.4048 87.2136H52.5765C52.5765 87.2136 52.8464 86.0352 54.0708 86.0352C55.2952 86.0352 55.5388 87.1591 55.5388 87.1591H56.8158L56.3024 88.535L56.1839 94.6928Z" fill="#EDE5D5"/>
<path d="M56.8158 102.007L56.325 103.32V110.385H52.0277V103.277L51.4048 102H52.5499C52.5499 102 52.8268 101.187 53.8335 101.187C54.8402 101.187 55.5323 102 55.5323 102H56.8158V102.007Z" fill="#EDE5D5"/>
<path d="M53.042 109.303V105.06C53.042 105.06 52.8339 103.353 54.0131 103.353C54.0131 103.353 55.1922 103.208 55.1922 105.02V109.303H53.042Z" fill="#6A6783"/>
<path d="M59.9062 52.6254L57.7706 3.78809L58.1875 52.7816L57.9375 53.7816L57.9556 54.4197L57.9062 60.0941L57.2537 66.6963L54.1104 67.983V68.6641L58.6507 69.7031V74.2717C58.5343 74.9277 57.9284 76.8706 57.9284 79.898V82.7782L59.0132 85.3592L59 114.77L56.8556 119.043H59.8801L63.6102 115.486H67.8013V113.518L69.2612 112.19L67.2984 111.997V110.181L67.2737 109.701L67.2565 109.08V100.94L67.309 100.456L67.3647 100.066L67.3752 99.3511V98.0644L67.4019 97.2583L67.5708 96.4338L67.1788 95.3804L67.1866 93.3651V84.3104L67.25 84.0004L67.3438 83.4066L67.6499 82.7978C65.8999 82.3603 65.608 78.0973 65.608 78.0973C65.1889 74.8015 61.9967 73.9691 61.9967 73.9691V68.6641C61.9967 67.4188 62.5764 66.6963 62.5764 66.6963C61.8081 66.5105 61.6893 64.5015 61.6893 64.5015C61.6893 60.9786 60.1526 60.1805 60.1526 60.1805V54.7656L60.425 53.933L59.9062 52.6254Z" fill="#FFA400"/>
<path d="M61.5624 103.349L61.1445 101.585H62.009C62.009 101.585 63.5219 100.597 64.9771 101.733L66.0145 101.761L65.1788 103.356V110.385H61.4903L61.5624 103.349Z" fill="#A5BCD1"/>
<path d="M60.6035 86.3038L61.2302 88.3649V94.6929H64.7864V88.4228L65.4734 86.6943L64.5976 86.6365C64.5976 86.6365 64.1597 85.5951 63.0423 85.501C61.9248 85.407 61.8946 86.3038 61.8946 86.3038H60.6035Z" fill="#A5BCD1"/>
<path d="M53.5701 94.1523V89.8969C53.5701 89.8969 53.5123 88.2002 54.4102 88.2002C54.4102 88.2002 55.1926 88.2002 55.1926 89.9311V94.1523H53.5701Z" fill="#6A6783"/>
<path d="M61.6914 93.6104V88.7513C61.6914 88.7513 61.5497 87.1172 62.6582 87.1172C62.6582 87.1172 63.85 87.1967 63.85 88.867V93.6032H61.6914V93.6104Z" fill="#6A6783"/>
<path d="M62.2266 109.296V104.41C62.2266 104.41 62.2266 103.358 63.3088 103.358C63.3088 103.358 64.391 103.18 64.391 104.594V109.303H62.2266V109.296Z" fill="#6A6783"/>
<path d="M68.8705 96.291L58.98 96.3162V97.9395L67.4389 97.9644L68.8705 96.291Z" fill="#A5BCD1"/>
<path d="M58.9799 96.3164H47.0757L48.9061 97.9397H58.9799V96.3164Z" fill="#A5BCD1"/>
<path d="M47.7925 82.8087L47.7925 83.5307L48.9323 85.3925L58.9802 85.3532V82.7891L47.7925 82.8087Z" fill="#A5BCD1"/>
<path d="M53.8888 74.1185L61.9309 74.0811C61.9309 74.0811 65.2226 74.4177 65.7089 78.4201C65.7089 78.4201 65.7837 81.9924 67.6166 82.7779L59.0133 82.8153L47.7168 82.9836C47.7168 82.9836 49.782 82.3021 49.9693 81.692C49.9693 81.692 50.28 75.2015 53.8888 74.1185Z" fill="#FFA400"/>
<path d="M67.6806 83.5919L58.9977 83.629L58.98 85.3526L67.2047 85.3586V84.2738L67.6806 83.5919Z" fill="#A5BCD1"/>
<path d="M52.5045 82.909L52.4868 78.3224C52.4868 78.3224 53.275 77.3779 54.3366 77.3779C55.3981 77.3779 56.8156 78.3224 56.8156 78.3224V82.2774L56.3012 82.8716L52.5045 82.909Z" fill="#EDE5D5"/>
<path d="M54.381 81.7065C54.8293 81.7065 55.1926 81.1009 55.1926 80.3537C55.1926 79.6066 54.8293 79.001 54.381 79.001C53.9327 79.001 53.5693 79.6066 53.5693 80.3537C53.5693 81.1009 53.9327 81.7065 54.381 81.7065Z" fill="#6A6783"/>
<path d="M64.1207 81.7065C64.569 81.7065 64.9324 81.1008 64.9324 80.3537C64.9324 79.6066 64.569 79.001 64.1207 79.001C63.6725 79.001 63.3091 79.6066 63.3091 80.3537C63.3091 81.1008 63.6725 81.7065 64.1207 81.7065Z" fill="#6A6783"/>
<path d="M53.3125 66.4844L62.6406 66.5557L62.0156 68.179H53.9062L53.3125 66.4844Z" fill="#A5BCD1"/>
<path d="M55.3091 53.8008L60.6437 53.8416L60.2862 54.7699H55.6486L55.3091 53.8008Z" fill="#A5BCD1"/>
<path d="M44.3701 112.009L45.5295 113.499V115.255H58.9799V112.009H44.3701Z" fill="#A5BCD1"/>
<path d="M50.8634 97.9463V112.008H47.0757V109.668C47.0757 109.668 47.1012 107.382 47.908 106.933C47.908 106.933 48.6213 107.573 48.9271 106.743C49.2328 105.919 49.5131 102.382 49.6999 97.9395H50.8634V97.9463Z" fill="#FFA400"/>
<path d="M58.98 112.128L69.2609 112.009L67.6941 113.495V115.255H58.98V112.128Z" stroke="#F900BE" stroke-width="0.25" stroke-miterlimit="10"/>
<path d="M48.6992 121.886L103.462 122.414L108.243 113.215L61.727 113.844L58.4111 117.134H55.7161L48.6992 121.886Z" fill="#6B6884"/>
<rect x="44.3916" y="111.033" width="13.1655" height="0.968518" fill="#EDE5D5"/>
<path d="M57.9165 85.3658V96.3001H58.9987V85.3447L57.9165 85.3658Z" fill="#EDE5D5"/>
<path d="M48.8354 85.4022V95.4998H49.9177V85.3828L48.8354 85.4022Z" fill="#EDE5D5"/>
<path d="M95.4574 117.065V104.731L94.6929 103.351H109.844L109.045 104.773V116.608L105.257 119.951L97.4868 120.125L95.4574 117.065Z" fill="#FFD47E"/>
<path d="M97.9398 107.302C97.9398 107.302 97.6145 106.379 96.9327 106.379C96.9327 106.379 96.0256 106.399 95.7754 107.302V112.697C95.7754 112.697 97.2142 113.031 97.9398 113.954V107.302Z" fill="#EDE5D5"/>
<path d="M103.632 104.922V119.678L105.676 119.638L109.043 116.437V104.938L103.632 104.922Z" fill="#FFA400"/>
<path d="M66.4385 84.3203V95.4912H67.2374V84.2988L66.4385 84.3203Z" fill="#A5BCD1"/>
<path d="M66.624 97.8413V110.794H67.4229V97.8164L66.624 97.8413Z" fill="#A5BCD1"/>
<path d="M58.9684 97.9336H57.8862V112.002H58.9684V97.9336Z" fill="#EDE5D5"/>
<path d="M25.316 129.866C25.316 129.866 22.2714 117.009 10.7108 118.631C10.7108 118.631 10.8084 105.406 0.0405273 103.941L0.0445595 129.874L25.316 129.866Z" fill="#3D6467"/>
<path d="M57.9375 53.8125L58.1875 52.75L57.75 3.78125L59.9375 52.75L60.4687 53.8603L57.9375 53.8125Z" fill="#B57502"/>
<path d="M57.0488 73.0495H58.6721V69.9108C58.6721 69.9108 58.5858 68.7207 57.8087 68.7207C57.0316 68.7207 57.0834 70.2518 57.0834 70.2518L57.0488 73.0495Z" fill="#6A6783"/>
<path d="M104.433 90.9053H100.104V95.2341H104.433V90.9053Z" fill="#FFD47E"/>
<path d="M104.433 90.9053H102.5V95.2341H104.433V90.9053Z" fill="#FFA400"/>
<path d="M100.859 94.1361H101.935V92.5661C101.935 92.5661 101.879 91.9717 101.363 91.9717C100.848 91.9717 100.882 92.7399 100.882 92.7399L100.859 94.1361Z" fill="#6A6783"/>
<path d="M103.172 94.1517H103.892V92.5817C103.892 92.5817 103.854 91.9873 103.509 91.9873C103.164 91.9873 103.187 92.7555 103.187 92.7555L103.172 94.1517Z" fill="#6A6783"/>
<path d="M56.8166 59.5211H57.3565V56.9287C57.3565 56.9287 57.3565 55.7334 57.0702 55.7334C56.7838 55.7334 56.8166 56.9661 56.8166 56.9661V59.5211Z" fill="#6A6783"/>
<path d="M57.842 60.0695C57.842 60.0695 57.8289 60.1187 57.8026 60.2099C57.7043 60.582 57.4684 61.6279 57.5011 62.7721L57.4844 64.797L57.25 66.5157L62.6094 66.5557C62.6094 66.5557 61.7344 65.7895 61.7344 64.547C61.7344 64.547 61.5513 60.7116 60.1094 60.0938L57.842 60.0625V60.0695Z" fill="#B57502"/>
<path d="M58.5643 74.0811C58.5643 74.0811 57.801 76.438 57.9119 77.8729L57.9097 82.7965H67.6813C67.6813 82.7965 66.0509 82.0215 65.7461 78.925C65.7461 78.925 65.9171 75.006 62.0243 74.0998L58.5643 74.0811Z" fill="#B57502"/>
<path d="M64.4058 77.3779H62.9628C62.9628 77.3779 61.8785 77.4948 61.1445 78.6018V83.081H65.4734V78.7049C65.4734 78.698 65.2982 77.6598 64.4058 77.3779Z" fill="#A5BCD1"/>
<path d="M58.9809 59.5211H59.5211V56.9287C59.5211 56.9287 59.5211 55.7334 59.2357 55.7334C58.9504 55.7334 58.9809 56.9661 58.9809 56.9661V59.5211Z" fill="#6A6783"/>
<path d="M99.563 101.727H102.269V98.6406C102.269 98.6406 101.745 97.9395 100.971 97.9395C100.197 97.9395 99.563 98.6406 99.563 98.6406V101.727Z" fill="#FFD47E"/>
<path d="M100.844 101.062C101.267 101.062 101.609 100.698 101.609 100.25C101.609 99.8019 101.267 99.4385 100.844 99.4385C100.421 99.4385 100.079 99.8019 100.079 100.25C100.079 100.698 100.421 101.062 100.844 101.062Z" fill="#6A6783"/>
<path d="M95.7754 101.727H97.9398V98.6406C97.9398 98.6406 97.5185 97.9395 96.9084 97.9395C96.2911 97.9395 95.7827 98.6406 95.7827 98.6406V101.727H95.7754Z" fill="#FFD47E"/>
<path d="M96.8312 101.187C97.2795 101.187 97.6428 100.823 97.6428 100.375C97.6428 99.9269 97.2795 99.5635 96.8312 99.5635C96.3829 99.5635 96.0195 99.9269 96.0195 100.375C96.0195 100.823 96.3829 101.187 96.8312 101.187Z" fill="#6A6783"/>
<path d="M104.974 101.727H107.138V98.6406C107.138 98.6406 106.717 97.9395 106.107 97.9395C105.489 97.9395 104.981 98.6406 104.981 98.6406V101.727H104.974Z" fill="#FFA400"/>
<path d="M106.109 101.187C106.437 101.187 106.703 100.823 106.703 100.375C106.703 99.9269 106.437 99.5635 106.109 99.5635C105.781 99.5635 105.515 99.9269 105.515 100.375C105.515 100.823 105.781 101.187 106.109 101.187Z" fill="#6A6783"/>
<path d="M108.221 101.727H108.762V98.6406C108.762 98.6406 108.657 97.9395 108.502 97.9395C108.347 97.9395 108.221 98.6406 108.221 98.6406V101.727Z" fill="#FFA400"/>
<path d="M108.491 101.203C108.594 101.203 108.678 100.84 108.678 100.392C108.678 99.9435 108.594 99.5801 108.491 99.5801C108.387 99.5801 108.304 99.9435 108.304 100.392C108.304 100.84 108.387 101.203 108.491 101.203Z" fill="#6A6783"/>
<path d="M107.679 107.413C107.679 107.413 107.274 106.406 106.417 106.406C106.417 106.406 105.284 106.428 104.974 107.413V114.143C104.974 114.143 106.431 114.229 107.679 114.108V107.413Z" fill="#A5BCD1"/>
<path d="M95.4574 104.974H109.045L109.844 103.351H94.6929L95.4574 104.974Z" fill="#A5BCD1"/>
<path d="M102.718 107.375C102.718 107.375 102.133 106.343 100.937 106.343C100.937 106.343 99.2809 106.25 99.0215 107.52L99.0215 114.031C99.0215 114.031 100.875 114.031 102.656 114.062L102.718 107.375Z" fill="#EDE5D5"/>
<path d="M97.3403 107.68H96.3164V112.55H97.3403V107.68Z" fill="#6A6783"/>
<path d="M101.925 107.711H99.7603V112.581H101.925V107.711Z" fill="#6A6783"/>
<path d="M107.219 107.68H105.391V113.091H107.219V107.68Z" fill="#6A6783"/>
<path d="M99.9696 90.8156C100.177 90.7605 100.701 89.8299 100.701 89.8299C100.701 89.8299 99.563 89.1062 99.563 88.217C99.563 87.3278 101.027 87.0245 101.027 87.0245L102.025 85.2254L102.234 81.1875L102.549 85.3564L103.488 86.99C103.488 86.99 104.974 87.3898 104.974 88.3962C104.974 89.4026 103.791 89.9127 103.791 89.9127L104.604 90.9053H99.9622V90.8156H99.9696Z" fill="#FFA400"/>
<path d="M57.6947 6.46652C58.2326 6.46652 58.6687 6.03046 58.6687 5.49254C58.6687 4.95462 58.2326 4.51855 57.6947 4.51855C57.1568 4.51855 56.7207 4.95462 56.7207 5.49254C56.7207 6.03046 57.1568 6.46652 57.6947 6.46652Z" fill="#EBAF4A"/>
<path d="M55 0.817383L57.8733 1.55869L58.4414 2.787L57.8733 4.19387L56.7315 3.43091L56.1417 1.98075L55 0.817383Z" fill="#EBAF4A"/>
<path d="M56.3281 78.3905C55.9219 77.7905 54.7292 77.4582 54.3281 77.3749C55.3594 77.2999 56.4141 77.9739 56.8125 78.3202V82.2655L56.3594 82.8905L56.3281 78.3905Z" fill="#A5BCD1"/>
<rect x="47.0938" y="95.4688" width="11.9375" height="0.84375" fill="#EDE5D5"/>
<rect x="58.9688" y="95.4688" width="9.875" height="0.84375" fill="#A5BCD1"/>
<rect x="47.7544" y="82.8154" width="11.2767" height="0.84375" fill="#EDE5D5"/>
<rect x="58.9688" y="82.8154" width="8.69623" height="0.84375" fill="#A5BCD1"/>
<path d="M63.6996 81.9585C64.1428 81.9585 64.5022 81.3528 64.5022 80.6057C64.5022 79.8586 64.1428 79.2529 63.6996 79.2529C63.2563 79.2529 62.897 79.8586 62.897 80.6057C62.897 81.3528 63.2563 81.9585 63.6996 81.9585Z" fill="#6A6783"/>
<path d="M55.6407 60.0527H57.937C57.5806 60.2995 57.5143 61.6635 57.5257 62.3146V63.8568C57.5257 64.3778 57.3658 65.8722 57.2858 66.5348L53.3281 66.516C54.3151 65.9402 54.3842 64.0625 54.2699 63.2057C54.2699 61.4236 55.1838 60.3612 55.6407 60.0527Z" fill="#FFA400"/>
<path d="M57.9688 53.8125L55.4062 53.7812L56.0938 52.9062L57.75 4.65625L58.1875 52.7812L57.9688 53.8125Z" fill="#FFA400"/>
<path d="M109.828 103.344H94.7188L95.5 104.969L109.047 104.984L109.828 103.344Z" fill="#9997AC"/>
<path d="M102.547 85.2969L102.234 81.2188L102.375 85.2812L102.734 87.25C102.88 87.3802 103.131 87.7957 102.812 88.3281C102.233 89.2953 100.177 88.9924 99.6094 88.5C99.6406 88.6875 100.112 89.6091 100.672 89.7812C101.165 89.933 102.142 89.8946 102.6 89.8373L102.5 90.9375L104.594 90.9062L103.812 89.9219C104.177 89.7292 104.959 89.2953 104.991 88.3707C105.015 87.6701 103.979 87.1562 103.469 86.9375L102.547 85.2969Z" fill="#B57502"/>
<path d="M38.7369 117.633C32.2938 118.632 30.8428 129.898 30.8428 129.898L130.083 129.834L130.051 121.653C130.051 121.653 129.836 108.249 119.498 108.249C107.734 108.249 108.022 116.136 108.022 116.136C104.636 116.296 102.546 118.872 102.546 118.872C101.579 115.129 97.8722 110.194 90.1336 110.194C82.395 110.194 79.546 118.872 79.546 118.872C79.546 118.872 75.9531 107.855 63.0755 107.855C50.198 107.855 48.246 121.653 48.246 121.653C45.3441 116.858 38.7369 117.633 38.7369 117.633Z" fill="#3D6467"/>
<path d="M74.9575 78.057L130.051 67.1849V39.1279C113.829 39.1279 101.994 54.8037 98.0407 62.6256C82.1247 59.871 76.0203 71.7654 74.9575 78.057Z" fill="#EDE5D5"/>
</svg>
