<svg width="130" height="130" viewBox="0 0 130 130" fill="none" xmlns="http://www.w3.org/2000/svg">
<rect x="0.149902" width="173.849" height="174" fill="#93A0E4"/>
<path d="M118.338 81.92C117.12 81.472 116.798 79.0267 116.595 78C116.595 78.9333 116.169 81.024 114.463 81.92C112.757 82.816 112.92 84.3467 113.123 85H119.943C120.144 84.1667 119.861 82.48 118.338 81.92Z" fill="#FFA400"/>
<path d="M119.632 86.4359V85H113.368V86.4359L113 86.9744L113.368 87.5128V90.3846L119.632 92V90.7436V87.5128L120 86.9744L119.632 86.4359Z" fill="#FFF2D8"/>
<path d="M124.822 117L125 109.756H122.689L124.111 107.138H120.2V106H117V108.683V116.463C119.89 115.39 123.538 116.374 124.822 117Z" fill="#E1DDFA"/>
<path d="M126.779 76.2353C125.295 75.7212 125.42 72.8824 125.42 72C125.25 75 124.879 75.5605 124.401 76.2353C121.342 77.8548 121.816 80.6016 122.533 81.5294L122.533 84H128.477L128.477 81.5294C130.005 79.4118 127.798 76.5882 126.779 76.2353Z" fill="#FFA400"/>
<path d="M0.150879 120.984H6.33822L10.5637 124.458L13.431 135.182L12.0728 141.979L0.150879 141.526V120.984Z" fill="#C3431B"/>
<path d="M76.3609 80.5059C77.689 79.5392 79.8319 78.9954 80.7374 78.8444L84.661 78.2402L84.9629 82.6204C80.6497 82.5773 71.9685 82.5171 71.2561 82.616C71.2473 82.6175 71.2386 82.619 71.23 82.6204C71.237 82.6189 71.2457 82.6174 71.2561 82.616C72.1839 82.4551 74.7166 81.7028 76.3609 80.5059Z" fill="#809E62"/>
<path d="M51.7685 50.113C33.9192 47.6844 32.4557 66.5935 31.8423 73.2552L174 50.7963V0.0244141H151.967C137.988 5.33865 131.374 15.1468 127.218 22.3542C118.465 20.5417 113.183 26.2813 112.263 30.1277C105.638 25.2705 98.4617 29.2844 95.7015 31.8985C67.3063 20.3906 59.129 41.2588 51.7685 50.113Z" fill="#E1DDFA" fill-opacity="0.6"/>
<path d="M0 85.49L66.7025 72.8025C68.3606 62.674 68.2524 44.9853 51.0078 42.8962C33.7632 40.8072 23.6091 49.9388 20.6877 54.7656C7.23308 55.3354 1.81607 62.3224 2.07244e-05 66.9119L0 85.49Z" fill="#EDE5D6"/>
<path d="M128.123 41.0208C130.571 34.9279 144.521 21.2344 164.04 21.2344C167.948 21.2344 171.237 22.2263 174 23.8835V56.8529L94.3192 68.9636C96.5829 48.1198 117.947 37.0909 128.123 41.0208Z" fill="#EDE5D6"/>
<path d="M18.1414 38.0624L85.3204 23.891C73.1098 -10.8032 35.3305 4.04348 31.8698 28.1558C22.5508 26.6249 18.8568 35.8042 18.1414 38.0624Z" fill="#EDE5D6"/>
<path d="M67.1553 36.9439L63.2317 13.4424L59.9116 37.1559L67.1553 36.9439Z" fill="#447058"/>
<path d="M128.714 88.2079L128.457 84H122.286V87.7129L121.771 89.4455V93.1584L121 93.901V107.02C121.411 107.218 121.343 107.927 121.257 108.257V109H124.343L124.857 107.515L125.371 109H128.714L130 107.02V93.901L129.229 93.1584V89.198L128.714 88.2079Z" fill="#FFF2D8"/>
<path d="M63.6625 12.6771L63.2314 9.96875L62.8002 12.0833L61.2695 11.6302L62.8002 13.5937L62.1534 16.0104L63.2314 15.1771L64.2877 16.0104L63.9859 13.8958L64.7405 13.3021L63.6625 12.6771Z" fill="#D63C0C"/>
<path d="M134.763 122.948L77.7188 122.042V142.584L134.763 135.787V122.948Z" fill="#C4431B"/>
<path d="M55.3843 69.1774L59.8445 45.8537C63.4127 44.327 66.7119 45.2176 67.9155 45.8537L72.5881 68.3293L55.3843 69.1774Z" fill="#447058"/>
<path d="M79.228 87.1963V83.996C67.412 80.5824 54.326 82.7159 49.26 84.2093L49.0459 89.7565L50.7584 96.797L50.1162 142.454V149.708L77.9437 150.135V95.9436L79.228 89.7565V87.1963Z" fill="#DF4F21"/>
<path d="M66.6317 55.0874L65.0289 51.0518L63.7591 55.2998L63.6689 61.1243L66.6317 61.0347V55.0874Z" fill="#D63C0C"/>
<path d="M69.1711 55.5122L70.6525 52.3262L71.0757 55.7246V61.0347H69.1711V55.5122Z" fill="#D63C0C"/>
<path d="M54.9919 78.2393V67.8315L54.7803 66.7695L55.6268 68.2563L56.05 66.1323L57.3197 67.8315L58.5895 65.7075L60.9173 67.4067L62.6103 65.0703L64.5149 67.1943L65.9962 65.0703L67.4776 67.1943L68.7473 65.7075L70.017 67.1943L71.0752 65.9199L72.1333 67.4067L73.1914 66.3447V77.3896L54.9919 78.2393Z" fill="#DF4F21"/>
<path d="M73.1913 66.3442V77.3892H67.4775V67.1938L68.7473 65.707L70.017 67.1938L71.0751 65.9194L72.1332 67.4062L73.1913 66.3442Z" fill="#C54A25"/>
<path d="M59.8004 54.9977L58.5306 51.4199L57.3823 55.0874V61.2471H60.1022L59.8004 54.9977Z" fill="#D63C0C"/>
<path d="M100.285 89.5299L124.342 91.4557V106.22L125.407 109.43L107.098 113.281L77.7188 102.582V96.1632L79.209 89.5299V87.6042L84.7442 88.0321V82.4688L100.285 83.9666V89.5299Z" fill="#FFA400"/>
<path d="M67.759 32.5334V35.8957V46.8232H59.6099V32.9537L60.2532 36.1059L61.5399 32.5334L62.8266 35.8957L64.3278 32.3232L66.0434 35.6856L67.759 32.5334Z" fill="#DF4F21"/>
<path d="M67.7591 32.5322V35.8945V46.8221H66.0435V41.2532V35.6844L67.7591 32.5322Z" fill="#C54A25"/>
<path d="M84.5296 103.951C81.8052 100.564 78.8539 101.411 77.7188 102.258V123.099H127.949V121.102L127.31 120.043H129.438V116.02L131.443 108.75V106.635C124.652 103.917 120.967 106.664 119.974 108.146C116.568 105.944 112.142 106.322 110.014 107.24C109.091 105.546 108.203 103.612 103.826 103.01C100.959 102.616 98.1356 103.865 97.639 105.276C93.1116 98.7813 86.4716 101.198 84.5296 103.951Z" fill="#3D6467"/>
<path d="M41.0475 88.8122L49.3907 87.3018V89.7619L50.8567 96.5614V101.236C45.6629 101.576 44.9229 105.769 45.2021 107.823C43.6942 108.503 43.4569 109.523 43.5267 109.948L42.0607 112.073H40.5947L41.0475 88.8122Z" fill="#FCBB39"/>
<path d="M109.116 87.5388L100.355 86.6982V89.6403L124.501 91.5316L109.116 87.5388Z" fill="#447058"/>
<path d="M84.8732 82.4944L84.6611 78.2504C90.8118 78.0382 94.6294 81.2212 95.4778 82.07C96.1564 82.749 99.0126 83.6261 100.356 83.9798L84.8732 82.4944Z" fill="#447058"/>
<path d="M88.5847 78.6259C88.2359 76.5315 85.6782 75.2806 84.443 74.917C81.4784 76.1388 80.7373 78.0441 80.7373 78.8441L84.443 78.4077L88.5847 78.6259Z" fill="#FFA400"/>
<path d="M75.0024 82.4688H84.9625V88.2083L79.1164 87.7668V84.014L75.0024 83.131V82.4688Z" fill="#FCBB39"/>
<path d="M84.9627 88.2083L78.9263 85.1875L79.1419 87.7768L84.9627 88.2083Z" fill="#447058"/>
<path d="M137.48 107.239L138.687 116H129.331L131.292 107.239H137.48Z" fill="#719C46"/>
<path d="M119.003 103C120.54 103.874 121.094 105.49 120.987 106H117.145C116.504 105.126 118.149 103.219 119.003 103Z" fill="#FFA400"/>
<path d="M142.309 120.229V116.207L138.848 116H129.331V120.229H142.309Z" fill="#EB3D00"/>
<path d="M144.422 123.25L145.327 119.927L127.218 120.139L127.857 121.413V123.099L134.763 122.899H136.592V136.39L144.723 135.635L144.422 123.25Z" fill="#C3431B"/>
<path d="M21.0188 142.646L50.2531 143.49L50.555 120.984L21.0188 121.135L17.6045 122.612L16.751 135.476L21.0188 142.646Z" fill="#C3431B"/>
<path d="M5.28174 100.52L40.8967 98.0264V113.131C41.2507 114.124 41.2666 115.213 40.7568 115.213C40.1195 115.213 34.5965 113.935 33.9592 113.509C33.4494 113.169 16.6111 108.967 8.2557 106.908L5.28174 100.52Z" fill="#FCBB39"/>
<path d="M2.26367 99.715L40.8968 94.25V98.1771L6.08453 100.594L2.26367 99.715Z" fill="#719C46"/>
<path d="M40.8965 88.8118L49.3475 84.8848V87.2846L40.8965 88.8118Z" fill="#719C46"/>
<path d="M12.2503 88.3368C8.45096 90.3232 9.65825 93.7972 10.4563 94.2503H14.7892C16.2983 93.193 15.8456 90.1722 13.4463 88.3368L12.8483 83.9795L12.2503 88.3368Z" fill="#FFA400"/>
<path d="M14.7891 98.4792V94.25H10.5636L10.4849 98.8899L14.7891 98.4792Z" fill="#FFF2D8"/>
<path d="M45.2079 107.86C44.3577 102.586 48.8209 101.267 51.1587 101.267L50.7336 121.045H21.192C21.192 122.576 20.2002 124.235 19.7043 124.873C21.5746 127.425 19.3501 130.473 18.0041 131.678C18.5708 131.465 20.1294 131.465 21.8296 133.166C23.5299 134.868 21.6879 136.711 20.5544 137.419C22.9348 139.631 20.9795 143.445 19.7043 145.075C16.9414 146.989 6.74003 147.414 6.74003 143.161C6.74003 139.759 10.1405 137.49 11.8407 136.782C11.699 136.427 11.3307 135.633 10.9906 135.293C4.86977 135.123 5.60654 130.544 6.74003 128.275C3.84963 125.383 5.25232 122.25 6.31497 121.045H0.150893L0.150879 98.479C6.74003 97.5728 9.29038 101.197 12.4783 103.819C26.0802 94.8026 33.7313 103.551 35.8566 109.506C37.5568 108.655 40.2488 110.569 41.3823 111.632C42.0624 108.4 44.216 108.073 45.2079 107.86Z" fill="#3D6467"/>
<path d="M52.6675 84.8854V77.4438C59.3041 73.8718 70.3226 75.3885 75.0023 76.5933V84.2476C67.1745 82.5466 56.8508 83.9641 52.6675 84.8854Z" fill="#DF4F21"/>
<path d="M75.0023 76.5935V84.2477C72.3433 83.67 69.3964 83.452 66.5 83.4522V75.3076C69.9256 75.5214 73.028 76.0852 75.0023 76.5935Z" fill="#C54A25"/>
<path d="M58.8007 82.1245L58.8007 76.9785C58.8007 76.4812 58.3977 76.0781 57.9004 76.0781C57.4032 76.0781 57.0001 76.4812 57.0001 76.9785L57 82.1245H58.8007Z" fill="#983028"/>
<path d="M63.7602 74.9152C63.1258 74.9092 62.6084 75.4218 62.6084 76.0561V82.1573H64.8903V76.0561C64.8903 75.4302 64.3861 74.9212 63.7602 74.9152Z" fill="#983028"/>
<path d="M69.6574 76.0542C69.0268 76.0405 68.5083 76.5479 68.5083 77.1787V82.4043H70.7578V77.1787C70.7578 76.567 70.2689 76.0674 69.6574 76.0542Z" fill="#983028"/>
<path d="M79.228 87.1963V83.996C74.8351 82.7269 69.2666 82.2245 65 82.1709V151.404L77.9437 150.135V95.9437L79.228 89.7565V87.1963Z" fill="#C54A25"/>
</svg>
