<svg width="130" height="130" viewBox="0 0 130 130" fill="none" xmlns="http://www.w3.org/2000/svg">
<rect width="130" height="130" fill="#97A3E4"/>
<path d="M0.0649414 53.2842L129.843 31.3749V25.9747C129.843 25.9747 120.597 15.1797 106.932 16.619C93.2674 18.0584 88.59 28.1337 88.59 28.1337C88.59 28.1337 60.9796 14.8063 37.3438 16.3593C13.3834 17.9393 0.0649414 32.1 0.0649414 32.1V53.2842Z" fill="#EDE5D6"/>
<path d="M15.6978 54.8246L24.4902 52.065L48.018 22.8833L70.6102 52.0433L78.9755 54.8246H15.6978Z" fill="#9997AC"/>
<path d="M47.3366 57.6115C64.8103 57.6115 78.9755 56.3638 78.9755 54.8248C78.9755 53.2857 64.8103 52.0381 47.3366 52.0381C29.863 52.0381 15.6978 53.2857 15.6978 54.8248C15.6978 56.3638 29.863 57.6115 47.3366 57.6115Z" fill="#63607D"/>
<path d="M129.843 70.749L67.5498 79.477C67.5498 79.477 73.6656 66.7232 85.5295 65.0025C97.3934 63.2818 105.131 68.682 105.131 68.682C105.131 68.682 122.906 64.7211 129.843 70.749Z" fill="#EDE5D6"/>
<path d="M18.834 75.4406V54.7055C18.834 54.7055 26.1394 52.0649 49.2724 52.0649C72.4054 52.0649 75.8878 54.9436 75.8878 54.9436V108.448L77.2072 109.887V117.971H18.834V111.083V75.4406Z" fill="#DE5327"/>
<path d="M48.9426 75.6081H52.9009V73.0649C52.9009 73.0649 52.69 70.749 50.5919 70.749C48.4938 70.749 48.9426 75.6081 48.9426 75.6081Z" stroke="#FF33F5" stroke-width="0.25" stroke-miterlimit="10"/>
<path d="M62.1582 90.1804V86.582C62.1582 86.582 62.3583 84.3311 64.9538 84.3311C67.5494 84.3311 67.5494 86.582 67.5494 86.582V90.1804H62.1582Z" stroke="#FF33F5" stroke-width="0.25" stroke-miterlimit="10"/>
<path d="M41.3018 89.6446V87.2584C41.3018 87.2584 41.1234 85.8623 40.0906 85.8623C39.0577 85.8623 38.9658 87.2584 38.9658 87.2584V89.6446H41.3018Z" fill="#983028"/>
<path d="M23.452 78.2164V72.2318C23.452 72.2318 23.3601 70.0728 22.2407 70.0728C21.116 70.0728 21.2512 72.5348 21.2512 72.5348V78.2164H23.452Z" stroke="#FF33F5" stroke-width="0.25" stroke-miterlimit="10"/>
<path d="M75.8877 108.448C75.8877 108.448 81.6953 99.7685 92.7264 103.664C103.19 107.36 101.903 119.367 101.903 119.367C101.903 119.367 106.58 118.648 108.976 120.807C111.371 122.966 111.42 126.169 111.42 126.169C111.42 126.169 99.145 117.977 77.2071 117.977V109.893L75.8877 108.448Z" fill="#3D6567"/>
<path d="M75.8878 56.2639C75.8878 56.2639 40.4042 56.1448 28.5349 62.979V117.971H18.834V54.7055C18.834 54.7055 27.0479 52.0649 48.0179 52.0649C48.0179 52.0649 69.1717 51.5833 75.8878 54.9436V56.2639Z" fill="#B33F36"/>
<path d="M0.0649414 74.2558C0.0649414 74.2558 7.42986 71.1391 17.7418 74.9755C28.0538 78.8119 28.2917 93.0916 28.2917 93.0916C28.2917 93.0916 33.326 92.491 35.8459 94.1738C38.3658 95.8513 40.28 99.6931 38.4847 103.172C38.4847 103.172 5.28852 95.137 0.0703488 94.8935V74.2558H0.0649414Z" fill="#3D6567"/>
<path d="M43.8164 50.4146L48.018 22.8833L24.4902 52.065C24.4902 52.065 34.9158 50.1441 43.8164 50.4146Z" fill="#63607D"/>
<path d="M0.0649414 93.5732C0.0649414 93.5732 50.1107 99.5687 75.5256 118.047C75.5256 118.047 100.102 116.153 116.763 129.935H0.0649414V93.5732Z" fill="#809E62"/>
<path d="M48.0181 19.4795V22.8993H51.733L50.9002 20.1126L48.0181 19.4795Z" fill="#63607D"/>
<path d="M0.0649414 97.8315C0.0649414 97.8315 16.3034 101.008 15.3247 108.188C14.5785 113.664 28.8919 121.31 50.592 129.935H22.9005C22.9005 129.935 7.19734 116.965 8.99261 108.811C10.75 100.835 0.0649414 98.4917 0.0649414 98.4917V97.8315Z" fill="#FFD47E"/>
<path d="M21.4026 54.089V62.0649H22.3489V53.8726L21.4026 54.089Z" fill="#983028"/>
<path d="M25.8259 53.3474V61.794H27.048V53.1851L25.8259 53.3474Z" fill="#983028"/>
<path d="M32.2175 52.6658V61.1828H33.7046V52.5576L32.2175 52.6658Z" fill="#983028"/>
<path d="M41.5289 52.2168H39.7283V61.1829H41.5289V52.2168Z" fill="#983028"/>
<path d="M47.3367 52.0435V60.9392H49.6186V52.0651L47.3367 52.0435Z" fill="#983028"/>
<path d="M55.2368 52.168V61.1827H57.4863V52.2167L55.2368 52.168Z" fill="#983028"/>
<path d="M64.4077 52.4385H62.7422V60.9392H64.4077V52.4385Z" fill="#983028"/>
<path d="M68.6743 53.0283V61.686H69.7558V53.147L68.6743 53.0283Z" fill="#983028"/>
<path d="M73.541 54.1104V61.5277L74.0817 61.6858V54.1774L73.541 54.1104Z" fill="#983028"/>
<path d="M0.0649414 13.6196L66.6574 0.0649414H0.0649414V13.6196Z" fill="#E1DDFA" fill-opacity="0.6"/>
<path d="M75.8879 108.448H58.4165C58.4165 108.448 67.766 112.614 75.5256 118.047L77.2019 117.977V109.892L75.8879 108.448Z" fill="#EDE5D5"/>
<path d="M63.5752 84.6122C63.5752 84.6122 64.9541 84.4553 64.9541 88.1131V90.1801H67.5497V86.5818C67.5497 86.5818 67.4469 84.0332 64.9541 84.3308L63.5752 84.6122Z" fill="#983028"/>
<path d="M49.824 71.0361C49.824 71.0361 50.5918 71.3553 50.5918 72.5403V75.6138H52.9008V73.0706C52.9008 73.0598 52.2357 69.8511 49.824 71.0361Z" fill="#983028"/>
</svg>
