<svg width="130" height="130" viewBox="0 0 130 130" fill="none" xmlns="http://www.w3.org/2000/svg">
<rect width="130" height="130" fill="#97A3E4"/>
<path d="M90.7613 -1.14844L14.083 27.4949C14.083 27.4949 14.4134 20.0091 22.3163 14.4461C22.3163 14.4461 22.9013 4.56615 26.9151 -1.14302H90.7613V-1.14844Z" fill="#E1DDFA" fill-opacity="0.6"/>
<path d="M69.6201 79.2402V104.699H141.532V87.1702H71.1259L69.6201 79.2402Z" fill="#DE5327"/>
<path d="M93.7568 88.2218V78.8076C93.7568 78.8076 97.0881 78.8618 97.0881 81.153C97.0881 81.153 97.1802 78.8076 100.419 78.8076V88.2218H93.7568Z" stroke="#FF33F5" stroke-width="0.25" stroke-miterlimit="10"/>
<path d="M-7.5835 68.429L112.26 37.3536C112.26 37.3536 94.4232 11.592 61.8744 19.224C29.3257 26.8561 18.969 51.6645 18.969 51.6645C18.969 51.6645 -2.26975 53.4682 -7.5835 68.429Z" fill="#EDE5D6"/>
<path d="M100.419 82.502H93.7568V83.282H100.419V82.502Z" stroke="#FF33F5" stroke-width="0.25" stroke-miterlimit="10"/>
<path d="M84.7275 88.2218V78.8076C84.7275 78.8076 88.0588 78.8618 88.0588 81.153C88.0588 81.153 88.1509 78.8076 91.39 78.8076V88.2218H84.7275Z" fill="#DE5327"/>
<path d="M91.39 82.502H84.7275V83.282H91.39V82.502Z" fill="#B33F36"/>
<path d="M75.7139 88.2218V78.8076C75.7139 78.8076 79.0451 78.8618 79.0451 81.153C79.0451 81.153 79.1372 78.8076 82.3764 78.8076V88.2218H75.7139Z" fill="#DE5327"/>
<path d="M82.3764 82.502H75.7139V83.282H82.3764V82.502Z" fill="#B33F36"/>
<path d="M66.9062 88.2218V78.8076C66.9062 78.8076 70.2375 78.8618 70.2375 81.153C70.2375 81.153 70.3296 78.8076 73.5688 78.8076V88.2218H66.9062Z" fill="#DE5327"/>
<path d="M73.5688 82.502H66.9062V83.282H73.5688V82.502Z" fill="#B33F36"/>
<path d="M102.689 88.2218V78.8076C102.689 78.8076 106.02 78.8618 106.02 81.153C106.02 81.153 106.112 78.8076 109.351 78.8076V88.2218H102.689Z" stroke="#FF33F5" stroke-width="0.25" stroke-miterlimit="10"/>
<path d="M109.351 82.502H102.689V83.282H109.351V82.502Z" stroke="#FF33F5" stroke-width="0.25" stroke-miterlimit="10"/>
<path d="M111.859 88.2218V78.8076C111.859 78.8076 115.191 78.8618 115.191 81.153C115.191 81.153 115.283 78.8076 118.522 78.8076V88.2218H111.859Z" stroke="#FF33F5" stroke-width="0.25" stroke-miterlimit="10"/>
<path d="M118.522 82.502H111.859V83.282H118.522V82.502Z" stroke="#FF33F5" stroke-width="0.25" stroke-miterlimit="10"/>
<path d="M121.138 88.2218V78.8076C121.138 78.8076 124.469 78.8618 124.469 81.153C124.469 81.153 124.562 78.8076 127.801 78.8076V88.2218H121.138Z" stroke="#FF33F5" stroke-width="0.25" stroke-miterlimit="10"/>
<path d="M45.9821 42.1475C52.372 42.1475 57.5521 41.4199 57.5521 40.5225C57.5521 39.625 52.372 38.8975 45.9821 38.8975C39.5922 38.8975 34.4121 39.625 34.4121 40.5225C34.4121 41.4199 39.5922 42.1475 45.9821 42.1475Z" fill="#63607D"/>
<path d="M127.801 82.502H121.138V83.282H127.801V82.502Z" stroke="#FF33F5" stroke-width="0.25" stroke-miterlimit="10"/>
<path d="M55.9971 40.5225V42.1475L54.8108 44.5037V45.8254V58.7712H55.6721H60.7692V67.9687L60.2275 71.2025V81.6133H32.4021V70.9533L31.9688 67.9687V58.5546H37.3962V45.1321L35.5979 42.6133V41.1237C35.5979 41.1237 38.5446 39.5908 46.3663 39.5908C54.1879 39.5908 55.9971 40.5225 55.9971 40.5225Z" fill="#DE5327"/>
<path d="M141.532 104.699H69.6204V111.654L23.8333 111.519V107.185H0V129.935L141.315 130.158L141.532 104.699Z" fill="#809E62"/>
<path d="M47.97 72.4971H44.6279V77.8921H47.97V72.4971Z" fill="#B33F36"/>
<path d="M61.75 80.1016H30.875V88.2266H61.75V80.1016Z" fill="#B33F36"/>
<path d="M45.3483 -10.3564V1.76606C45.3483 1.76606 44.4058 1.7823 44.4058 2.81147C44.4058 3.84064 45.1587 3.83522 45.1587 3.83522L45.1316 5.23814H45.7762V3.86231C45.7762 3.86231 46.4208 3.64564 46.4208 2.75731C46.4208 1.86897 45.6678 1.76064 45.6678 1.76064L45.5866 -10.351H45.3483V-10.3564Z" fill="#FFA400"/>
<path d="M59.5556 103.394L59.583 75.7739C58.1538 75.8009 56.9272 76.6463 56.3796 77.8579C55.8155 76.6248 54.567 75.7686 53.1104 75.7686C51.6538 75.7686 50.3998 76.6248 49.8412 77.8579C49.2772 76.6248 48.0287 75.7686 46.5721 75.7686C45.1154 75.7686 43.8614 76.6248 43.3029 77.8579C42.7389 76.6248 41.4903 75.7686 40.0337 75.7686C38.5771 75.7686 37.3231 76.6248 36.7646 77.8579C36.217 76.6571 35.0177 75.8224 33.6049 75.7793L33.583 103.394" fill="#DE5327"/>
<g clip-path="url(#clip0)">
<path fill-rule="evenodd" clip-rule="evenodd" d="M36.7133 77.5662C37.3864 76.4858 38.5833 75.7686 39.9476 75.7686C41.3115 75.7686 42.5081 76.4854 43.1814 77.5652C43.8547 76.4854 45.0512 75.7686 46.4151 75.7686C47.7792 75.7686 48.9753 76.4896 49.6484 77.5659C50.3216 76.4857 51.5184 75.7686 52.8826 75.7686C54.2467 75.7686 55.4427 76.4896 56.1159 77.5659C56.7766 76.5069 57.9455 75.7996 59.2799 75.774L59.2903 76.3156C57.9843 76.3406 56.8639 77.126 56.3639 78.2511L56.1172 78.8061L55.8692 78.2517C55.3584 77.1099 54.2121 76.3102 52.8826 76.3102C51.5526 76.3102 50.4069 77.105 49.8963 78.2513L49.6494 78.8055L49.4017 78.2517C48.8909 77.1099 47.7446 76.3102 46.4151 76.3102C45.0851 76.3102 43.9394 77.105 43.4288 78.2513L43.1814 78.8067L42.934 78.2513C42.4234 77.105 41.2776 76.3102 39.9476 76.3102C38.6176 76.3102 37.4719 77.105 36.9613 78.2513L36.7147 78.8048L36.4668 78.2519C35.9662 77.1357 34.8708 76.3609 33.5854 76.3209L33.6023 75.7795C34.9154 75.8204 36.0583 76.5196 36.7133 77.5662Z" fill="#B33F36"/>
</g>
<path d="M43.3223 27.0837L45.1315 5.23828H45.7761L48.0673 26.8941C48.0673 26.8941 49.7411 26.8399 49.7411 28.2429C49.7411 28.2429 56.1598 30.507 56.1598 35.6041V39.9212C56.1598 39.9212 54.2694 38.8974 46.2365 38.8974C38.2036 38.8974 35.4248 40.3004 35.4248 40.3004V36.2541C35.4248 36.2541 36.0477 30.4583 41.8977 28.3512C41.8923 28.3512 41.784 27.2191 43.3223 27.0837Z" fill="#2E81A5"/>
<path d="M45.1315 5.23828L43.3223 27.0837C41.784 27.2191 41.8923 28.3512 41.8977 28.3512C36.0477 30.4583 35.4248 36.2541 35.4248 36.2541V40.3004C35.4248 40.3004 37.6456 39.0003 41.8977 39.0003V34.9378C41.7695 33.4356 41.875 30.0152 43.3223 28.3512C43.3259 27.9287 43.5498 27.0837 44.4165 27.0837L45.4998 5.23828H45.1315Z" fill="#216A89"/>
<path d="M38.9834 103.269H33.583V111.519H59.583V103.08H53.538C53.538 103.08 51.4905 99.25 46.3663 99.25C41.2422 99.25 38.9834 103.269 38.9834 103.269Z" fill="#EDE5D5"/>
<path d="M46.4804 40.7012C46.4804 40.7012 49.0154 41.8874 49.0154 45.6087V58.5545H43.7288V45.7983C43.7288 45.7983 43.6475 41.5624 46.4804 40.7012Z" fill="#983028"/>
<path d="M39.9912 111.654V108.491C39.9912 108.491 40.0995 101.839 46.7133 101.839C53.327 101.839 53.2945 108.241 53.2945 108.241V111.561H39.9912V111.654Z" fill="#63607D"/>
<path d="M48.5117 91.9697H44.6279V96.8772H48.5117V91.9697Z" fill="#B33F36"/>
<path d="M39.233 87.2735H40.6738C40.6738 87.2735 40.923 85.941 39.9913 85.8706C39.0596 85.8002 39.233 87.2735 39.233 87.2735Z" fill="#B33F36"/>
<path d="M45.6407 87.2735H47.0815C47.0815 87.2735 47.3307 85.941 46.399 85.8706C45.4673 85.8002 45.6407 87.2735 45.6407 87.2735Z" fill="#B33F36"/>
<path d="M60.7583 58.5547H31.9688V64.4047H60.7583V58.5547Z" fill="#B33F36"/>
<path d="M52.0757 87.2735H53.5166C53.5166 87.2735 53.7657 85.941 52.8341 85.8706C51.9024 85.8002 52.0757 87.2735 52.0757 87.2735Z" fill="#B33F36"/>
<path d="M56.1597 65.3418V58.8418C56.1597 58.8418 58.4618 58.8797 58.4618 60.4614C58.4618 60.4614 58.5268 58.8418 60.7638 58.8418V65.3418H56.1597Z" fill="#DE5327"/>
<path d="M49.8765 65.0547V58.5547C49.8765 58.5547 52.1785 58.5926 52.1785 60.1743C52.1785 60.1743 52.2436 58.5547 54.4806 58.5547V65.0547H49.8765Z" fill="#DE5327"/>
<path d="M43.9072 65.0547V58.5547C43.9072 58.5547 46.2093 58.5926 46.2093 60.1743C46.2093 60.1743 46.2743 58.5547 48.5114 58.5547V65.0547H43.9072Z" fill="#DE5327"/>
<path d="M38.0088 65.0547V58.5547C38.0088 58.5547 40.3109 58.5926 40.3109 60.1743C40.3109 60.1743 40.3759 58.5547 42.613 58.5547V65.0547H38.0088Z" fill="#DE5327"/>
<path d="M31.9688 65.0547V58.5547C31.9688 58.5547 34.2708 58.5926 34.2708 60.1743C34.2708 60.1743 34.3358 58.5547 36.5729 58.5547V65.0547H31.9688Z" fill="#DE5327"/>
<path d="M43.7285 47.1468C43.7285 47.1468 44.3135 44.9151 45.9818 43.8047C45.9818 43.8047 48.7281 44.7743 49.0152 47.7589V58.5543H43.7285V47.1468Z" fill="#97A3E4"/>
<path d="M43.7285 47.1468C43.7285 47.1468 44.3135 44.9151 45.9818 43.8047C45.9818 43.8047 48.7281 44.7743 49.0152 47.7589V53.5601L43.7285 55.1851V47.1468Z" fill="#EDE5D5"/>
<path d="M60.2329 71.2025H32.4021L31.9688 67.9688H60.7692L60.2329 71.2025Z" fill="#B33F36"/>
<path d="M23.8333 88.2266V107.185H0V88.343H22.6197L23.8333 88.2266Z" fill="#DE5327"/>
<path d="M23.833 88.2266V107.185H15.708V88.343H22.6952L23.833 88.2266Z" fill="#B33F36"/>
<path d="M23.2915 76.9173V92.8813L23.8332 94.7272L23.9148 111.519H33.5832V87.3565H30.8748V76.9173C30.8748 76.9173 27.5286 76.8901 27.162 79.2555C27.162 79.2609 26.2821 76.7984 23.2915 76.9173Z" fill="#DE5327"/>
<path d="M25.8213 87.6255C25.8213 87.6255 25.7129 85.9463 26.8179 85.8705C27.9229 85.7946 27.8417 87.6255 27.8417 87.6255H25.8213Z" fill="#B33F36"/>
<path d="M23.2915 93.0919H25.047C25.047 93.0919 25.047 91.4798 26.9125 91.4798C28.7779 91.4798 28.7779 93.2894 28.7779 93.2894H30.0303C30.0303 93.2894 30.1771 91.4051 31.8801 91.4798C31.8801 91.4798 32.8129 91.3731 33.5832 92.3819V111.518H29.5849L29.5207 103.393L29.5849 95.4138L23.8332 95.2682V94.7266L23.2915 93.0919Z" fill="#B33F36"/>
<path d="M30.8748 81.25H23.2915V81.7917H30.8748V81.25Z" fill="#B33F36"/>
<path d="M141.375 101.769H69.604V106.644H141.375V101.769Z" fill="#EDE5D5"/>
<path d="M23.2913 89.3103V80.0479C23.2913 80.0479 20.0847 80.102 20.0847 82.3933C20.0847 82.3933 19.9926 80.0479 16.7534 80.0479V89.3103H23.2913Z" fill="#B33F36"/>
<path d="M14.1371 89.462V80.0479C14.1371 80.0479 10.8059 80.102 10.8059 82.3933C10.8059 82.3933 10.7138 80.0479 7.47461 80.0479V89.462H14.1371Z" fill="#DE5327"/>
<path d="M7.4752 84.5264L14.1377 84.5264L14.1377 83.7464L7.4752 83.7464L7.4752 84.5264Z" fill="#B33F36"/>
<path d="M4.32217 89.462V80.0479C4.32217 80.0479 0.990917 80.102 0.990917 82.3933C0.990917 82.3933 0.898834 80.0479 -2.34033 80.0479V89.462H4.32217Z" fill="#DE5327"/>
<path d="M-2.34316 84.5264L4.31934 84.5264L4.31934 83.7464L-2.34316 83.7464L-2.34316 84.5264Z" fill="#B33F36"/>
<path d="M23.8333 102.311H0V107.186H23.8333V102.311Z" fill="#EDE5D5"/>
<path d="M23.833 102.311H15.708V107.186H23.833V102.311Z" fill="#A5BCD1"/>
<path d="M23.833 103.394H33.583V111.519H24.0761H23.833V103.394Z" fill="#EDE5D5"/>
<path d="M59.583 88.2268H61.7497V76.8789C61.7497 76.8789 65.5197 77.4585 65.5197 79.7227C65.5197 79.7227 66.1155 76.9981 69.6201 76.8789V111.654H59.583V88.2268Z" fill="#DE5327"/>
<path d="M29.5205 103.394L33.583 103.394V111.519H29.7913H29.5205V103.394Z" fill="#A5BCD1"/>
<path d="M69.6201 94.4231H68.4338V92.8848C68.4338 92.8848 67.9463 91.3193 66.4947 91.3193C65.043 91.3193 64.5555 92.8739 64.5555 92.8739V94.4285H63.4234V92.5164C63.4234 92.5164 62.7247 91.3247 61.3218 91.3247C59.9188 91.3247 59.583 92.2889 59.583 92.2889L59.583 96.1293L59.583 111.518H60.6663V96.1293H69.6255V94.4231H69.6201Z" fill="#B33F36"/>
<path d="M69.6201 103.675H59.583V111.659H69.6201V103.675Z" fill="#A5BCD1"/>
<path d="M64.924 87.2731V86.2493C64.924 86.2493 64.7615 85.2256 65.9478 85.2256C67.134 85.2256 66.9011 87.2731 66.9011 87.2731H64.924Z" fill="#B33F36"/>
<path d="M121.302 44.9104C121.302 44.9104 95.728 49.3025 95.728 72.2306C95.728 72.2306 86.125 76.3511 86.125 89.3135C86.125 98.1785 91.6399 108.655 100.203 111.101C100.203 111.101 102.212 125.38 121.302 134.268C121.302 134.268 142.988 133.831 142.988 114.264C142.988 94.6981 142.988 52.3591 142.988 52.3591L143 35.2575C142.988 35.2575 127.53 30.8448 121.302 44.9104Z" fill="#3D6567"/>
<path d="M15.8665 101.274C13.6224 89.9405 2.90911 85.0084 -2.16699 83.959V130.001H47.1247C42.6363 107.019 24.4158 101.274 15.8665 101.274Z" fill="#3D6567"/>
<path d="M69.6042 81.25H61.75V81.7917H69.6042V81.25Z" fill="#B33F36"/>
<defs>
<clipPath id="clip0">
<rect width="25.7075" height="3.03333" fill="white" transform="translate(33.583 75.7686)"/>
</clipPath>
</defs>
</svg>
