<svg width="130" height="130" viewBox="0 0 130 130" fill="none" xmlns="http://www.w3.org/2000/svg">
<mask id="mask0" mask-type="alpha" maskUnits="userSpaceOnUse" x="0" y="0" width="130" height="130">
<rect width="130" height="130" rx="20" fill="#C4C4C4"/>
</mask>
<g mask="url(#mask0)">
<path d="M130 0H0V130H130V0Z" fill="#97A3E4"/>
<path d="M160.705 116.335L71.4733 84.6367C77.2473 71.6342 94.9182 61.6813 107.956 64.8948C117.585 67.2681 124.661 80.2553 126.43 85.6096C146.446 81.1616 151.046 101.743 151.046 101.743C160.818 103.818 160.705 116.335 160.705 116.335Z" fill="#E1DDFA" fill-opacity="0.6"/>
<path d="M80.7526 25.4474L138.059 51.1624C138.059 51.1624 132.54 28.0176 123.21 26.6081C123.21 26.6081 114.562 0.91103 98.3191 -2.05961C98.3191 -2.05961 83.3877 -6.11471 77.0961 6.89463C77.0961 6.89463 63.5817 0.0513163 54.3585 14.1262L80.7526 25.4474Z" fill="#EDE6D7"/>
<path d="M-20.0472 69.2695C-19.8155 72.4966 36.97 85.0826 36.97 85.0826C36.97 85.0826 35.0933 71.9963 21.3135 70.1916C21.3135 70.1916 19.5087 57.3284 4.51413 54.5305C-10.4804 51.7325 -20.0472 69.2695 -20.0472 69.2695Z" fill="#EDE6D7"/>
<path d="M50.7552 1.28518C50.7552 1.28518 50.9653 2.12763 50.1229 4.23654L39.1636 32.6901V33.9548C39.1636 33.9548 39.5858 34.7972 39.1636 36.484C39.1636 36.484 39.1636 36.9061 38.5313 37.5384C38.5313 37.5384 38.5313 39.2252 39.5858 40.4898C39.5858 40.4898 42.5371 43.6513 42.7473 45.9704C42.7473 45.9704 42.7473 46.8128 44.0119 47.8673C44.0119 47.8673 45.6986 49.342 46.7512 51.8712L48.0158 53.346C48.0158 53.346 48.6481 52.9238 49.0703 53.5561L49.4924 54.1884C49.4924 54.1884 49.9146 54.1884 50.1248 54.8207C50.1248 54.8207 51.1792 54.6106 51.1792 54.8207C51.1792 55.0309 51.3894 53.134 51.3894 52.2915C51.3894 52.2915 46.7531 51.2371 46.7531 49.7623C46.7531 49.7623 47.1752 48.4977 48.4399 48.0755C48.4399 48.0755 47.3854 48.0755 47.1752 47.2331L49.0722 46.6008C49.0722 46.6008 50.9691 45.7583 51.3912 45.3362V44.4937C51.3912 44.4937 54.9117 44.4937 56.0461 45.3622C56.1223 45.4199 56.1874 45.4812 56.2395 45.5482C56.2395 45.5482 57.9262 45.9704 58.1364 47.0229H57.7142C57.7142 47.0229 58.3465 48.0774 58.3465 48.4977C58.3465 48.4977 58.1364 49.3402 58.3465 49.9725L58.7687 51.0269C58.7687 51.0269 58.6404 51.4565 58.287 51.5737C58.1754 51.6109 58.4042 52.0442 58.4042 52.0442C58.4042 52.0442 58.4042 52.2785 57.9337 52.5147C57.4632 52.7509 57.8165 53.3367 57.8165 53.3367C57.8165 53.3367 58.0508 53.69 57.5822 53.8072C57.5822 53.8072 57.5822 54.7463 56.7602 54.6292H55.9326C55.9326 54.6292 56.4031 56.156 56.4031 57.097C56.4031 57.097 56.9908 57.6847 58.0471 57.6847C59.1053 57.6847 59.8101 57.919 60.7493 58.7429C60.7493 58.7429 62.9809 59.4477 63.3343 59.682C63.3343 59.682 65.5659 59.2115 66.9756 59.682H67.7976C67.7976 59.682 67.7976 58.86 68.1509 58.5067C68.1509 58.5067 69.3263 58.1533 69.4434 58.0362C69.4434 58.0362 69.914 58.3895 69.3263 59.0943C69.3263 59.0943 70.0311 59.7992 70.2654 60.7383C70.2654 60.7383 71.1339 62.148 71.5579 62.148C71.6751 62.148 73.3209 62.2652 73.4381 62.97H71.9113C71.9113 62.97 72.499 63.4405 72.3818 64.0282C72.3818 64.0282 70.2673 63.2062 70.033 62.8528C70.033 62.8528 70.1501 63.4405 69.7986 63.4405C69.4453 63.4405 68.8595 62.5013 68.8595 62.5013C68.8595 62.5013 67.8013 63.7938 66.9793 63.7938C66.1573 63.7938 65.0992 63.5595 64.6305 63.6767C64.16 63.7938 62.8675 64.3815 61.2235 64.1472C61.2235 64.1472 61.3407 66.496 61.2235 68.1418C61.2235 68.1418 61.2235 68.9638 61.4578 69.3172C61.4578 69.3172 61.9283 70.6097 61.1045 70.9612C61.1045 70.9612 62.397 71.8966 62.397 73.7805C62.397 73.8977 62.7503 75.3073 63.219 76.1293C63.219 76.1293 64.5115 77.8923 64.3943 82.59C64.3943 82.59 64.2772 85.5264 64.5115 87.6409C64.5115 87.6409 64.7458 89.9898 64.6287 91.4013C64.6287 91.4013 64.5115 92.5766 64.863 94.4549C65.2163 96.3351 65.0973 100.916 65.0973 100.916C65.0973 100.916 65.9193 102.208 65.9193 103.969C65.9193 105.73 66.0364 107.376 67.0946 108.669C67.0946 108.669 68.3871 110.078 67.2118 111.254L65.4488 112.898C65.4488 112.898 66.2708 114.307 66.3879 115.951L67.0928 116.656L70.0293 117.127H40.895C40.895 117.127 45.946 116.188 46.1822 116.188C46.4183 116.188 46.5058 115.027 47.4747 114.544C47.709 114.426 47.828 113.722 47.828 113.722C47.828 113.722 43.8333 112.312 43.9505 109.375C43.9505 109.375 42.8923 109.375 42.1875 108.436C41.4827 107.497 39.8387 107.027 39.8387 107.027C39.8387 107.027 38.5462 106.673 39.0167 105.851C39.4872 105.029 41.9532 99.0373 43.599 96.6884C43.599 96.6884 43.599 93.5158 44.421 90.6964C44.421 90.6964 44.7744 87.5238 45.3602 85.8798C45.3602 85.8798 46.1822 82.9433 46.1822 82.2385L45.124 83.2966C45.124 83.2966 44.302 83.8843 43.8315 83.1795C43.361 82.4747 42.6561 82.5918 43.4781 80.1258C43.4781 80.1258 43.1248 78.4818 43.8315 76.836C43.8315 76.836 43.5972 73.8995 45.4755 72.3708L47.3556 70.844C47.3556 70.844 46.4165 70.3735 46.4165 67.7904V67.0855C46.4165 67.0855 45.124 66.1464 44.0677 66.615C44.0677 66.615 41.2483 68.8467 37.607 68.8467C33.9657 68.8467 33.8467 67.437 32.556 67.3199C31.2635 67.2027 30.4416 65.793 30.6759 64.971C30.9102 64.149 31.4979 64.149 31.2635 63.5614H30.2054C30.2054 63.5614 29.7349 63.4442 29.7349 62.7394C29.7349 62.0346 35.022 59.5667 38.6633 60.3906C38.6633 60.3906 43.8333 57.6884 44.8897 57.5712C44.8897 57.5712 42.4218 55.3396 41.4827 52.0498C40.5435 48.7599 39.0148 46.9988 39.0148 46.9988C39.0148 46.9988 36.547 42.2993 36.0783 39.9505C36.0783 39.9505 35.6078 40.7725 35.1392 40.0676C34.6687 39.3628 34.6687 39.1285 35.022 38.0703C35.022 38.0703 34.3172 36.895 34.6687 35.8386C34.6687 35.8386 34.7858 34.429 35.6078 34.1947L36.0783 33.7241L35.9612 31.3753L36.5489 29.8485C36.5489 29.8485 37.1365 29.6142 37.3708 30.0828C37.488 30.3172 37.8414 30.5533 37.8414 30.5533L49.7063 2.35823C49.7063 2.34707 50.1582 1.2796 50.7552 1.28518Z" fill="#ECE5D6"/>
<path d="M54.3129 50.9129C54.3129 50.9129 53.8424 51.8521 52.9032 51.9711C51.9641 52.0883 51.3764 52.3245 51.3764 52.3245C51.3764 52.3245 47.0135 51.3072 46.7866 49.9366C46.7866 49.9366 46.9112 48.566 48.5571 48.566C48.5571 48.566 49.0276 48.8003 48.6742 49.2708C48.3209 49.7413 49.8496 49.7413 50.3182 49.5051C50.7887 49.2708 51.7279 48.9175 51.6107 49.388C51.4936 49.8585 53.0204 48.8003 53.0204 48.8003L51.845 48.566C51.845 48.566 53.3719 47.3906 54.43 47.5078C54.43 47.5078 52.7861 46.803 52.1984 47.3906C52.1984 47.3906 50.0021 48.354 48.2818 48.1066C48.2818 48.1066 47.0302 47.625 47.1474 47.2716C47.1474 47.2716 49.4962 47.625 50.5544 46.9183C51.6126 46.2134 56.4292 46.2134 56.8979 46.9183C56.8979 46.9183 57.3684 47.9764 56.8979 48.7984C56.8979 48.7984 55.7225 49.5033 54.9005 49.3861C54.0786 49.2689 54.9005 49.5033 54.9005 49.5033C54.9005 49.5033 55.1349 51.4987 54.3129 50.9129Z" fill="#A5BCD1"/>
<path d="M67.2362 111.299C68.4115 110.123 67.119 108.714 67.119 108.714C66.0609 107.421 65.9437 105.777 65.9437 104.014C65.9437 102.251 65.1217 100.961 65.1217 100.961C65.1217 100.961 65.2389 96.3782 64.8874 94.4999C64.534 92.6197 64.6531 91.4462 64.6531 91.4462C64.7702 90.0366 64.5359 87.6859 64.5359 87.6859C64.3016 85.5714 64.4187 82.6349 64.4187 82.6349C64.5359 77.9354 63.2434 76.1743 63.2434 76.1743C62.7729 75.3523 62.4214 73.9426 62.4214 73.8255C62.4214 71.9416 61.1289 71.0061 61.1289 71.0061C61.9509 70.6528 61.4822 69.3621 61.4822 69.3621C61.2479 69.0088 61.2479 68.1868 61.2479 68.1868C61.3651 66.5428 61.2479 64.1921 61.2479 64.1921C62.8919 64.4265 64.1844 63.8388 64.6549 63.7216C65.1254 63.6045 66.1817 63.8388 67.0037 63.8388C67.8257 63.8388 68.8839 62.5463 68.8839 62.5463C68.8839 62.5463 69.4716 63.4855 69.8231 63.4855C70.1764 63.4855 70.0574 62.8978 70.0574 62.8978C70.2917 63.2511 72.4062 64.0731 72.4062 64.0731C72.5234 63.4855 71.9357 63.0149 71.9357 63.0149H73.4625C73.3454 62.3101 71.6995 62.193 71.5823 62.193C71.1583 62.193 70.2898 60.7833 70.2898 60.7833C70.0555 59.8441 69.3507 59.1393 69.3507 59.1393C69.9384 58.4345 69.4678 58.0811 69.4678 58.0811C69.3507 58.1983 68.1754 58.5516 68.1754 58.5516C67.822 58.905 67.822 59.727 67.822 59.727H67C65.5903 59.2565 63.3587 59.727 63.3587 59.727C63.0053 59.4927 60.7737 58.7878 60.7737 58.7878C59.8345 57.9658 59.1297 57.7296 58.0715 57.7296C57.0133 57.7296 56.4275 57.142 56.4275 57.142C56.4275 56.2028 55.957 54.6741 55.957 54.6741H56.779C57.601 54.7913 57.601 53.8521 57.601 53.8521C58.0715 53.735 57.8353 53.3816 57.8353 53.3816C57.8353 53.3816 57.482 52.794 57.9525 52.5596C58.423 52.3253 58.423 52.0891 58.423 52.0891C58.423 52.0891 58.1999 51.6726 58.3059 51.6186C58.7764 51.3843 58.7875 51.0719 58.7875 51.0719L58.3654 50.0174C58.1552 49.3851 58.3654 48.5427 58.3654 48.5427C58.3654 48.5055 58.3598 48.4646 58.3505 48.4199C58.3412 48.4292 57.4801 49.387 56.8962 49.387C56.3085 49.387 57.3667 50.0918 57.3667 50.0918C57.3667 50.0918 57.8372 50.5623 56.6619 51.5015C55.4865 52.4406 55.8399 53.1454 55.8399 53.1454C55.8399 53.1454 55.0179 53.0283 55.0179 51.853C55.0179 51.853 55.2764 50.6739 54.8412 50.7818C54.7836 50.7966 54.512 51.0124 54.512 51.0124C54.512 51.0124 54.4302 52.7921 55.135 53.6141C55.8399 54.4361 55.135 53.7313 55.135 53.7313C55.135 53.7313 55.3694 57.6088 55.3694 57.7259C55.3694 57.8431 55.6037 58.1964 56.0742 57.8431C56.5447 57.4897 58.6592 58.9013 58.6592 58.9013C58.6592 58.9013 60.6565 60.1938 61.5957 61.3691C62.5348 62.5444 59.2469 62.3083 59.2469 62.3083C59.2469 62.3083 57.9544 63.0131 57.8372 63.9522C57.8372 63.9522 59.4273 63.4259 59.9517 63.9522C60.0689 64.0694 59.364 64.6571 60.5394 64.6571C60.5394 64.6571 59.1297 66.7716 58.8954 67.8297L60.6584 66.8906C60.6584 66.8906 60.7756 69.7099 53.4929 71.8244C53.4929 71.8244 51.9401 73.0927 50.9079 73.3512C50.4374 73.4684 49.0277 73.4684 48.2058 74.1732C47.3838 74.8781 49.0277 72.8807 51.1422 72.7636C53.2567 72.6464 50.0841 72.2931 50.0841 72.2931C50.0841 72.2931 53.4911 70.53 54.4302 70.53C54.4302 70.53 58.6592 69.5909 59.364 68.1812C59.364 68.1812 54.194 70.4129 51.728 70.6491C51.728 70.6491 49.8479 70.8834 50.3184 71.1196C50.7889 71.3558 49.7307 71.7072 49.2602 72.0587C48.7897 72.4121 44.0902 73.3512 43.973 76.9925C43.973 76.9925 44.6779 76.0534 45.4999 75.9344C46.3219 75.8153 47.9677 74.5247 50.0822 74.5247C50.0822 74.5247 43.7387 77.5784 43.6216 79.107C43.6216 79.107 44.5607 78.5194 44.5607 79.107C44.5607 79.6947 43.1957 81.5228 43.2905 82.5475L44.2129 83.5201C44.4194 83.6001 44.637 83.5648 44.8118 83.5053C44.9829 83.4309 45.1893 83.297 45.4292 83.0589L46.2066 82.2816C46.2066 82.3467 46.1991 82.4285 46.188 82.5271C46.108 83.5034 45.79 87.1112 45.3846 87.9221C45.3846 87.9221 46.6771 86.9829 46.6771 87.1001C46.6771 87.2172 46.2066 88.6269 45.5017 89.5679C45.5017 89.5679 44.5403 91.0706 44.0995 92.1566C44.0326 92.4933 43.973 92.8261 43.9228 93.1497C43.9823 93.252 44.1088 93.2818 44.3264 93.2092C44.6797 93.0921 46.558 90.9776 46.558 90.9776C46.558 90.9776 47.9677 94.3846 46.6752 96.7334C46.6752 96.7334 45.2562 98.3774 46.0875 98.3774C46.2047 98.3774 47.1457 97.6725 47.1457 97.6725C47.1457 97.6725 44.2092 102.843 44.6779 104.604L47.1457 101.55C47.1457 101.55 45.5017 105.191 45.9704 105.779C46.4409 106.367 44.795 107.776 44.795 107.776C44.795 107.776 41.4215 105.697 38.9369 106.209C38.9332 106.263 38.9369 106.313 38.9481 106.361C38.9704 106.449 39.0262 106.564 39.1508 106.692C39.4242 106.953 39.8594 107.072 39.8594 107.072C39.8594 107.072 40.1867 107.165 40.6107 107.352C40.6107 107.352 41.9311 107.814 42.3551 108.658C42.9632 109.324 43.7406 109.409 43.9284 109.42C43.9433 109.42 43.9563 109.422 43.9712 109.422C43.9507 109.917 44.0493 110.365 44.2241 110.774C44.6184 111.643 45.5743 112.786 47.8487 113.77C47.8487 113.77 49.3755 112.007 48.6707 108.366C47.9658 104.725 47.261 99.9079 47.8487 96.5009C47.8487 96.5009 48.5535 93.9159 47.9658 91.2138C47.3782 88.5116 47.0267 83.3416 47.6125 81.11C47.6125 81.11 48.083 79.3469 49.4927 78.2906C49.4927 78.2906 51.6072 76.881 52.8997 79.1126C52.8997 79.1126 52.6653 77.3496 54.5437 77.1153C54.5437 77.1153 58.4212 75.8228 59.3603 73.1206C59.3975 73.0128 59.431 72.9142 59.4626 72.8231C59.3975 72.8603 59.3603 72.8863 59.3603 72.8863C59.3603 72.8863 60.2269 70.6119 59.4626 72.8231C59.8736 72.5832 61.4041 71.7854 61.7091 73.0035C62.0625 74.4131 61.3558 74.7665 61.7091 75.9399C62.0625 77.1153 58.8898 89.5679 58.0678 91.4481C58.0678 91.4481 59.4775 92.2701 59.3603 92.8578C59.2431 93.4454 58.185 94.8551 57.4801 95.2066C57.4801 95.2066 56.8925 95.6771 58.4193 95.9114C59.9461 96.1457 57.4801 104.606 57.4801 104.606C57.4801 104.606 55.3656 110.949 56.1876 113.3C56.1876 113.3 58.3021 115.063 56.8925 116.002C56.8925 116.002 55.4828 116.236 54.8951 116.236H54.3075C54.3075 116.236 53.3683 116.471 53.015 116.119C52.6616 115.768 53.015 116.353 53.015 116.353C53.015 116.353 53.6026 116.824 55.1295 116.707C56.6563 116.59 58.4193 116.941 58.0659 116.002C58.0659 116.002 57.8316 115.297 58.5365 115.18C59.2413 115.063 59.2413 114.122 61.0043 114.241C62.7673 114.358 63.236 113.065 63.236 113.065C63.236 113.065 63.3531 112.595 63.7065 113.419C64.0598 114.241 65.821 114.711 65.821 114.711C65.821 114.711 63.236 114.594 63.236 115.065C63.236 115.065 64.3313 116.394 66.8382 116.435L66.4086 116.006C66.2915 114.362 65.4695 112.952 65.4695 112.952L67.2362 111.299Z" fill="#A5BCD1"/>
<path d="M64.0264 59.6152C64.0264 59.6152 65.4732 60.4298 65.9437 61.3689C66.4142 62.3081 65.9437 61.0156 66.4142 61.1346C66.8847 61.2518 68.7631 61.7223 69.2336 61.3689C69.2336 61.3689 68.8802 59.8421 67.8239 59.7249C67.8239 59.7249 69.4679 60.0783 69.8212 60.5469C69.8212 60.5469 69.9384 60.1043 69.8212 59.738L69.3507 59.1373C69.3507 59.1373 70.1337 58.0791 69.4679 58.0791C69.3507 58.0791 68.6459 58.4324 68.1754 58.5496C68.1754 58.5496 67.783 58.7839 67.6863 59.7249H67C67 59.7231 65.6332 59.2712 64.0264 59.6152Z" fill="#ECE5D6"/>
<path d="M54.6643 59.0176C54.6643 59.0176 55.9568 60.5444 54.1938 60.6616C52.4308 60.7787 51.2573 66.0659 51.2573 66.0659C51.2573 66.0659 52.5498 64.0686 54.1938 63.9514C55.8378 63.8342 57.837 61.0149 54.6643 59.0176Z" fill="#A5BCD1"/>
<path d="M51.6107 57.0205C51.6107 57.0205 50.6716 58.1958 50.6716 59.4883C50.6716 60.7808 50.201 62.542 49.0276 63.9535C47.8522 65.3632 49.6152 69.7093 49.6152 69.7093L49.0276 69.9436L48.2056 69.0045L47.3836 70.8847C47.3836 70.8847 46.4444 70.1798 47.0302 67.3605C47.616 64.5412 47.5007 63.9535 47.5007 63.9535C47.5007 63.9535 47.0284 61.0152 51.6107 57.0205Z" fill="#A5BCD1"/>
<path d="M51.845 80.9886C51.845 80.9886 53.3718 81.4591 53.8423 82.9859C54.3128 84.5128 54.5471 84.3956 54.5471 84.3956C54.5471 84.3956 56.8959 76.8768 59.1295 74.8794C59.1295 74.8794 59.8343 74.2918 59.9515 73.7041C59.9515 73.7041 59.481 75.7014 57.9541 77.5816C56.4273 79.4618 55.4863 84.8661 55.3691 86.3929L55.0158 87.9197C55.0158 87.9197 56.7788 85.8052 58.1884 85.4519C58.1884 85.4519 55.3691 86.9787 54.8986 91.4439L54.7815 96.4949C54.7815 96.4949 56.074 93.3222 56.1911 93.5584C56.3083 93.7927 55.1329 99.3142 54.6643 99.7847C54.1938 100.255 52.7841 100.96 52.0793 104.014C51.3745 107.067 51.1401 109.184 50.1991 109.652C50.1991 109.652 49.0238 110.711 49.1409 111.884C49.1409 111.884 49.1409 113.764 47.8484 113.764C47.8484 113.764 49.3325 111.776 48.65 108.246C48.65 108.246 50.082 102.602 49.8458 98.9609C49.8458 98.9609 48.9382 97.3913 47.6309 99.3514L49.0238 96.2587C49.0238 96.2587 51.1383 96.8464 51.2554 96.2587C51.3726 95.671 54.1919 84.3937 50.9021 81.9259C50.9021 81.9259 52.7823 83.3356 53.2509 84.6281C53.2546 84.6299 53.608 82.6326 51.845 80.9886Z" fill="#A5BCD1"/>
<path d="M57.9543 59.254C57.9115 59.0941 56.3103 65.246 55.6055 66.6557C55.6055 66.6557 58.8953 62.7782 57.9543 59.254Z" fill="#A5BCD1"/>
<path d="M41.2725 49.3848C41.2725 49.3848 42.9499 50.4988 43.7403 51.8527C44.5623 53.2623 43.0355 52.5575 43.0355 52.5575C43.0355 52.5575 39.8628 49.621 42.2618 54.0006C42.3139 54.0973 43.3888 56.6693 45.9738 58.5495C46.0687 58.6183 45.9738 58.5495 45.9738 58.6666C45.9738 58.7838 45.269 59.3715 45.5033 59.842C45.7376 60.3125 46.4425 61.0173 44.9156 61.0173C43.3888 61.0173 41.743 62.3098 41.743 62.3098C41.743 62.3098 40.3333 62.427 39.5113 61.8393C39.5113 61.8393 41.2743 61.3688 41.6258 60.0763C41.6258 60.0763 39.9818 61.3688 38.6893 61.486C37.3968 61.6031 35.9872 63.13 34.107 62.5441C32.2268 61.9565 31.0533 61.8393 30.2295 63.6023C30.2295 63.6023 32.8145 63.368 33.5193 64.3072C34.2242 65.2463 34.8118 65.1291 34.8118 65.1291C34.8118 65.1291 30.2016 65.4174 31.1556 66.5667C31.1556 66.5667 31.8474 67.4092 32.742 67.385C32.742 67.385 33.0674 67.4594 34.2335 68.1735C34.2335 68.1735 35.7231 69.2428 39.0854 68.7723C39.0854 68.7723 41.8676 68.207 44.2127 66.6095C44.2127 66.6095 45.2671 66.3045 46.4425 67.1265L46.6768 64.5415C46.6768 64.5415 45.2671 65.3635 44.328 64.7758C44.328 64.7758 45.15 63.249 46.5596 62.6613C46.5596 62.6613 46.0891 60.4297 48.3226 57.1398C48.3226 57.1398 49.498 54.9082 48.0883 53.3795L46.7958 51.9698C46.7958 51.9698 45.68 49.2193 43.4186 47.3057C43.4186 47.3057 43.506 48.3285 42.3325 48.7972C41.1553 49.2677 40.6848 48.3285 41.2725 49.3848Z" fill="#A5BCD1"/>
<path d="M38.7156 46.5203C38.7156 46.5203 39.5785 45.2948 38.5203 42.0049C38.5203 42.0049 38.7547 41.0658 40.6348 42.5926L41.9924 43.9149C41.9924 43.9149 40.3522 41.5958 39.731 40.7422C39.731 40.7422 38.5222 39.5371 38.5222 37.6569C38.5222 37.6569 39.1415 37.099 39.1843 36.3793C39.1843 36.3793 39.4632 35.191 39.1099 34.0156C39.1099 34.0156 38.405 34.8376 37.8174 34.7205C37.8174 34.7205 38.1707 35.4253 37.464 35.5424C37.464 35.5424 37.2297 36.013 36.7592 36.1301L36.0544 36.2473C36.0544 36.2473 37.1125 36.4816 36.8764 36.8349C36.642 37.1883 34.879 36.8349 34.879 36.8349L34.5703 36.8907L34.9962 38.1256C34.9962 38.1256 35.1133 37.5379 35.9353 37.5379C36.7573 37.5379 35.4648 38.8304 35.4648 38.8304C35.4648 38.8304 35.0297 39.1763 34.7767 38.8862C34.7767 38.8862 34.5201 39.5873 35.2268 40.2661C35.2268 40.2661 35.582 40.7106 36.0506 40.0058C36.0525 40.0095 37.0307 43.7531 38.7156 46.5203Z" fill="#A5BCD1"/>
<path d="M40.4412 117.173L40.4133 117.271L39.5728 120.277H72.4897V117.173H40.4412Z" fill="#706F7F"/>
<path d="M72.4957 120.277H38.3307L38.0815 121.397H36.3426L35.9707 122.265H80.6875L80.5629 121.397H75.3464L72.4957 120.277Z" fill="#706F7F"/>
<path d="M50.7888 1.33496C50.7888 1.33496 50.2011 1.92263 49.2619 4.50763L38.1018 31.1759L37.397 30.1177L36.9265 31.5274L35.9873 31.4102L36.1045 33.759C36.1045 33.759 35.9873 33.1714 37.397 33.5247C38.8066 33.8781 38.3324 34.6313 38.3324 34.6313L39.1581 33.9934L39.2325 32.6116L50.0969 4.40907C50.0969 4.40907 50.9059 2.27412 50.7888 1.33496Z" fill="#A5BCD1"/>
<path d="M9.7165 103.279C9.7165 103.279 10.2404 90.8583 24.5788 91.4429C37.3629 91.964 37.3629 109.164 37.3629 109.164C37.3629 109.164 35.2347 124.801 24.5788 123.479C15.5485 121.152 9.23692 116.134 9.7165 103.279Z" fill="#587B65"/>
<path d="M88.2446 122.245L130.026 125.961L130.046 129.975L0.00495072 130.034L-0.0146484 125.942L35.9798 122.245H88.2446Z" fill="#809E62"/>
<path d="M0.0351562 84.4814C0.0351562 84.4814 7.85444 88.4736 7.96686 97.2604C7.96686 97.2604 12.3861 99.9999 14.3122 104.334C14.3122 104.334 19.7507 103.421 22.3563 107.074C22.3563 107.074 28.5893 103.424 33.0061 114.718C33.0061 114.718 34.3651 108.671 42.9763 109.584C42.9763 109.584 46.2614 104.563 53.9657 106.047C61.6701 107.531 69.1496 117 62.9167 130.121H0.0351562V84.4814Z" fill="#3D6567"/>
<path d="M98.0747 132.06C98.0747 132.06 99.7644 113.923 111.163 112.103C111.163 112.103 114.256 93.5029 131.391 93.5029V132.06H98.0747Z" fill="#3D6567"/>
</g>
</svg>
