<svg width="130" height="130" viewBox="0 0 130 130" fill="none" xmlns="http://www.w3.org/2000/svg">
<path d="M130 0H0V130H130V0Z" fill="#97A3E4"/>
<path d="M37.555 48.2822C37.555 48.2822 22.707 50.4158 20.9179 61.3461C20.9179 61.3461 10.2048 61.5971 9.72917 71.2666C9.72917 71.2666 1.99435 72.67 2.23218 79.2589C2.23218 79.2589 41.29 74.9005 51.9815 74.8948L37.555 48.2822Z" fill="#3D6567"/>
<path d="M0 35.3346L61.0893 35.1939C61.0893 35.1939 55.0193 17.6932 37.4038 18.8849C37.4038 18.8849 28.9555 3.28087 9.0807 3.63836C9.0807 3.63836 3.29716 4.11502 0 5.54496V35.3346Z" fill="#E1DDFA" fill-opacity="0.6"/>
<path d="M90.3182 57.0303C90.3182 57.0303 105.345 57.664 106.528 69.1902C106.528 69.1902 113.312 72.4563 113.49 78.2465C113.669 84.0366 114.204 80.4618 113.49 81.7996C113.49 81.7996 91.4857 78.0298 80.4375 77.9323L83.9455 67.5598L90.3182 57.0303Z" fill="#3D6567"/>
<path d="M0.147705 74.3408C0.147705 74.3408 24.7561 69.3794 49.0524 69.6177L49.674 70.7281C49.674 70.7281 9.45002 79.7003 0.147705 85.9184V74.3408Z" fill="#587B65"/>
<path d="M0.178711 82.7633C0.178711 82.7633 60.2032 56.9215 129.903 76.5128V130H0.178711V82.7633Z" fill="#809E62"/>
<path d="M129.809 111.154C129.809 111.154 78.0831 119.817 57.084 120.429L58.6082 129.995C58.6082 129.995 113.287 121.296 129.903 114.379L129.809 111.154Z" fill="#FFD47E"/>
<path d="M0.147705 79.791C0.147705 79.791 17.5456 78.1107 23.3292 98.4765C23.3292 98.4765 54.4252 99.3919 60.0087 129.995H0.178782L0.147705 79.791Z" fill="#3D6567"/>
<path d="M93.0609 91.5867C93.0609 87.3835 80.9425 83.9766 65.9917 83.9766C51.041 83.9766 38.9226 87.3835 38.9226 91.5867C38.9226 93.1845 40.6739 94.6632 43.6575 95.8873H43.6143C58.1705 101.943 65.9647 109.569 65.9647 109.569L66.0296 109.499C67.0295 108.47 73.732 101.97 88.2233 95.9198C91.2772 94.6957 93.0609 93.2008 93.0609 91.5867Z" fill="#587B65"/>
<path d="M81.6399 47.6758L129.903 47.3721V38.4137C129.903 38.4137 124.483 25.8035 111.868 25.8252C99.252 25.8469 96.6176 35.8571 96.6176 35.8571C96.6176 35.8571 83.0885 34.7955 81.6399 47.6758Z" fill="#EDE5D6"/>
<path d="M93.0609 45.4927C93.0609 30.5108 80.9425 18.3672 65.9917 18.3672C51.041 18.3672 38.9226 30.5108 38.9226 45.4927C38.9226 51.18 40.6739 56.4556 43.6575 60.8158H43.6143C58.1705 82.4004 65.9647 109.569 65.9647 109.569L66.0296 109.325C67.0295 105.664 73.732 82.4978 88.2233 60.9458C91.2772 56.5639 93.0609 51.2395 93.0609 45.4927Z" fill="#A5BCD1"/>
<path d="M91.9798 45.4927C91.9798 30.5108 79.8614 18.3672 64.9107 18.3672C49.96 18.3672 37.8416 30.5108 37.8416 45.4927C37.8416 51.18 39.5928 56.4556 42.5765 60.8158H42.5332C57.0894 82.4004 64.8837 109.569 64.8837 109.569L64.9485 109.325C65.9485 105.664 72.6509 82.4978 87.1422 60.9458C90.1961 56.5639 91.9798 51.2395 91.9798 45.4927Z" fill="#EDE5D5"/>
<path d="M65.9973 57.4358C72.5796 57.4358 77.9157 52.0886 77.9157 45.4926C77.9157 38.8965 72.5796 33.5493 65.9973 33.5493C59.4149 33.5493 54.0789 38.8965 54.0789 45.4926C54.0789 52.0886 59.4149 57.4358 65.9973 57.4358Z" fill="#DE5327"/>
<path d="M65.9972 52.5667C69.8958 52.5667 73.0563 49.3996 73.0563 45.4928C73.0563 41.586 69.8958 38.4189 65.9972 38.4189C62.0985 38.4189 58.938 41.586 58.938 45.4928C58.938 49.3996 62.0985 52.5667 65.9972 52.5667Z" fill="#97A3E4"/>
<path d="M129.947 123.646H114.295C114.295 123.646 105.933 122.152 105.933 116.062C105.933 109.972 113.074 107.438 113.074 107.438C113.074 107.438 113.975 99.2504 123.511 98.6914C127.281 98.714 129.373 100.615 129.947 101.563V123.646Z" fill="#3D6467"/>
<path d="M85.5479 16.9318L130 16.6358V0H105.774C105.774 0 102.288 0.725823 99.2986 6.82474C99.2932 6.82474 86.4397 7.88634 85.5479 16.9318Z" fill="#EDE5D6"/>
<path d="M65.956 109.549L64.8938 109.559C64.9188 109.338 65.3242 107.971 65.5238 107.315L66.4923 107.696L65.956 109.549Z" fill="#A5BCD1"/>
</svg>
