<svg width="124" height="142" viewBox="0 0 124 142" fill="none" xmlns="http://www.w3.org/2000/svg">
<path d="M33.6731 85.6352L33.6731 125.926C33.6731 131.136 37.3817 135.357 41.951 135.357L80.868 135.357C85.4373 135.357 89.1367 131.136 89.1367 125.926L89.1367 35.5559C89.1367 31.3987 86.7834 27.8732 83.5144 26.6187C82.6811 26.2982 81.7929 26.1243 80.8589 26.1243L41.9419 26.1243C36.6981 26.1243 33.664 30.3456 33.664 35.5651L33.664 53.2563L33.664 59.8859L37.1711 71.6251C51.3552 71.6251 49.2491 85.6352 49.2491 85.6352L33.6731 85.6352Z" fill="#FFD47E"/>
<path d="M33.6731 123.334L89.1367 123.334L89.1367 38.4954L33.6731 38.4954L33.6731 123.334Z" fill="#FFA400"/>
<path d="M83.0864 112.861L77.7827 110.114L72.4789 112.861L67.1751 110.114L61.8713 112.861L56.5676 110.114L51.2638 112.861L45.96 110.114L40.6563 112.861L40.6563 47.4955L45.96 51.1583L51.2638 47.4955L56.5676 51.1583L61.8714 47.4955L67.1751 51.1583L72.4789 47.4955L77.7827 51.1583L83.0864 47.4955L83.0864 112.861Z" fill="#FFF2D8"/>
<path d="M46.646 74.4819H76.8883M77.0964 85.6449H46.6999" stroke="#FFA400" stroke-width="4"/>
<path d="M79.119 55.051C80.0347 52.3039 83.0107 50.8113 85.7578 51.727L95.0612 54.8221C97.8175 55.7378 99.3009 58.7138 98.3852 61.4609L97.9457 62.7886C97.03 65.5449 94.054 67.0283 91.3069 66.1126L82.0034 63.0176C79.2472 62.1019 77.7638 59.1259 78.6795 56.3788L79.119 55.051ZM80.1446 70.2332C81.0603 67.477 84.0271 65.9844 86.7834 66.9001L95.0887 69.6563C97.8449 70.572 99.3375 73.5389 98.4218 76.2951L97.9823 77.6229C97.0666 80.3791 94.0906 81.8717 91.3435 80.956L83.0382 78.1998C80.2819 77.2841 78.7893 74.3172 79.705 71.561L80.1446 70.2332ZM80.0255 39.1729C81.161 36.5082 84.2469 35.272 86.9207 36.4075L94.4843 39.6399C97.149 40.7753 98.3944 43.8612 97.2589 46.5351L96.7095 47.8262C95.574 50.4909 92.4881 51.7362 89.8143 50.5916L82.2507 47.3683C79.586 46.2329 78.3407 43.147 79.4853 40.4732L80.0255 39.1729Z" fill="#EDECF5"/>
<path d="M79.7458 85.271C80.8813 82.6063 83.9672 81.3701 86.641 82.5056L94.2046 85.738C96.8693 86.8734 98.1147 89.9593 96.9792 92.6332L96.4298 93.9243C95.2943 96.589 92.2084 97.8343 89.5346 96.6897L81.9709 93.4664C79.3063 92.331 78.0609 89.2451 79.2056 86.5713L79.7458 85.271Z" fill="#EDECF5"/>
<path d="M25.8896 78.3002L33.673 78.3002L52.7468 78.3003C52.7468 78.3003 51.3643 66.0116 37.1802 66.0116L33.673 55.7192L33.673 49.9137L33.673 35.0669C33.673 30.4976 37.3816 26.124 41.9509 26.124L80.8679 26.124C81.7928 26.124 82.6902 26.2797 83.5234 26.5635C79.4394 2.58148 58.2045 1.9405 58.2045 1.9405L58.151 -4.79945e-05L49.3328 -4.87654e-05L44.3057 -4.92049e-05L16.6517 -5.16225e-05L16.7052 53.4117L25.8896 78.3002Z" fill="#EDECF5"/>
<rect x="55.4717" y="31.0063" width="11.6701" height="2.78687" rx="1.39343" fill="#FFA400"/>
<path d="M121.307 109.65V131.288C121.307 135.706 117.725 139.288 113.307 139.288H91.6695M121.307 50.3745V28.7368C121.307 24.3185 117.725 20.7368 113.307 20.7368H91.6695M2.75635 50.3745V28.7368C2.75635 24.3185 6.33807 20.7368 10.7563 20.7368H32.3941M2.75635 109.65V131.288C2.75635 135.706 6.33808 139.288 10.7564 139.288H32.3941" stroke="#FFA400" stroke-width="4"/>
</svg>
