<svg width="90" height="152" viewBox="0 0 90 152" fill="none" xmlns="http://www.w3.org/2000/svg">
<path d="M71.0046 54.7932V10.7932C71.0046 5.10316 66.9546 0.493164 61.9646 0.493164H19.4646C14.4746 0.493164 10.4346 5.10316 10.4346 10.7932V109.483C10.4346 114.023 13.0046 117.873 16.5746 119.243C17.4846 119.593 18.4546 119.783 19.4746 119.783H61.9746C67.7011 119.783 71.0146 115.173 71.0146 109.473V90.1532V82.9132L67.1846 70.0932C51.6946 70.0932 53.9946 54.7932 53.9946 54.7932H71.0046Z" fill="#2E1AAE"/>
<path d="M71.0046 13.623H10.4346V106.273H71.0046V13.623Z" fill="#6A56E6"/>
<path d="M17.0415 25.0605L22.8336 28.0605L28.6257 25.0605L34.4177 28.0605L40.2098 25.0605L46.0019 28.0605L51.794 25.0605L57.586 28.0605L63.3781 25.0605V96.4439L57.586 92.4439L51.794 96.4439L46.0019 92.4439L40.2098 96.4439L34.4177 92.4439L28.6257 96.4439L22.8336 92.4439L17.0415 96.4439V25.0605Z" fill="#E1DDFA"/>
<path d="M21.3744 88.1928C20.3744 91.1928 17.1244 92.8228 14.1244 91.8228L3.9644 88.4428C0.9544 87.4428 -0.665605 84.1928 0.334395 81.1928L0.81439 79.7428C1.81439 76.7328 5.06439 75.1128 8.06439 76.1128L18.2244 79.4928C21.2344 80.4928 22.8544 83.7428 21.8544 86.7428L21.3744 88.1928ZM20.2544 71.6128C19.2544 74.6228 16.0144 76.2528 13.0044 75.2528L3.9344 72.2428C0.924401 71.2428 -0.705599 68.0028 0.294401 64.9928L0.774397 63.5428C1.7744 60.5328 5.0244 58.9028 8.0244 59.9028L17.0944 62.9128C20.1044 63.9128 21.7344 67.1528 20.7344 70.1628L20.2544 71.6128ZM20.3844 105.533C19.1444 108.443 15.7744 109.793 12.8544 108.553L4.5944 105.023C1.6844 103.783 0.32439 100.413 1.56439 97.4928L2.1644 96.0828C3.4044 93.1728 6.77439 91.8128 9.6944 93.0628L17.9544 96.5828C20.8644 97.8228 22.2244 101.193 20.9744 104.113L20.3844 105.533Z" fill="#EDECF5"/>
<path d="M20.6896 55.1906C19.4496 58.1006 16.0796 59.4506 13.1596 58.2106L4.89957 54.6806C1.98957 53.4406 0.629559 50.0706 1.86956 47.1506L2.46957 45.7406C3.70957 42.8306 7.07956 41.4706 9.99956 42.7206L18.2596 46.2406C21.1696 47.4806 22.5296 50.8506 21.2796 53.7706L20.6896 55.1906Z" fill="#EDECF5"/>
<path d="M79.5045 62.8033H71.0045L50.1747 62.8032C50.1747 62.8032 51.6845 76.2233 67.1745 76.2233L71.0045 87.4633V93.8033V110.017C71.0045 115.007 66.9545 119.783 61.9645 119.783H19.4645C18.4545 119.783 17.4745 119.613 16.5645 119.303C21.0245 145.493 44.2145 146.193 44.2145 146.193V151.923H53.8445H59.3345H89.5345V89.9833L79.5045 62.8033Z" fill="#EDECF5"/>
<path d="M29.052 58.0358L36.7211 65.7049L54.5466 47.8794" stroke="#2E1AAE" stroke-width="4"/>
</svg>
