<svg width="116" height="110" viewBox="0 0 116 110" fill="none" xmlns="http://www.w3.org/2000/svg">
<path d="M0 43.4046L57.5205 78.4424L115.041 43.4046V36.0262L57.5205 0.000167847L0 35.5624V43.4046Z" fill="#EB3D00"/>
<path d="M25.0059 9.55615L32.4429 13.4082L39.8799 9.55615L47.3169 13.4082L54.754 9.55615L62.191 13.4082L69.628 9.55615L77.0651 13.4082L84.5021 9.55615V101.212L77.0651 96.0764L69.628 101.212L62.191 96.0764L54.754 101.212L47.3169 96.0764L39.8799 101.212L32.4429 96.0764L25.0059 101.212V9.55615Z" fill="#FFD8CB"/>
<path d="M33.5708 34.3901H75.6473M75.9368 46.5808H33.6458" stroke="#EB3D00" stroke-width="4"/>
<path d="M0 35.3076L57.5205 70.1533L115.041 35.3076V101.263C115.041 105.681 111.459 109.263 107.041 109.263H8.00001C3.58173 109.263 0 105.681 0 101.263V35.3076Z" fill="#FFD8CB"/>
<path d="M0 35.3076L57.5205 70.1533L115.041 35.3076V42.686L57.5205 78.7121L0 43.1498V35.3076Z" fill="#FF7E53"/>
</svg>
